{
.appVersion = "3089";
DisplayStrings = (
"/quotedblleft He/space said,/space/quoteleft Ouch;/space I'm/space hurt/quoteright ,/space but,/space like,/space we/space didn't/space hear;/space or:/space didn't/space want/space to/quotedblright"
);
customParameters = (
{
name = Axes;
value = (
{
Name = Weight;
Tag = wght;
}
);
}
);
date = "2021-04-02 20:56:08 +0000";
familyName = "Blueberry Sans";
fontMaster = (
{
alignmentZones = (
"{800, 16}",
"{700, 16}",
"{500, 16}",
"{0, -16}",
"{-250, -16}"
);
ascender = 800;
capHeight = 700;
descender = -250;
id = m01;
userData = {
GSCornerRadius = 15;
GSExtrudeAngle = 30;
GSExtrudeOffset = 15;
GSOffsetHorizontal = 29;
GSOffsetMakeStroke = 1;
GSOffsetPosition = 1;
GSOffsetVertical = 32;
};
visible = 1;
weight = Light;
weightValue = 300;
xHeight = 500;
},
{
alignmentZones = (
"{800, 16}",
"{700, 16}",
"{500, 16}",
"{0, -16}",
"{-250, -16}"
);
ascender = 800;
capHeight = 700;
custom = Black;
descender = -250;
iconName = Bold;
id = "747A0BA5-337F-45E8-9896-B2CAF0968805";
userData = {
GSOffsetHorizontal = 60;
GSOffsetMakeStroke = 1;
GSOffsetPosition = 0;
GSOffsetVertical = 55;
};
weightValue = 900;
xHeight = 500;
}
);
glyphs = (
{
glyphname = A;
lastChange = "2021-06-25 18:33:55 +0000";
layers = (
{
anchors = (
{
name = bottom;
position = "{331, 0}";
},
{
name = ogonek;
position = "{596, 10}";
},
{
name = top;
position = "{331, 700}";
}
);
layerId = m01;
paths = (
{
closed = 1;
nodes = (
"78 0 LINE",
"364 700 LINE",
"298 700 LINE",
"10 0 LINE"
);
},
{
closed = 1;
nodes = (
"364 700 LINE",
"298 700 LINE",
"584 0 LINE",
"652 0 LINE"
);
},
{
closed = 1;
nodes = (
"146 217 LINE",
"516 217 LINE",
"516 275 LINE",
"146 275 LINE"
);
}
);
width = 662;
},
{
anchors = (
{
name = bottom;
position = "{365, 0}";
},
{
name = ogonek;
position = "{672, 10}";
},
{
name = top;
position = "{365, 700}";
}
);
layerId = "747A0BA5-337F-45E8-9896-B2CAF0968805";
paths = (
{
closed = 1;
nodes = (
"190 0 LINE",
"446 700 LINE",
"273 700 LINE",
"5 0 LINE"
);
},
{
closed = 1;
nodes = (
"456 700 LINE",
"283 700 LINE",
"539 0 LINE",
"724 0 LINE"
);
},
{
closed = 1;
nodes = (
"123 120 LINE",
"607 120 LINE",
"607 278 LINE",
"123 278 LINE"
);
}
);
width = 729;
}
);
unicode = 0041;
},
{
glyphname = B;
lastChange = "2021-06-25 18:25:43 +0000";
layers = (
{
background = {
paths = (
{
closed = 1;
nodes = (
"164 0 LINE",
"164 700 LINE",
"100 700 LINE",
"100 0 LINE"
);
},
{
closed = 1;
nodes = (
"164 385 LINE",
"164 326 LINE",
"312 326 LINE",
"455 326 OFFCURVE",
"540 395 OFFCURVE",
"540 513 CURVE",
"540 631 OFFCURVE",
"456 701 OFFCURVE",
"315 701 CURVE",
"164 700 LINE",
"164 642 LINE",
"315 642 LINE",
"417 643 OFFCURVE",
"477 595 OFFCURVE",
"477 513 CURVE",
"477 433 OFFCURVE",
"427 385 OFFCURVE",
"342 385 CURVE",
"164 385 LINE",
"164 326 LINE"
);
},
{
closed = 1;
nodes = (
"164 59 LINE",
"164 0 LINE",
"342 0 LINE",
"479 0 OFFCURVE",
"560 69 OFFCURVE",
"560 187 CURVE",
"560 311 OFFCURVE",
"458 385 OFFCURVE",
"285 385 CURVE",
"164 384 LINE",
"164 326 LINE",
"315 326 LINE",
"429 327 OFFCURVE",
"497 275 OFFCURVE",
"497 187 CURVE",
"497 107 OFFCURVE",
"439 59 OFFCURVE",
"342 59 CURVE",
"164 59 LINE",
"164 0 LINE"
);
}
);
};
layerId = m01;
paths = (
{
closed = 1;
nodes = (
"164 0 LINE",
"164 700 LINE",
"100 700 LINE",
"100 0 LINE"
);
},
{
closed = 1;
nodes = (
"164 385 LINE",
"164 326 LINE",
"312 326 LINE",
"455 326 OFFCURVE",
"540 395 OFFCURVE",
"540 513 CURVE",
"540 631 OFFCURVE",
"456 701 OFFCURVE",
"315 701 CURVE",
"164 700 LINE",
"164 642 LINE",
"315 642 LINE",
"417 643 OFFCURVE",
"477 595 OFFCURVE",
"477 513 CURVE",
"477 433 OFFCURVE",
"427 385 OFFCURVE",
"342 385 CURVE",
"164 385 LINE",
"164 326 LINE"
);
},
{
closed = 1;
nodes = (
"164 59 LINE",
"164 0 LINE",
"342 0 LINE",
"479 0 OFFCURVE",
"560 69 OFFCURVE",
"560 187 CURVE",
"560 311 OFFCURVE",
"458 385 OFFCURVE",
"285 385 CURVE",
"164 384 LINE",
"164 326 LINE",
"315 326 LINE",
"429 327 OFFCURVE",
"497 275 OFFCURVE",
"497 187 CURVE",
"497 107 OFFCURVE",
"439 59 OFFCURVE",
"342 59 CURVE",
"164 59 LINE",
"164 0 LINE"
);
}
);
width = 610;
},
{
layerId = "747A0BA5-337F-45E8-9896-B2CAF0968805";
paths = (
{
closed = 1;
nodes = (
"250 0 LINE",
"250 700 LINE",
"70 700 LINE",
"70 0 LINE"
);
},
{
closed = 1;
nodes = (
"111 440 LINE",
"111 276 LINE",
"239 294 LINE",
"433 294 OFFCURVE",
"571 391 OFFCURVE",
"571 493 CURVE",
"571 635 OFFCURVE",
"468 701 OFFCURVE",
"322 701 CURVE",
"111 698 LINE",
"111 557 LINE",
"309 557 LINE",
"351 558 OFFCURVE",
"381 535 OFFCURVE",
"381 496 CURVE",
"381 457 OFFCURVE",
"351 435 OFFCURVE",
"309 435 CURVE",
"111 435 LINE",
"111 281 LINE"
);
},
{
closed = 1;
nodes = (
"119 170 LINE",
"119 0 LINE",
"357 0 LINE",
"499 0 OFFCURVE",
"599 74 OFFCURVE",
"599 208 CURVE",
"599 371 OFFCURVE",
"450 421 OFFCURVE",
"240 421 CURVE",
"119 426 LINE",
"119 288 LINE",
"335 288 LINE",
"379 289 OFFCURVE",
"407 264 OFFCURVE",
"407 227 CURVE",
"407 190 OFFCURVE",
"379 163 OFFCURVE",
"335 163 CURVE",
"119 163 LINE",
"119 0 LINE"
);
}
);
width = 629;
}
);
leftMetricsKey = I;
rightMetricsKey = O;
unicode = 0042;
},
{
glyphname = C;
lastChange = "2021-06-28 04:41:49 +0000";
layers = (
{
layerId = m01;
paths = (
{
closed = 1;
nodes = (
"675 546 LINE",
"624 646 OFFCURVE",
"504 716 OFFCURVE",
"386 716 CURVE SMOOTH",
"189 716 OFFCURVE",
"50 564 OFFCURVE",
"50 350 CURVE SMOOTH",
"50 136 OFFCURVE",
"190 -16 OFFCURVE",
"389 -16 CURVE SMOOTH",
"507 -16 OFFCURVE",
"627 59 OFFCURVE",
"679 166 CURVE",
"626 199 LINE",
"584 106 OFFCURVE",
"486 40 OFFCURVE",
"389 40 CURVE SMOOTH",
"228 40 OFFCURVE",
"114 168 OFFCURVE",
"114 350 CURVE SMOOTH",
"114 530 OFFCURVE",
"227 658 OFFCURVE",
"386 658 CURVE SMOOTH",
"481 658 OFFCURVE",
"579 598 OFFCURVE",
"622 513 CURVE"
);
}
);
width = 719;
},
{
background = {
paths = (
{
closed = 1;
nodes = (
"607 -16 OFFCURVE",
"757 135 OFFCURVE",
"757 349 CURVE SMOOTH",
"757 563 OFFCURVE",
"606 715 OFFCURVE",
"393 715 CURVE SMOOTH",
"180 715 OFFCURVE",
"30 563 OFFCURVE",
"30 349 CURVE SMOOTH",
"30 135 OFFCURVE",
"181 -16 OFFCURVE",
"395 -16 CURVE SMOOTH"
);
},
{
closed = 1;
nodes = (
"292 164 OFFCURVE",
"220 241 OFFCURVE",
"220 349 CURVE SMOOTH",
"220 458 OFFCURVE",
"292 535 OFFCURVE",
"393 535 CURVE SMOOTH",
"495 535 OFFCURVE",
"567 458 OFFCURVE",
"567 349 CURVE SMOOTH",
"567 241 OFFCURVE",
"496 164 OFFCURVE",
"395 164 CURVE SMOOTH"
);
}
);
};
layerId = "747A0BA5-337F-45E8-9896-B2CAF0968805";
paths = (
{
closed = 1;
nodes = (
"718 490 LINE",
"668 622 OFFCURVE",
"532 716 OFFCURVE",
"390 716 CURVE SMOOTH",
"179 716 OFFCURVE",
"30 564 OFFCURVE",
"30 350 CURVE SMOOTH",
"30 136 OFFCURVE",
"179 -16 OFFCURVE",
"390 -16 CURVE SMOOTH",
"534 -16 OFFCURVE",
"670 78 OFFCURVE",
"719 211 CURVE",
"539 269 LINE",
"510 207 OFFCURVE",
"448 164 OFFCURVE",
"388 164 CURVE SMOOTH",
"290 164 OFFCURVE",
"220 241 OFFCURVE",
"220 350 CURVE SMOOTH",
"220 459 OFFCURVE",
"288 536 OFFCURVE",
"385 536 CURVE SMOOTH",
"448 536 OFFCURVE",
"512 493 OFFCURVE",
"539 432 CURVE"
);
}
);
width = 739;
}
);
leftMetricsKey = O;
rightMetricsKey = "=O-10";
unicode = 0043;
},
{
glyphname = D;
lastChange = "2021-06-02 19:53:02 +0000";
layers = (
{
layerId = m01;
paths = (
{
closed = 1;
nodes = (
"498 0 OFFCURVE",
"633 145 OFFCURVE",
"633 350 CURVE SMOOTH",
"633 556 OFFCURVE",
"498 700 OFFCURVE",
"309 700 CURVE",
"309 642 LINE",
"453 642 OFFCURVE",
"569 511 OFFCURVE",
"569 350 CURVE SMOOTH",
"569 189 OFFCURVE",
"453 58 OFFCURVE",
"309 58 CURVE",
"309 0 LINE"
);
},
{
closed = 1;
nodes = (
"164 0 LINE",
"164 700 LINE",
"100 700 LINE",
"100 0 LINE"
);
},
{
closed = 1;
nodes = (
"164 642 LINE",
"309 642 LINE",
"309 700 LINE",
"164 700 LINE"
);
},
{
closed = 1;
nodes = (
"164 0 LINE",
"309 0 LINE",
"309 58 LINE",
"164 58 LINE"
);
}
);
width = 683;
},
{
layerId = "747A0BA5-337F-45E8-9896-B2CAF0968805";
paths = (
{
closed = 1;
nodes = (
"516 0 OFFCURVE",
"676 145 OFFCURVE",
"676 350 CURVE SMOOTH",
"676 555 OFFCURVE",
"516 700 OFFCURVE",
"289 700 CURVE",
"289 520 LINE",
"404 520 OFFCURVE",
"486 450 OFFCURVE",
"486 350 CURVE SMOOTH",
"486 250 OFFCURVE",
"404 180 OFFCURVE",
"289 180 CURVE",
"289 0 LINE"
);
},
{
closed = 1;
nodes = (
"260 0 LINE",
"260 700 LINE",
"70 700 LINE",
"70 0 LINE"
);
},
{
closed = 1;
nodes = (
"144 520 LINE",
"289 520 LINE",
"289 700 LINE",
"144 700 LINE"
);
},
{
closed = 1;
nodes = (
"144 0 LINE",
"289 0 LINE",
"289 180 LINE",
"144 180 LINE"
);
}
);
width = 706;
}
);
leftMetricsKey = I;
rightKerningGroup = round_right_uppercase;
rightMetricsKey = O;
unicode = 0044;
},
{
glyphname = E;
lastChange = "2021-05-30 06:49:53 +0000";
layers = (
{
layerId = m01;
paths = (
{
closed = 1;
nodes = (
"100 0 LINE",
"164 0 LINE",
"164 700 LINE",
"100 700 LINE"
);
},
{
closed = 1;
nodes = (
"164 642 LINE",
"503 642 LINE",
"503 700 LINE",
"164 700 LINE"
);
},
{
closed = 1;
nodes = (
"164 0 LINE",
"503 0 LINE",
"503 58 LINE",
"164 58 LINE"
);
},
{
closed = 1;
nodes = (
"164 332 LINE",
"479 332 LINE",
"479 390 LINE",
"164 390 LINE"
);
}
);
width = 553;
},
{
layerId = "747A0BA5-337F-45E8-9896-B2CAF0968805";
paths = (
{
closed = 1;
nodes = (
"70 0 LINE",
"250 0 LINE",
"250 700 LINE",
"70 700 LINE"
);
},
{
closed = 1;
nodes = (
"210 530 LINE",
"549 530 LINE",
"549 700 LINE",
"210 700 LINE"
);
},
{
closed = 1;
nodes = (
"210 0 LINE",
"556 0 LINE",
"556 170 LINE",
"210 170 LINE"
);
},
{
closed = 1;
nodes = (
"210 265 LINE",
"495 265 LINE",
"495 435 LINE",
"210 435 LINE"
);
}
);
width = 606;
}
);
leftMetricsKey = I;
unicode = 0045;
},
{
glyphname = F;
lastChange = "2021-05-15 04:30:47 +0000";
layers = (
{
layerId = m01;
paths = (
{
closed = 1;
nodes = (
"100 0 LINE",
"164 0 LINE",
"164 700 LINE",
"100 700 LINE"
);
},
{
closed = 1;
nodes = (
"164 642 LINE",
"503 642 LINE",
"503 700 LINE",
"164 700 LINE"
);
},
{
closed = 1;
nodes = (
"164 317 LINE",
"469 317 LINE",
"469 375 LINE",
"164 375 LINE"
);
}
);
width = 539;
},
{
layerId = "747A0BA5-337F-45E8-9896-B2CAF0968805";
paths = (
{
closed = 1;
nodes = (
"70 0 LINE",
"250 0 LINE",
"250 700 LINE",
"70 700 LINE"
);
},
{
closed = 1;
nodes = (
"210 530 LINE",
"549 530 LINE",
"549 700 LINE",
"210 700 LINE"
);
},
{
closed = 1;
nodes = (
"210 258 LINE",
"485 258 LINE",
"485 428 LINE",
"210 428 LINE"
);
}
);
width = 574;
}
);
leftMetricsKey = I;
unicode = 0046;
},
{
glyphname = G;
lastChange = "2021-06-25 18:48:52 +0000";
layers = (
{
layerId = m01;
paths = (
{
closed = 1;
nodes = (
"50 137 OFFCURVE",
"200 -13 OFFCURVE",
"413 -13 CURVE SMOOTH",
"597 -13 OFFCURVE",
"727 113 OFFCURVE",
"727 290 CURVE",
"665 290 LINE",
"665 146 OFFCURVE",
"559 45 OFFCURVE",
"413 45 CURVE SMOOTH",
"238 45 OFFCURVE",
"114 171 OFFCURVE",
"114 349 CURVE SMOOTH",
"114 527 OFFCURVE",
"238 653 OFFCURVE",
"413 653 CURVE SMOOTH",
"501 653 OFFCURVE",
"595 604 OFFCURVE",
"639 534 CURVE",
"688 571 LINE",
"633 653 OFFCURVE",
"519 711 OFFCURVE",
"413 711 CURVE SMOOTH",
"200 711 OFFCURVE",
"50 561 OFFCURVE",
"50 349 CURVE SMOOTH"
);
},
{
closed = 1;
nodes = (
"489 290 LINE",
"646 290 LINE",
"727 290 LINE",
"727 349 LINE",
"489 349 LINE"
);
}
);
width = 767;
},
{
layerId = "747A0BA5-337F-45E8-9896-B2CAF0968805";
paths = (
{
closed = 1;
nodes = (
"30 137 OFFCURVE",
"180 -13 OFFCURVE",
"393 -13 CURVE SMOOTH",
"577 -13 OFFCURVE",
"707 119 OFFCURVE",
"707 305 CURVE",
"540 272 LINE",
"540 207 OFFCURVE",
"467 162 OFFCURVE",
"408 162 CURVE SMOOTH",
"298 162 OFFCURVE",
"220 239 OFFCURVE",
"220 349 CURVE SMOOTH",
"220 456 OFFCURVE",
"292 531 OFFCURVE",
"393 531 CURVE SMOOTH",
"445 531 OFFCURVE",
"499 503 OFFCURVE",
"524 463 CURVE",
"668 571 LINE",
"613 653 OFFCURVE",
"499 711 OFFCURVE",
"393 711 CURVE SMOOTH",
"180 711 OFFCURVE",
"30 561 OFFCURVE",
"30 349 CURVE SMOOTH"
);
},
{
closed = 1;
nodes = (
"380 258 LINE",
"607 258 LINE",
"707 285 LINE",
"707 390 LINE",
"380 390 LINE"
);
}
);
width = 727;
}
);
leftMetricsKey = O;
rightMetricsKey = "=O-10";
unicode = 0047;
},
{
glyphname = H;
lastChange = "2021-05-16 05:34:27 +0000";
layers = (
{
layerId = m01;
paths = (
{
closed = 1;
nodes = (
"100 0 LINE",
"164 0 LINE",
"164 700 LINE",
"100 700 LINE"
);
},
{
closed = 1;
nodes = (
"588 0 LINE",
"652 0 LINE",
"652 700 LINE",
"588 700 LINE"
);
},
{
closed = 1;
nodes = (
"164 332 LINE",
"588 332 LINE",
"588 390 LINE",
"164 390 LINE"
);
}
);
width = 752;
},
{
layerId = "747A0BA5-337F-45E8-9896-B2CAF0968805";
paths = (
{
closed = 1;
nodes = (
"70 0 LINE",
"260 -1 LINE",
"260 699 LINE",
"70 700 LINE"
);
},
{
closed = 1;
nodes = (
"508 0 LINE",
"698 0 LINE",
"698 700 LINE",
"508 700 LINE"
);
},
{
closed = 1;
nodes = (
"197 276 LINE",
"621 276 LINE",
"621 446 LINE",
"197 446 LINE"
);
}
);
width = 768;
}
);
leftMetricsKey = I;
rightMetricsKey = I;
unicode = 0048;
},
{
glyphname = I;
lastChange = "2021-06-27 07:01:33 +0000";
layers = (
{
layerId = m01;
paths = (
{
closed = 1;
nodes = (
"100 0 LINE",
"164 0 LINE",
"164 700 LINE",
"100 700 LINE"
);
}
);
width = 264;
},
{
layerId = "747A0BA5-337F-45E8-9896-B2CAF0968805";
paths = (
{
closed = 1;
nodes = (
"70 0 LINE",
"260 0 LINE",
"260 700 LINE",
"70 700 LINE"
);
}
);
width = 330;
}
);
unicode = 0049;
},
{
glyphname = J;
lastChange = "2021-06-28 03:59:11 +0000";
layers = (
{
layerId = m01;
paths = (
{
closed = 1;
nodes = (
"410 700 LINE",
"346 700 LINE",
"346 242 LINE SMOOTH",
"346 97 OFFCURVE",
"260 47 OFFCURVE",
"184 47 CURVE SMOOTH",
"123 47 OFFCURVE",
"80 83 OFFCURVE",
"51 130 CURVE",
"6 95 LINE",
"42 33 OFFCURVE",
"101 -11 OFFCURVE",
"184 -11 CURVE SMOOTH",
"291 -11 OFFCURVE",
"410 61 OFFCURVE",
"410 212 CURVE"
);
}
);
width = 500;
},
{
layerId = "747A0BA5-337F-45E8-9896-B2CAF0968805";
paths = (
{
closed = 1;
nodes = (
"537 700 LINE",
"347 700 LINE",
"347 255 LINE SMOOTH",
"347 189 OFFCURVE",
"313 159 OFFCURVE",
"265 159 CURVE SMOOTH",
"209 159 OFFCURVE",
"190 200 OFFCURVE",
"171 230 CURVE",
"22 141 LINE",
"61 50 OFFCURVE",
"153 -16 OFFCURVE",
"263 -16 CURVE SMOOTH",
"434 -16 OFFCURVE",
"537 77 OFFCURVE",
"537 209 CURVE"
);
}
);
width = 597;
}
);
rightMetricsKey = "=I-10";
unicode = 004A;
},
{
glyphname = K;
lastChange = "2021-05-15 04:35:12 +0000";
layers = (
{
layerId = m01;
paths = (
{
closed = 1;
nodes = (
"160 0 LINE",
"160 700 LINE",
"100 700 LINE",
"100 0 LINE"
);
},
{
closed = 1;
nodes = (
"149 264 LINE",
"569 700 LINE",
"491 700 LINE",
"108 305 LINE"
);
},
{
closed = 1;
nodes = (
"215 356 LINE",
"506 0 LINE",
"583 0 LINE",
"254 399 LINE"
);
}
);
width = 588;
},
{
layerId = "747A0BA5-337F-45E8-9896-B2CAF0968805";
paths = (
{
closed = 1;
nodes = (
"260 0 LINE",
"260 700 LINE",
"70 700 LINE",
"70 0 LINE"
);
},
{
closed = 1;
nodes = (
"169 119 LINE",
"709 700 LINE",
"461 700 LINE",
"169 378 LINE"
);
},
{
closed = 1;
nodes = (
"210 356 LINE",
"481 0 LINE",
"718 0 LINE",
"356 464 LINE"
);
}
);
width = 728;
}
);
leftMetricsKey = "=I";
unicode = 004B;
},
{
glyphname = L;
lastChange = "2021-05-12 04:54:54 +0000";
layers = (
{
layerId = m01;
paths = (
{
closed = 1;
nodes = (
"100 0 LINE",
"164 0 LINE",
"164 700 LINE",
"100 700 LINE"
);
},
{
closed = 1;
nodes = (
"164 0 LINE",
"503 0 LINE",
"503 58 LINE",
"164 58 LINE"
);
}
);
width = 513;
},
{
layerId = "747A0BA5-337F-45E8-9896-B2CAF0968805";
paths = (
{
closed = 1;
nodes = (
"70 0 LINE",
"260 0 LINE",
"260 700 LINE",
"70 700 LINE"
);
},
{
closed = 1;
nodes = (
"184 0 LINE",
"523 0 LINE",
"523 170 LINE",
"184 170 LINE"
);
}
);
width = 543;
}
);
leftMetricsKey = I;
unicode = 004C;
},
{
glyphname = M;
lastChange = "2021-05-29 15:49:10 +0000";
layers = (
{
layerId = m01;
paths = (
{
closed = 1;
nodes = (
"164 700 LINE",
"100 700 LINE",
"100 0 LINE",
"164 0 LINE"
);
},
{
closed = 1;
nodes = (
"164 700 LINE",
"116 663 LINE",
"420 211 LINE",
"451 275 LINE"
);
},
{
closed = 1;
nodes = (
"420 211 LINE",
"723 663 LINE",
"675 700 LINE",
"389 275 LINE"
);
},
{
closed = 1;
nodes = (
"739 0 LINE",
"739 700 LINE",
"675 700 LINE",
"675 0 LINE"
);
}
);
width = 839;
},
{
background = {
paths = (
{
closed = 1;
nodes = (
"260 700 LINE",
"212 663 LINE",
"516 211 LINE",
"547 275 LINE"
);
}
);
};
layerId = "747A0BA5-337F-45E8-9896-B2CAF0968805";
paths = (
{
closed = 1;
nodes = (
"260 700 LINE",
"70 700 LINE",
"70 0 LINE",
"260 0 LINE"
);
},
{
closed = 1;
nodes = (
"280 700 LINE",
"70 700 LINE",
"444 156 LINE",
"544 309 LINE"
);
},
{
closed = 1;
nodes = (
"444 156 LINE",
"818 700 LINE",
"608 700 LINE",
"344 309 LINE"
);
},
{
closed = 1;
nodes = (
"818 0 LINE",
"818 700 LINE",
"628 700 LINE",
"628 0 LINE"
);
}
);
width = 888;
}
);
leftMetricsKey = I;
rightMetricsKey = I;
unicode = 004D;
},
{
glyphname = N;
lastChange = "2021-06-25 18:46:13 +0000";
layers = (
{
layerId = m01;
paths = (
{
closed = 1;
nodes = (
"164 655 LINE",
"164 700 LINE",
"100 700 LINE",
"100 0 LINE",
"164 0 LINE"
);
},
{
closed = 1;
nodes = (
"674 0 LINE",
"674 700 LINE",
"610 700 LINE",
"610 0 LINE"
);
},
{
closed = 1;
nodes = (
"659 37 LINE",
"164 700 LINE",
"115 664 LINE",
"610 0 LINE"
);
}
);
width = 774;
},
{
layerId = "747A0BA5-337F-45E8-9896-B2CAF0968805";
paths = (
{
closed = 1;
nodes = (
"260 529 LINE",
"265 700 LINE",
"70 700 LINE",
"70 0 LINE",
"260 -1 LINE"
);
},
{
closed = 1;
nodes = (
"698 0 LINE",
"698 700 LINE",
"508 700 LINE",
"508 0 LINE"
);
},
{
closed = 1;
nodes = (
"657 96 LINE",
"265 700 LINE",
"112 608 LINE",
"508 0 LINE"
);
}
);
width = 768;
}
);
leftMetricsKey = I;
rightMetricsKey = I;
unicode = 004E;
},
{
glyphname = O;
lastChange = "2021-06-27 22:40:03 +0000";
layers = (
{
layerId = m01;
paths = (
{
closed = 1;
nodes = (
"584 -16 OFFCURVE",
"722 135 OFFCURVE",
"722 350 CURVE SMOOTH",
"722 564 OFFCURVE",
"584 716 OFFCURVE",
"386 716 CURVE SMOOTH",
"188 716 OFFCURVE",
"50 565 OFFCURVE",
"50 350 CURVE SMOOTH",
"50 135 OFFCURVE",
"191 -16 OFFCURVE",
"389 -16 CURVE SMOOTH"
);
},
{
closed = 1;
nodes = (
"228 42 OFFCURVE",
"114 170 OFFCURVE",
"114 350 CURVE SMOOTH",
"114 530 OFFCURVE",
"227 658 OFFCURVE",
"386 658 CURVE SMOOTH",
"545 658 OFFCURVE",
"658 530 OFFCURVE",
"658 350 CURVE SMOOTH",
"658 170 OFFCURVE",
"547 42 OFFCURVE",
"389 42 CURVE SMOOTH"
);
}
);
width = 772;
},
{
layerId = "747A0BA5-337F-45E8-9896-B2CAF0968805";
paths = (
{
closed = 1;
nodes = (
"591 -16 OFFCURVE",
"737 135 OFFCURVE",
"737 349 CURVE SMOOTH",
"737 563 OFFCURVE",
"590 715 OFFCURVE",
"383 715 CURVE SMOOTH",
"176 715 OFFCURVE",
"30 563 OFFCURVE",
"30 349 CURVE SMOOTH",
"30 135 OFFCURVE",
"177 -16 OFFCURVE",
"385 -16 CURVE SMOOTH"
);
},
{
closed = 1;
nodes = (
"288 164 OFFCURVE",
"220 241 OFFCURVE",
"220 349 CURVE SMOOTH",
"220 458 OFFCURVE",
"288 535 OFFCURVE",
"383 535 CURVE SMOOTH",
"479 535 OFFCURVE",
"547 458 OFFCURVE",
"547 349 CURVE SMOOTH",
"547 241 OFFCURVE",
"480 164 OFFCURVE",
"385 164 CURVE SMOOTH"
);
}
);
width = 767;
}
);
unicode = 004F;
},
{
glyphname = P;
lastChange = "2021-05-30 14:28:56 +0000";
layers = (
{
layerId = m01;
paths = (
{
closed = 1;
nodes = (
"164 0 LINE",
"164 700 LINE",
"100 700 LINE",
"100 0 LINE"
);
},
{
closed = 1;
nodes = (
"164 325 LINE",
"164 266 LINE",
"342 266 LINE",
"458 266 OFFCURVE",
"540 356 OFFCURVE",
"540 483 CURVE",
"540 611 OFFCURVE",
"447 701 OFFCURVE",
"315 701 CURVE",
"164 700 LINE",
"164 642 LINE",
"315 642 LINE",
"410 643 OFFCURVE",
"477 577 OFFCURVE",
"477 483 CURVE",
"477 390 OFFCURVE",
"421 325 OFFCURVE",
"342 325 CURVE",
"164 325 LINE",
"164 266 LINE"
);
}
);
width = 570;
},
{
layerId = "747A0BA5-337F-45E8-9896-B2CAF0968805";
paths = (
{
closed = 1;
nodes = (
"250 0 LINE",
"250 700 LINE",
"70 700 LINE",
"70 0 LINE"
);
},
{
closed = 1;
nodes = (
"224 325 LINE",
"224 211 LINE",
"355 211 LINE",
"499 211 OFFCURVE",
"600 312 OFFCURVE",
"600 456 CURVE",
"600 600 OFFCURVE",
"499 701 OFFCURVE",
"355 701 CURVE",
"224 700 LINE",
"224 531 LINE",
"345 531 LINE",
"395 531 OFFCURVE",
"430 500 OFFCURVE",
"430 456 CURVE",
"430 411 OFFCURVE",
"395 380 OFFCURVE",
"345 380 CURVE",
"224 380 LINE",
"224 211 LINE"
);
}
);
width = 610;
}
);
leftMetricsKey = I;
rightMetricsKey = "=O-20";
unicode = 0050;
},
{
glyphname = Q;
lastChange = "2021-05-30 14:45:39 +0000";
layers = (
{
layerId = m01;
paths = (
{
closed = 1;
nodes = (
"584 -16 OFFCURVE",
"722 135 OFFCURVE",
"722 350 CURVE SMOOTH",
"722 564 OFFCURVE",
"584 716 OFFCURVE",
"386 716 CURVE SMOOTH",
"188 716 OFFCURVE",
"50 565 OFFCURVE",
"50 350 CURVE SMOOTH",
"50 135 OFFCURVE",
"191 -16 OFFCURVE",
"389 -16 CURVE SMOOTH"
);
},
{
closed = 1;
nodes = (
"228 42 OFFCURVE",
"114 170 OFFCURVE",
"114 350 CURVE SMOOTH",
"114 530 OFFCURVE",
"227 658 OFFCURVE",
"386 658 CURVE SMOOTH",
"545 658 OFFCURVE",
"658 530 OFFCURVE",
"658 350 CURVE SMOOTH",
"658 170 OFFCURVE",
"547 42 OFFCURVE",
"389 42 CURVE SMOOTH"
);
},
{
closed = 1;
nodes = (
"437 211 LINE",
"684 -38 LINE",
"726 5 LINE",
"481 253 LINE"
);
},
{
closed = 0;
nodes = (
"538 280 LINE"
);
}
);
width = 776;
},
{
layerId = "747A0BA5-337F-45E8-9896-B2CAF0968805";
paths = (
{
closed = 1;
nodes = (
"607 -16 OFFCURVE",
"757 135 OFFCURVE",
"757 349 CURVE SMOOTH",
"757 563 OFFCURVE",
"606 715 OFFCURVE",
"393 715 CURVE SMOOTH",
"180 715 OFFCURVE",
"30 563 OFFCURVE",
"30 349 CURVE SMOOTH",
"30 135 OFFCURVE",
"181 -16 OFFCURVE",
"395 -16 CURVE SMOOTH"
);
},
{
closed = 1;
nodes = (
"292 164 OFFCURVE",
"220 241 OFFCURVE",
"220 349 CURVE SMOOTH",
"220 458 OFFCURVE",
"292 535 OFFCURVE",
"393 535 CURVE SMOOTH",
"495 535 OFFCURVE",
"567 458 OFFCURVE",
"567 349 CURVE SMOOTH",
"567 241 OFFCURVE",
"496 164 OFFCURVE",
"395 164 CURVE SMOOTH"
);
},
{
closed = 1;
nodes = (
"373 217 LINE",
"645 -59 LINE",
"760 53 LINE",
"490 328 LINE"
);
},
{
closed = 0;
nodes = (
"546 280 LINE"
);
}
);
width = 790;
}
);
leftMetricsKey = O;
rightMetricsKey = O;
unicode = 0051;
},
{
glyphname = R;
lastChange = "2021-06-25 18:30:09 +0000";
layers = (
{
layerId = m01;
paths = (
{
closed = 1;
nodes = (
"302 286 LINE SMOOTH",
"436 286 OFFCURVE",
"540 372 OFFCURVE",
"540 493 CURVE SMOOTH",
"540 615 OFFCURVE",
"447 701 OFFCURVE",
"315 701 CURVE SMOOTH",
"164 700 LINE",
"164 642 LINE",
"315 642 LINE SMOOTH",
"410 643 OFFCURVE",
"477 581 OFFCURVE",
"477 493 CURVE SMOOTH",
"477 406 OFFCURVE",
"411 345 OFFCURVE",
"332 345 CURVE SMOOTH",
"164 345 LINE",
"164 286 LINE"
);
},
{
closed = 1;
nodes = (
"164 0 LINE",
"164 700 LINE",
"100 700 LINE",
"100 0 LINE"
);
},
{
closed = 1;
nodes = (
"568 0 LINE",
"381 321 LINE",
"328 290 LINE",
"498 0 LINE"
);
}
);
width = 618;
},
{
layerId = "747A0BA5-337F-45E8-9896-B2CAF0968805";
paths = (
{
closed = 1;
nodes = (
"355 231 LINE SMOOTH",
"499 231 OFFCURVE",
"600 328 OFFCURVE",
"600 466 CURVE SMOOTH",
"600 604 OFFCURVE",
"499 702 OFFCURVE",
"355 701 CURVE SMOOTH",
"224 700 LINE",
"224 539 LINE",
"345 539 LINE SMOOTH",
"395 539 OFFCURVE",
"427 510 OFFCURVE",
"427 470 CURVE SMOOTH",
"427 430 OFFCURVE",
"395 400 OFFCURVE",
"345 400 CURVE SMOOTH",
"224 400 LINE",
"224 231 LINE"
);
},
{
closed = 1;
nodes = (
"250 0 LINE",
"250 700 LINE",
"70 700 LINE",
"70 0 LINE"
);
},
{
closed = 1;
nodes = (
"673 0 LINE",
"425 379 LINE",
"295 275 LINE",
"461 0 LINE"
);
}
);
width = 678;
}
);
leftMetricsKey = I;
unicode = 0052;
},
{
glyphname = S;
lastChange = "2021-06-28 04:42:43 +0000";
layers = (
{
anchors = (
{
name = bottom;
position = "{305, 0}";
},
{
name = top;
position = "{305, 700}";
}
);
layerId = m01;
paths = (
{
closed = 1;
nodes = (
"112 28 OFFCURVE",
"196 -16 OFFCURVE",
"316 -16 CURVE SMOOTH",
"494 -16 OFFCURVE",
"562 80 OFFCURVE",
"562 184 CURVE SMOOTH",
"562 270 OFFCURVE",
"479 362 OFFCURVE",
"340 383 CURVE SMOOTH",
"209 403 OFFCURVE",
"137 443 OFFCURVE",
"137 521 CURVE SMOOTH",
"137 597 OFFCURVE",
"206 660 OFFCURVE",
"307 660 CURVE SMOOTH",
"380 660 OFFCURVE",
"470 627 OFFCURVE",
"505 574 CURVE",
"554 607 LINE",
"501 683 OFFCURVE",
"416 716 OFFCURVE",
"317 716 CURVE SMOOTH",
"168 716 OFFCURVE",
"73 641 OFFCURVE",
"73 513 CURVE SMOOTH",
"73 395 OFFCURVE",
"161 350 OFFCURVE",
"314 322 CURVE SMOOTH",
"452 297 OFFCURVE",
"496 233 OFFCURVE",
"496 175 CURVE SMOOTH",
"496 100 OFFCURVE",
"423 42 OFFCURVE",
"301 42 CURVE SMOOTH",
"198 42 OFFCURVE",
"150 82 OFFCURVE",
"104 137 CURVE",
"57 100 LINE"
);
}
);
width = 619;
},
{
anchors = (
{
name = bottom;
position = "{307, 0}";
},
{
name = top;
position = "{307, 700}";
}
);
layerId = "747A0BA5-337F-45E8-9896-B2CAF0968805";
paths = (
{
closed = 1;
nodes = (
"67 40 OFFCURVE",
"186 -17 OFFCURVE",
"307 -17 CURVE SMOOTH",
"484 -17 OFFCURVE",
"588 70 OFFCURVE",
"588 216 CURVE SMOOTH",
"588 313 OFFCURVE",
"533 383 OFFCURVE",
"406 414 CURVE SMOOTH",
"321 435 OFFCURVE",
"248 435 OFFCURVE",
"248 494 CURVE SMOOTH",
"248 524 OFFCURVE",
"270 550 OFFCURVE",
"316 550 CURVE SMOOTH",
"373 550 OFFCURVE",
"415 525 OFFCURVE",
"438 499 CURVE",
"589 599 LINE",
"528 673 OFFCURVE",
"429 717 OFFCURVE",
"323 717 CURVE SMOOTH",
"148 717 OFFCURVE",
"45 641 OFFCURVE",
"45 509 CURVE SMOOTH",
"45 389 OFFCURVE",
"116 308 OFFCURVE",
"270 280 CURVE SMOOTH",
"336 267 OFFCURVE",
"391 252 OFFCURVE",
"391 205 CURVE SMOOTH",
"391 172 OFFCURVE",
"366 153 OFFCURVE",
"312 153 CURVE SMOOTH",
"243 153 OFFCURVE",
"189 189 OFFCURVE",
"170 233 CURVE",
"15 135 LINE"
);
}
);
width = 614;
}
);
unicode = 0053;
},
{
glyphname = T;
lastChange = "2021-06-02 07:19:31 +0000";
layers = (
{
layerId = m01;
paths = (
{
closed = 1;
nodes = (
"210 0 LINE",
"274 0 LINE",
"274 642 LINE",
"210 642 LINE"
);
},
{
closed = 1;
nodes = (
"10 642 LINE",
"510 642 LINE",
"510 700 LINE",
"10 700 LINE"
);
}
);
width = 520;
},
{
layerId = "747A0BA5-337F-45E8-9896-B2CAF0968805";
paths = (
{
closed = 1;
nodes = (
"225 0 LINE",
"415 0 LINE",
"415 642 LINE",
"225 642 LINE"
);
},
{
closed = 1;
nodes = (
"20 530 LINE",
"620 530 LINE",
"620 700 LINE",
"20 700 LINE"
);
}
);
width = 640;
}
);
unicode = 0054;
},
{
glyphname = U;
lastChange = "2021-05-12 04:54:44 +0000";
layers = (
{
layerId = m01;
paths = (
{
closed = 1;
nodes = (
"134 245 LINE",
"134 700 LINE",
"70 700 LINE",
"70 245 LINE"
);
},
{
closed = 1;
nodes = (
"599 245 LINE",
"599 700 LINE",
"535 700 LINE",
"535 245 LINE"
);
},
{
closed = 1;
nodes = (
"535 126 OFFCURVE",
"452 42 OFFCURVE",
"334 42 CURVE SMOOTH",
"217 42 OFFCURVE",
"134 126 OFFCURVE",
"134 245 CURVE",
"70 245 LINE",
"70 92 OFFCURVE",
"179 -16 OFFCURVE",
"332 -16 CURVE SMOOTH",
"488 -16 OFFCURVE",
"599 92 OFFCURVE",
"599 245 CURVE",
"535 245 LINE"
);
}
);
width = 669;
},
{
background = {
paths = (
{
closed = 1;
nodes = (
"620 700 LINE",
"430 700 LINE",
"430 258 LINE SMOOTH",
"430 205 OFFCURVE",
"395 167 OFFCURVE",
"346 167 CURVE SMOOTH",
"313 167 OFFCURVE",
"283 189 OFFCURVE",
"270 220 CURVE",
"93 120 LINE",
"133 40 OFFCURVE",
"238 -13 OFFCURVE",
"346 -13 CURVE SMOOTH",
"506 -13 OFFCURVE",
"620 80 OFFCURVE",
"620 212 CURVE"
);
}
);
};
layerId = "747A0BA5-337F-45E8-9896-B2CAF0968805";
paths = (
{
closed = 1;
nodes = (
"230 265 LINE",
"230 700 LINE",
"40 700 LINE",
"40 265 LINE"
);
},
{
closed = 1;
nodes = (
"620 265 LINE",
"620 700 LINE",
"430 700 LINE",
"430 265 LINE"
);
},
{
closed = 1;
nodes = (
"430 195 OFFCURVE",
"393 154 OFFCURVE",
"330 154 CURVE SMOOTH",
"267 154 OFFCURVE",
"230 195 OFFCURVE",
"230 265 CURVE",
"40 265 LINE",
"40 88 OFFCURVE",
"147 -16 OFFCURVE",
"328 -16 CURVE SMOOTH",
"512 -16 OFFCURVE",
"620 88 OFFCURVE",
"620 265 CURVE",
"430 265 LINE"
);
}
);
width = 660;
}
);
leftMetricsKey = "=I-30";
rightMetricsKey = "=I-30";
unicode = 0055;
},
{
glyphname = V;
lastChange = "2021-06-02 07:17:30 +0000";
layers = (
{
layerId = m01;
paths = (
{
closed = 1;
nodes = (
"304 0 LINE",
"369 0 LINE",
"76 700 LINE",
"10 700 LINE"
);
},
{
closed = 1;
nodes = (
"604 700 LINE",
"310 0 LINE",
"376 0 LINE",
"671 700 LINE"
);
}
);
width = 681;
},
{
layerId = "747A0BA5-337F-45E8-9896-B2CAF0968805";
paths = (
{
closed = 1;
nodes = (
"254 0 LINE",
"439 0 LINE",
"201 700 LINE",
"5 700 LINE"
);
},
{
closed = 1;
nodes = (
"513 700 LINE",
"277 0 LINE",
"462 0 LINE",
"709 700 LINE"
);
}
);
width = 714;
}
);
leftMetricsKey = A;
rightMetricsKey = A;
unicode = 0056;
},
{
glyphname = W;
lastChange = "2021-06-27 22:41:36 +0000";
layers = (
{
layerId = m01;
paths = (
{
closed = 1;
nodes = (
"291 0 LINE",
"74 700 LINE",
"10 700 LINE",
"226 0 LINE"
);
},
{
closed = 1;
nodes = (
"296 0 LINE",
"507 700 LINE",
"443 700 LINE",
"231 0 LINE"
);
},
{
closed = 1;
nodes = (
"714 0 LINE",
"507 700 LINE",
"443 700 LINE",
"649 0 LINE"
);
},
{
closed = 1;
nodes = (
"719 0 LINE",
"940 700 LINE",
"876 700 LINE",
"654 0 LINE"
);
}
);
width = 950;
},
{
layerId = "747A0BA5-337F-45E8-9896-B2CAF0968805";
paths = (
{
closed = 1;
nodes = (
"376 0 LINE",
"189 700 LINE",
"5 700 LINE",
"201 0 LINE"
);
},
{
closed = 1;
nodes = (
"396 0 LINE",
"572 700 LINE",
"408 700 LINE",
"231 0 LINE"
);
},
{
closed = 1;
nodes = (
"779 0 LINE",
"592 700 LINE",
"428 700 LINE",
"604 0 LINE"
);
},
{
closed = 1;
nodes = (
"799 0 LINE",
"995 700 LINE",
"811 700 LINE",
"624 0 LINE"
);
}
);
width = 1000;
}
);
leftMetricsKey = A;
rightMetricsKey = A;
unicode = 0057;
},
{
glyphname = X;
lastChange = "2021-05-30 14:34:27 +0000";
layers = (
{
layerId = m01;
paths = (
{
closed = 1;
nodes = (
"503 700 LINE",
"280 385 LINE",
"10 0 LINE",
"88 0 LINE",
"313 330 LINE",
"579 700 LINE"
);
},
{
closed = 1;
nodes = (
"276 330 LINE",
"501 0 LINE",
"579 0 LINE",
"309 385 LINE",
"86 700 LINE",
"10 700 LINE"
);
}
);
width = 589;
},
{
layerId = "747A0BA5-337F-45E8-9896-B2CAF0968805";
paths = (
{
closed = 1;
nodes = (
"503 700 LINE",
"285 385 LINE",
"10 0 LINE",
"238 0 LINE",
"458 330 LINE",
"729 700 LINE"
);
},
{
closed = 1;
nodes = (
"281 330 LINE",
"501 0 LINE",
"729 0 LINE",
"454 385 LINE",
"236 700 LINE",
"10 700 LINE"
);
}
);
width = 739;
}
);
unicode = 0058;
},
{
glyphname = Y;
lastChange = "2021-06-02 19:08:45 +0000";
layers = (
{
layerId = m01;
paths = (
{
closed = 1;
nodes = (
"262 0 LINE",
"326 0 LINE",
"326 336 LINE",
"262 336 LINE"
);
},
{
closed = 1;
nodes = (
"262 292 LINE",
"313 328 LINE",
"85 700 LINE",
"10 700 LINE"
);
},
{
closed = 1;
nodes = (
"503 700 LINE",
"275 328 LINE",
"326 292 LINE",
"578 700 LINE"
);
}
);
width = 588;
},
{
layerId = "747A0BA5-337F-45E8-9896-B2CAF0968805";
paths = (
{
closed = 1;
nodes = (
"253 0 LINE",
"443 0 LINE",
"443 336 LINE",
"253 336 LINE"
);
},
{
closed = 1;
nodes = (
"262 292 LINE",
"443 328 LINE",
"215 700 LINE",
"10 700 LINE"
);
},
{
closed = 1;
nodes = (
"481 700 LINE",
"253 328 LINE",
"434 292 LINE",
"686 700 LINE"
);
}
);
width = 696;
}
);
unicode = 0059;
},
{
glyphname = Z;
lastChange = "2021-05-30 14:33:27 +0000";
layers = (
{
layerId = m01;
paths = (
{
closed = 1;
nodes = (
"594 642 LINE",
"594 700 LINE",
"53 700 LINE",
"53 642 LINE"
);
},
{
closed = 1;
nodes = (
"591 0 LINE",
"591 58 LINE",
"50 58 LINE",
"50 0 LINE"
);
},
{
closed = 1;
nodes = (
"50 58 LINE",
"103 25 LINE",
"594 642 LINE",
"541 674 LINE"
);
}
);
width = 644;
},
{
layerId = "747A0BA5-337F-45E8-9896-B2CAF0968805";
paths = (
{
closed = 1;
nodes = (
"584 520 LINE",
"584 700 LINE",
"43 700 LINE",
"43 520 LINE"
);
},
{
closed = 1;
nodes = (
"581 0 LINE",
"581 180 LINE",
"40 180 LINE",
"40 0 LINE"
);
},
{
closed = 1;
nodes = (
"40 180 LINE",
"287 180 LINE",
"584 520 LINE",
"337 520 LINE"
);
}
);
width = 624;
}
);
unicode = 005A;
},
{
glyphname = a;
lastChange = "2021-06-27 06:30:39 +0000";
layers = (
{
guideLines = (
{
position = "{250, 252}";
},
{
position = "{242, 307}";
}
);
layerId = m01;
paths = (
{
closed = 1;
nodes = (
"451 0 LINE",
"451 272 LINE SMOOTH",
"451 436 OFFCURVE",
"384 516 OFFCURVE",
"246 516 CURVE",
"176 516 OFFCURVE",
"117 489 OFFCURVE",
"68 434 CURVE",
"103 395 LINE",
"147 439 OFFCURVE",
"194 461 OFFCURVE",
"246 461 CURVE SMOOTH",
"338 461 OFFCURVE",
"386 399 OFFCURVE",
"391 272 CURVE SMOOTH",
"401 0 LINE"
);
},
{
closed = 1;
nodes = (
"371 -16 OFFCURVE",
"447 75 OFFCURVE",
"447 214 CURVE",
"392 214 LINE",
"392 110 OFFCURVE",
"335 39 OFFCURVE",
"238 39 CURVE SMOOTH",
"154 39 OFFCURVE",
"105 77 OFFCURVE",
"105 141 CURVE",
"105 211 OFFCURVE",
"147 252 OFFCURVE",
"250 252 CURVE SMOOTH",
"430 252 LINE",
"430 307 LINE",
"242 307 LINE",
"118 307 OFFCURVE",
"45 245 OFFCURVE",
"45 141 CURVE SMOOTH",
"45 42 OFFCURVE",
"118 -16 OFFCURVE",
"242 -16 CURVE SMOOTH"
);
}
);
width = 511;
},
{
guideLines = (
{
angle = 180;
position = "{379, 294}";
}
);
layerId = "747A0BA5-337F-45E8-9896-B2CAF0968805";
paths = (
{
closed = 1;
nodes = (
"529 0 LINE",
"529 285 LINE SMOOTH",
"529 423 OFFCURVE",
"436 516 OFFCURVE",
"276 516 CURVE SMOOTH",
"187 516 OFFCURVE",
"90 481 OFFCURVE",
"43 426 CURVE",
"142 324 LINE",
"178 351 OFFCURVE",
"226 363 OFFCURVE",
"269 363 CURVE SMOOTH",
"351 363 OFFCURVE",
"360 316 OFFCURVE",
"360 249 CURVE SMOOTH",
"360 0 LINE"
);
},
{
closed = 1;
nodes = (
"345 -16 OFFCURVE",
"411 69 OFFCURVE",
"411 214 CURVE",
"360 191 LINE",
"360 136 OFFCURVE",
"335 104 OFFCURVE",
"293 104 CURVE SMOOTH",
"243 104 OFFCURVE",
"214 123 OFFCURVE",
"214 154 CURVE",
"214 189 OFFCURVE",
"246 209 OFFCURVE",
"301 209 CURVE",
"379 209 LINE",
"379 294 LINE",
"232 294 LINE",
"108 294 OFFCURVE",
"35 245 OFFCURVE",
"35 141 CURVE SMOOTH",
"35 42 OFFCURVE",
"108 -16 OFFCURVE",
"232 -16 CURVE SMOOTH"
);
}
);
width = 569;
},
{
associatedMasterId = m01;
layerId = "CB0AF63B-738D-442B-AE33-6FAC0C554570";
name = "21 Jun 21, 13:35";
paths = (
{
closed = 1;
nodes = (
"451 0 LINE",
"451 272 LINE SMOOTH",
"451 436 OFFCURVE",
"384 516 OFFCURVE",
"246 516 CURVE",
"176 516 OFFCURVE",
"117 489 OFFCURVE",
"68 434 CURVE",
"103 395 LINE",
"147 439 OFFCURVE",
"194 461 OFFCURVE",
"246 461 CURVE SMOOTH",
"338 461 OFFCURVE",
"386 399 OFFCURVE",
"391 272 CURVE SMOOTH",
"401 0 LINE"
);
},
{
closed = 1;
nodes = (
"371 -16 OFFCURVE",
"447 75 OFFCURVE",
"447 214 CURVE",
"392 214 LINE",
"392 110 OFFCURVE",
"335 39 OFFCURVE",
"238 39 CURVE SMOOTH",
"154 39 OFFCURVE",
"105 77 OFFCURVE",
"105 141 CURVE",
"105 211 OFFCURVE",
"159 252 OFFCURVE",
"250 252 CURVE SMOOTH",
"299 252 OFFCURVE",
"355 236 OFFCURVE",
"401 209 CURVE",
"415 264 LINE",
"376 291 OFFCURVE",
"312 307 OFFCURVE",
"242 307 CURVE SMOOTH",
"118 307 OFFCURVE",
"45 245 OFFCURVE",
"45 141 CURVE SMOOTH",
"45 42 OFFCURVE",
"118 -16 OFFCURVE",
"242 -16 CURVE SMOOTH"
);
}
);
width = 511;
},
{
associatedMasterId = "747A0BA5-337F-45E8-9896-B2CAF0968805";
layerId = "45C67C7D-FBF1-4189-85B2-8F8292167A26";
name = "21 Jun 21, 13:37";
paths = (
{
closed = 1;
nodes = (
"519 0 LINE",
"519 285 LINE SMOOTH",
"519 423 OFFCURVE",
"414 520 OFFCURVE",
"266 520 CURVE SMOOTH",
"177 520 OFFCURVE",
"80 481 OFFCURVE",
"33 426 CURVE",
"135 317 LINE",
"177 348 OFFCURVE",
"225 363 OFFCURVE",
"259 363 CURVE SMOOTH",
"319 363 OFFCURVE",
"350 316 OFFCURVE",
"350 249 CURVE SMOOTH",
"350 0 LINE"
);
},
{
closed = 1;
nodes = (
"335 -16 OFFCURVE",
"401 69 OFFCURVE",
"401 214 CURVE",
"350 191 LINE",
"350 136 OFFCURVE",
"325 104 OFFCURVE",
"283 104 CURVE SMOOTH",
"233 104 OFFCURVE",
"204 123 OFFCURVE",
"204 154 CURVE",
"204 189 OFFCURVE",
"236 209 OFFCURVE",
"291 209 CURVE SMOOTH",
"315 209 OFFCURVE",
"338 200 OFFCURVE",
"355 184 CURVE",
"378 254 LINE",
"340 287 OFFCURVE",
"282 307 OFFCURVE",
"222 307 CURVE SMOOTH",
"98 307 OFFCURVE",
"25 245 OFFCURVE",
"25 141 CURVE SMOOTH",
"25 42 OFFCURVE",
"98 -16 OFFCURVE",
"222 -16 CURVE SMOOTH"
);
}
);
width = 559;
},
{
associatedMasterId = m01;
guideLines = (
{
position = "{256, 252}";
},
{
position = "{248, 307}";
}
);
layerId = "02AAAEA1-AFBF-4DBF-9BCC-F2B650B51EF0";
name = "{700}";
paths = (
{
closed = 1;
nodes = (
"502 0 LINE",
"502 281 LINE SMOOTH",
"502 427 OFFCURVE",
"418 516 OFFCURVE",
"265 516 CURVE",
"183 516 OFFCURVE",
"98 484 OFFCURVE",
"51 429 CURVE",
"128 348 LINE",
"167 380 OFFCURVE",
"215 396 OFFCURVE",
"261 396 CURVE SMOOTH",
"346 396 OFFCURVE",
"368 344 OFFCURVE",
"370 257 CURVE SMOOTH",
"373 0 LINE"
);
},
{
closed = 1;
nodes = (
"353 -16 OFFCURVE",
"422 71 OFFCURVE",
"422 214 CURVE",
"370 199 LINE",
"370 128 OFFCURVE",
"325 84 OFFCURVE",
"251 84 CURVE SMOOTH",
"204 84 OFFCURVE",
"177 109 OFFCURVE",
"177 150 CURVE",
"177 184 OFFCURVE",
"212 204 OFFCURVE",
"283 204 CURVE SMOOTH",
"395 204 LINE",
"395 298 LINE",
"235 298 LINE",
"111 298 OFFCURVE",
"38 245 OFFCURVE",
"38 141 CURVE SMOOTH",
"38 42 OFFCURVE",
"111 -16 OFFCURVE",
"235 -16 CURVE SMOOTH"
);
}
);
width = 548;
}
);
leftKerningGroup = "round-left-lowercase";
leftMetricsKey = o;
rightKerningGroup = "round-right-lowercase";
rightMetricsKey = n;
unicode = 0061;
},
{
glyphname = b;
lastChange = "2021-06-25 18:08:45 +0000";
layers = (
{
components = (
{
name = Bowl;
transform = "{-1, 0, 0, 1, 582, 0}";
}
);
layerId = m01;
paths = (
{
closed = 1;
nodes = (
"135 93 LINE",
"135 700 LINE",
"75 700 LINE",
"75 0 LINE",
"132 0 LINE"
);
}
);
width = 582;
},
{
components = (
{
name = Bowl;
transform = "{-1, 0, 0, 1, 606, 0}";
}
);
layerId = "747A0BA5-337F-45E8-9896-B2CAF0968805";
paths = (
{
closed = 1;
nodes = (
"235 93 LINE",
"235 700 LINE",
"55 700 LINE",
"55 0 LINE",
"226 0 LINE"
);
}
);
width = 630;
}
);
leftMetricsKey = l;
rightKerningGroup = "round-right-lowercase";
rightMetricsKey = o;
unicode = 0062;
},
{
glyphname = c;
lastChange = "2021-06-28 04:03:10 +0000";
layers = (
{
background = {
paths = (
{
closed = 1;
nodes = (
"508 243 LINE",
"508 402 OFFCURVE",
"416 515 OFFCURVE",
"286 515 CURVE SMOOTH",
"145 515 OFFCURVE",
"45 405 OFFCURVE",
"45 250 CURVE SMOOTH",
"45 94 OFFCURVE",
"147 -16 OFFCURVE",
"291 -16 CURVE SMOOTH",
"378 -16 OFFCURVE",
"467 40 OFFCURVE",
"506 118 CURVE",
"453 145 LINE",
"422 83 OFFCURVE",
"355 39 OFFCURVE",
"291 39 CURVE SMOOTH",
"182 39 OFFCURVE",
"105 126 OFFCURVE",
"105 250 CURVE SMOOTH",
"105 373 OFFCURVE",
"180 460 OFFCURVE",
"286 460 CURVE SMOOTH",
"381 460 OFFCURVE",
"448 370 OFFCURVE",
"448 243 CURVE"
);
},
{
closed = 1;
nodes = (
"86 243 LINE",
"465 243 LINE",
"465 293 LINE",
"86 293 LINE"
);
}
);
};
layerId = m01;
paths = (
{
closed = 1;
nodes = (
"500 393 LINE",
"460 469 OFFCURVE",
"383 516 OFFCURVE",
"289 516 CURVE SMOOTH",
"146 516 OFFCURVE",
"45 406 OFFCURVE",
"45 250 CURVE SMOOTH",
"45 94 OFFCURVE",
"147 -16 OFFCURVE",
"291 -16 CURVE SMOOTH",
"387 -16 OFFCURVE",
"464 36 OFFCURVE",
"504 119 CURVE",
"451 147 LINE",
"421 80 OFFCURVE",
"363 39 OFFCURVE",
"291 39 CURVE SMOOTH",
"182 39 OFFCURVE",
"105 126 OFFCURVE",
"105 250 CURVE SMOOTH",
"105 374 OFFCURVE",
"181 461 OFFCURVE",
"289 461 CURVE SMOOTH",
"359 461 OFFCURVE",
"417 424 OFFCURVE",
"448 365 CURVE"
);
}
);
width = 534;
},
{
background = {
paths = (
{
closed = 1;
nodes = (
"472 -16 OFFCURVE",
"586 94 OFFCURVE",
"586 250 CURVE SMOOTH",
"586 406 OFFCURVE",
"472 516 OFFCURVE",
"310 516 CURVE SMOOTH",
"149 516 OFFCURVE",
"35 406 OFFCURVE",
"35 250 CURVE SMOOTH",
"35 94 OFFCURVE",
"150 -16 OFFCURVE",
"312 -16 CURVE SMOOTH"
);
},
{
closed = 1;
nodes = (
"255 154 OFFCURVE",
"215 194 OFFCURVE",
"215 250 CURVE SMOOTH",
"215 306 OFFCURVE",
"254 346 OFFCURVE",
"310 346 CURVE SMOOTH",
"366 346 OFFCURVE",
"406 306 OFFCURVE",
"406 250 CURVE SMOOTH",
"406 194 OFFCURVE",
"367 154 OFFCURVE",
"312 154 CURVE SMOOTH"
);
}
);
};
layerId = "747A0BA5-337F-45E8-9896-B2CAF0968805";
paths = (
{
closed = 1;
nodes = (
"559 352 LINE",
"522 452 OFFCURVE",
"430 516 OFFCURVE",
"310 516 CURVE SMOOTH",
"149 516 OFFCURVE",
"35 406 OFFCURVE",
"35 250 CURVE SMOOTH",
"35 94 OFFCURVE",
"150 -16 OFFCURVE",
"312 -16 CURVE SMOOTH",
"431 -16 OFFCURVE",
"523 49 OFFCURVE",
"560 149 CURVE",
"388 204 LINE",
"375 174 OFFCURVE",
"347 154 OFFCURVE",
"312 154 CURVE SMOOTH",
"255 154 OFFCURVE",
"215 194 OFFCURVE",
"215 250 CURVE SMOOTH",
"215 306 OFFCURVE",
"254 346 OFFCURVE",
"310 346 CURVE SMOOTH",
"345 346 OFFCURVE",
"374 327 OFFCURVE",
"387 296 CURVE"
);
}
);
width = 580;
}
);
leftKerningGroup = "round-left-lowercase";
leftMetricsKey = o;
rightKerningGroup = "round-right-lowercase";
rightMetricsKey = "=e-5";
unicode = 0063;
},
{
glyphname = d;
lastChange = "2021-06-25 18:08:34 +0000";
layers = (
{
components = (
{
name = Bowl;
}
);
layerId = m01;
paths = (
{
closed = 1;
nodes = (
"507 0 LINE",
"507 700 LINE",
"447 700 LINE",
"447 93 LINE",
"450 0 LINE"
);
}
);
width = 582;
},
{
background = {
components = (
{
name = arch;
transform = "{-1, 0, 0, 1, 436, 0}";
},
{
name = arch;
transform = "{-1, 0, 0, -1, 436, 500}";
}
);
paths = (
{
closed = 1;
nodes = (
"574 0 LINE",
"574 700 LINE",
"394 700 LINE",
"394 93 LINE",
"403 0 LINE"
);
}
);
};
components = (
{
name = Bowl;
transform = "{1, 0, 0, 1, 24, 0}";
}
);
layerId = "747A0BA5-337F-45E8-9896-B2CAF0968805";
paths = (
{
closed = 1;
nodes = (
"574 0 LINE",
"574 700 LINE",
"394 700 LINE",
"394 93 LINE",
"403 0 LINE"
);
}
);
width = 629;
}
);
leftKerningGroup = "round-left-lowercase";
leftMetricsKey = o;
rightMetricsKey = l;
unicode = 0064;
},
{
glyphname = e;
lastChange = "2021-06-28 04:01:44 +0000";
layers = (
{
background = {
paths = (
{
closed = 1;
nodes = (
"433 -16 OFFCURVE",
"534 94 OFFCURVE",
"534 250 CURVE SMOOTH",
"534 406 OFFCURVE",
"433 516 OFFCURVE",
"289 516 CURVE SMOOTH",
"146 516 OFFCURVE",
"45 406 OFFCURVE",
"45 250 CURVE SMOOTH",
"45 94 OFFCURVE",
"147 -16 OFFCURVE",
"291 -16 CURVE SMOOTH"
);
},
{
closed = 1;
nodes = (
"182 39 OFFCURVE",
"105 126 OFFCURVE",
"105 250 CURVE SMOOTH",
"105 374 OFFCURVE",
"181 461 OFFCURVE",
"289 461 CURVE SMOOTH",
"397 461 OFFCURVE",
"474 374 OFFCURVE",
"474 250 CURVE SMOOTH",
"474 126 OFFCURVE",
"398 39 OFFCURVE",
"291 39 CURVE SMOOTH"
);
}
);
};
layerId = m01;
paths = (
{
closed = 1;
nodes = (
"508 243 LINE",
"508 402 OFFCURVE",
"428 515 OFFCURVE",
"286 515 CURVE SMOOTH",
"145 515 OFFCURVE",
"45 405 OFFCURVE",
"45 250 CURVE SMOOTH",
"45 94 OFFCURVE",
"147 -16 OFFCURVE",
"291 -16 CURVE SMOOTH",
"391 -16 OFFCURVE",
"465 38 OFFCURVE",
"503 114 CURVE",
"453 145 LINE",
"422 83 OFFCURVE",
"368 39 OFFCURVE",
"291 39 CURVE SMOOTH",
"182 39 OFFCURVE",
"105 126 OFFCURVE",
"105 250 CURVE SMOOTH",
"105 373 OFFCURVE",
"180 460 OFFCURVE",
"286 460 CURVE SMOOTH",
"394 460 OFFCURVE",
"448 370 OFFCURVE",
"448 243 CURVE"
);
},
{
closed = 1;
nodes = (
"86 243 LINE",
"465 243 LINE",
"465 298 LINE",
"86 298 LINE"
);
}
);
width = 543;
},
{
background = {
paths = (
{
closed = 1;
nodes = (
"472 -16 OFFCURVE",
"586 94 OFFCURVE",
"586 250 CURVE SMOOTH",
"586 406 OFFCURVE",
"472 516 OFFCURVE",
"310 516 CURVE SMOOTH",
"149 516 OFFCURVE",
"35 406 OFFCURVE",
"35 250 CURVE SMOOTH",
"35 94 OFFCURVE",
"150 -16 OFFCURVE",
"312 -16 CURVE SMOOTH"
);
},
{
closed = 1;
nodes = (
"255 154 OFFCURVE",
"215 194 OFFCURVE",
"215 250 CURVE SMOOTH",
"215 306 OFFCURVE",
"254 346 OFFCURVE",
"310 346 CURVE SMOOTH",
"366 346 OFFCURVE",
"406 306 OFFCURVE",
"406 250 CURVE SMOOTH",
"406 194 OFFCURVE",
"367 154 OFFCURVE",
"312 154 CURVE SMOOTH"
);
}
);
};
layerId = "747A0BA5-337F-45E8-9896-B2CAF0968805";
paths = (
{
closed = 1;
nodes = (
"568 223 LINE",
"568 415 OFFCURVE",
"463 516 OFFCURVE",
"310 516 CURVE SMOOTH",
"147 516 OFFCURVE",
"35 406 OFFCURVE",
"35 250 CURVE SMOOTH",
"35 94 OFFCURVE",
"143 -16 OFFCURVE",
"296 -16 CURVE SMOOTH",
"398 -16 OFFCURVE",
"497 27 OFFCURVE",
"541 104 CURVE",
"414 190 LINE",
"393 155 OFFCURVE",
"366 132 OFFCURVE",
"317 132 CURVE SMOOTH",
"250 132 OFFCURVE",
"202 177 OFFCURVE",
"202 265 CURVE SMOOTH",
"202 338 OFFCURVE",
"234 390 OFFCURVE",
"303 390 CURVE SMOOTH",
"386 390 OFFCURVE",
"405 321 OFFCURVE",
"405 223 CURVE"
);
},
{
closed = 1;
nodes = (
"149 223 LINE",
"488 223 LINE",
"488 321 LINE",
"150 321 LINE"
);
}
);
width = 593;
},
{
associatedMasterId = m01;
background = {
paths = (
{
closed = 1;
nodes = (
"439 -16 OFFCURVE",
"540 94 OFFCURVE",
"540 250 CURVE SMOOTH",
"540 406 OFFCURVE",
"439 516 OFFCURVE",
"295 516 CURVE SMOOTH",
"152 516 OFFCURVE",
"51 406 OFFCURVE",
"51 250 CURVE SMOOTH",
"51 94 OFFCURVE",
"153 -16 OFFCURVE",
"297 -16 CURVE SMOOTH"
);
},
{
closed = 1;
nodes = (
"188 39 OFFCURVE",
"111 126 OFFCURVE",
"111 250 CURVE SMOOTH",
"111 374 OFFCURVE",
"187 461 OFFCURVE",
"295 461 CURVE SMOOTH",
"403 461 OFFCURVE",
"480 374 OFFCURVE",
"480 250 CURVE SMOOTH",
"480 126 OFFCURVE",
"404 39 OFFCURVE",
"297 39 CURVE SMOOTH"
);
}
);
};
layerId = "2CA090D3-3F82-40CE-96C1-376CDE35D69A";
name = "{700}";
paths = (
{
closed = 1;
nodes = (
"547 223 LINE",
"547 411 OFFCURVE",
"439 516 OFFCURVE",
"301 516 CURVE SMOOTH",
"147 516 OFFCURVE",
"38 406 OFFCURVE",
"38 250 CURVE SMOOTH",
"38 94 OFFCURVE",
"144 -16 OFFCURVE",
"294 -16 CURVE SMOOTH",
"391 -16 OFFCURVE",
"488 35 OFFCURVE",
"531 120 CURVE",
"421 178 LINE",
"398 133 OFFCURVE",
"351 101 OFFCURVE",
"308 101 CURVE SMOOTH",
"229 101 OFFCURVE",
"174 162 OFFCURVE",
"174 249 CURVE SMOOTH",
"174 345 OFFCURVE",
"215 413 OFFCURVE",
"297 413 CURVE SMOOTH",
"381 413 OFFCURVE",
"419 330 OFFCURVE",
"419 223 CURVE"
);
},
{
closed = 1;
nodes = (
"127 223 LINE",
"480 223 LINE",
"480 326 LINE",
"128 326 LINE"
);
}
);
width = 576;
}
);
leftKerningGroup = "round-left-lowercase";
leftMetricsKey = o;
rightKerningGroup = "round-right-lowercase";
rightMetricsKey = "=o-10";
unicode = 0065;
},
{
glyphname = f;
lastChange = "2021-06-25 17:52:35 +0000";
layers = (
{
layerId = m01;
paths = (
{
closed = 1;
nodes = (
"30 445 LINE",
"338 445 LINE",
"338 500 LINE",
"30 500 LINE"
);
},
{
closed = 1;
nodes = (
"316 707 OFFCURVE",
"287 715 OFFCURVE",
"266 715 CURVE SMOOTH",
"171 715 OFFCURVE",
"125 665 OFFCURVE",
"125 563 CURVE SMOOTH",
"125 530 OFFCURVE",
"125 72 OFFCURVE",
"125 0 CURVE",
"185 0 LINE",
"185 70 OFFCURVE",
"185 529 OFFCURVE",
"185 563 CURVE SMOOTH",
"185 628 OFFCURVE",
"210 660 OFFCURVE",
"261 660 CURVE SMOOTH",
"275 660 OFFCURVE",
"298 653 OFFCURVE",
"333 640 CURVE",
"355 691 LINE"
);
}
);
width = 360;
},
{
layerId = "747A0BA5-337F-45E8-9896-B2CAF0968805";
paths = (
{
closed = 1;
nodes = (
"20 360 LINE",
"378 360 LINE",
"378 500 LINE",
"20 500 LINE"
);
},
{
closed = 1;
nodes = (
"387 704 OFFCURVE",
"329 724 OFFCURVE",
"278 724 CURVE SMOOTH",
"154 724 OFFCURVE",
"95 654 OFFCURVE",
"95 543 CURVE SMOOTH",
"95 510 OFFCURVE",
"95 72 OFFCURVE",
"95 0 CURVE",
"275 0 LINE",
"275 70 OFFCURVE",
"275 473 OFFCURVE",
"275 507 CURVE SMOOTH",
"275 555 OFFCURVE",
"286 572 OFFCURVE",
"313 572 CURVE SMOOTH",
"326 572 OFFCURVE",
"341 568 OFFCURVE",
"353 558 CURVE",
"420 683 LINE"
);
}
);
width = 415;
}
);
unicode = 0066;
},
{
glyphname = g;
lastChange = "2021-06-25 18:08:45 +0000";
layers = (
{
background = {
paths = (
{
closed = 1;
nodes = (
"444 50 LINE",
"444 -74 OFFCURVE",
"367 -161 OFFCURVE",
"258 -161 CURVE SMOOTH",
"186 -161 OFFCURVE",
"128 -120 OFFCURVE",
"98 -53 CURVE",
"45 -81 LINE",
"85 -164 OFFCURVE",
"162 -216 OFFCURVE",
"258 -216 CURVE SMOOTH",
"402 -216 OFFCURVE",
"504 -106 OFFCURVE",
"504 50 CURVE"
);
}
);
};
layerId = m01;
paths = (
{
closed = 1;
nodes = (
"398 0 OFFCURVE",
"487 107 OFFCURVE",
"487 258 CURVE SMOOTH",
"487 410 OFFCURVE",
"398 516 OFFCURVE",
"271 516 CURVE SMOOTH",
"139 516 OFFCURVE",
"45 410 OFFCURVE",
"45 258 CURVE SMOOTH",
"45 107 OFFCURVE",
"139 0 OFFCURVE",
"271 0 CURVE SMOOTH"
);
},
{
closed = 1;
nodes = (
"179 53 OFFCURVE",
"105 138 OFFCURVE",
"105 258 CURVE SMOOTH",
"105 379 OFFCURVE",
"178 464 OFFCURVE",
"282 464 CURVE SMOOTH",
"379 464 OFFCURVE",
"447 379 OFFCURVE",
"447 258 CURVE",
"447 138 OFFCURVE",
"379 53 OFFCURVE",
"283 53 CURVE SMOOTH"
);
},
{
closed = 1;
nodes = (
"507 500 LINE",
"447 500 LINE",
"447 46 LINE SMOOTH",
"447 -78 OFFCURVE",
"370 -165 OFFCURVE",
"261 -165 CURVE SMOOTH",
"189 -165 OFFCURVE",
"131 -124 OFFCURVE",
"101 -57 CURVE",
"48 -85 LINE",
"88 -168 OFFCURVE",
"165 -220 OFFCURVE",
"261 -220 CURVE SMOOTH",
"405 -220 OFFCURVE",
"507 -110 OFFCURVE",
"507 46 CURVE SMOOTH"
);
}
);
width = 582;
},
{
background = {
paths = (
{
closed = 1;
nodes = (
"10 -136 OFFCURVE",
"125 -236 OFFCURVE",
"287 -236 CURVE SMOOTH",
"419 -236 OFFCURVE",
"507 -174 OFFCURVE",
"564 -79 CURVE",
"426 -4 LINE",
"400 -42 OFFCURVE",
"347 -87 OFFCURVE",
"287 -87 CURVE SMOOTH",
"230 -87 OFFCURVE",
"190 -43 OFFCURVE",
"190 10 CURVE SMOOTH",
"190 500 LINE",
"10 500 LINE",
"10 -10 LINE SMOOTH"
);
}
);
};
layerId = "747A0BA5-337F-45E8-9896-B2CAF0968805";
paths = (
{
closed = 1;
nodes = (
"375 14 OFFCURVE",
"443 102 OFFCURVE",
"443 250 CURVE SMOOTH",
"443 416 OFFCURVE",
"375 514 OFFCURVE",
"261 514 CURVE SMOOTH",
"118 514 OFFCURVE",
"35 416 OFFCURVE",
"35 250 CURVE SMOOTH",
"35 102 OFFCURVE",
"119 14 OFFCURVE",
"261 14 CURVE SMOOTH"
);
},
{
closed = 1;
nodes = (
"260 168 OFFCURVE",
"224 205 OFFCURVE",
"223 257 CURVE SMOOTH",
"224 309 OFFCURVE",
"259 345 OFFCURVE",
"308 345 CURVE SMOOTH",
"359 345 OFFCURVE",
"395 309 OFFCURVE",
"395 257 CURVE SMOOTH",
"395 205 OFFCURVE",
"359 168 OFFCURVE",
"309 168 CURVE SMOOTH"
);
},
{
closed = 1;
nodes = (
"584 500 LINE",
"404 500 LINE",
"404 10 LINE SMOOTH",
"404 -43 OFFCURVE",
"364 -87 OFFCURVE",
"307 -87 CURVE SMOOTH",
"247 -87 OFFCURVE",
"204 -65 OFFCURVE",
"188 -21 CURVE",
"39 -87 LINE",
"64 -172 OFFCURVE",
"175 -236 OFFCURVE",
"307 -236 CURVE SMOOTH",
"469 -236 OFFCURVE",
"584 -136 OFFCURVE",
"584 -10 CURVE SMOOTH"
);
}
);
width = 639;
}
);
leftKerningGroup = "round-left-lowercase";
leftMetricsKey = o;
rightMetricsKey = l;
unicode = 0067;
},
{
glyphname = h;
lastChange = "2021-05-25 05:59:58 +0000";
layers = (
{
components = (
{
name = arch;
transform = "{1, 0, 0, 1, 98, 0}";
}
);
layerId = m01;
paths = (
{
closed = 1;
nodes = (
"135 0 LINE",
"135 716 LINE",
"75 716 LINE",
"75 0 LINE"
);
},
{
closed = 1;
nodes = (
"494 0 LINE",
"494 286 LINE",
"434 256 LINE",
"434 0 LINE"
);
}
);
width = 559;
},
{
components = (
{
name = arch;
transform = "{1, 0, 0, 1, 195, 0}";
}
);
layerId = "747A0BA5-337F-45E8-9896-B2CAF0968805";
paths = (
{
closed = 1;
nodes = (
"237 0 LINE",
"235 716 LINE",
"55 716 LINE",
"57 0 LINE"
);
},
{
closed = 1;
nodes = (
"550 0 LINE",
"550 286 LINE",
"370 256 LINE",
"370 0 LINE"
);
}
);
width = 595;
}
);
leftMetricsKey = l;
rightMetricsKey = "=l-10";
unicode = 0068;
},
{
glyphname = i;
lastChange = "2021-06-02 16:42:08 +0000";
layers = (
{
layerId = m01;
leftMetricsKey = "=l-5";
rightMetricsKey = "=l-5";
paths = (
{
closed = 1;
nodes = (
"139 0 LINE",
"141 500 LINE",
"81 500 LINE",
"79 0 LINE"
);
},
{
closed = 1;
nodes = (
"132 630 OFFCURVE",
"150 648 OFFCURVE",
"150 670 CURVE SMOOTH",
"150 692 OFFCURVE",
"132 710 OFFCURVE",
"110 710 CURVE SMOOTH",
"88 710 OFFCURVE",
"70 692 OFFCURVE",
"70 670 CURVE SMOOTH",
"70 648 OFFCURVE",
"88 630 OFFCURVE",
"110 630 CURVE SMOOTH"
);
}
);
width = 220;
},
{
layerId = "747A0BA5-337F-45E8-9896-B2CAF0968805";
leftMetricsKey = "=l-10";
rightMetricsKey = "=l-10";
paths = (
{
closed = 1;
nodes = (
"238 0 LINE",
"238 500 LINE",
"58 500 LINE",
"58 0 LINE"
);
},
{
closed = 1;
nodes = (
"204 542 OFFCURVE",
"251 589 OFFCURVE",
"251 645 CURVE SMOOTH",
"251 701 OFFCURVE",
"204 748 OFFCURVE",
"148 748 CURVE SMOOTH",
"92 748 OFFCURVE",
"45 701 OFFCURVE",
"45 645 CURVE SMOOTH",
"45 589 OFFCURVE",
"92 542 OFFCURVE",
"148 542 CURVE SMOOTH"
);
}
);
width = 296;
}
);
leftMetricsKey = "=l-11";
rightMetricsKey = "=l-11";
unicode = 0069;
},
{
glyphname = j;
lastChange = "2021-06-25 17:40:14 +0000";
layers = (
{
layerId = m01;
paths = (
{
closed = 1;
nodes = (
"134 -215 OFFCURVE",
"180 -165 OFFCURVE",
"180 -63 CURVE SMOOTH",
"180 -30 OFFCURVE",
"180 428 OFFCURVE",
"180 500 CURVE",
"120 500 LINE",
"120 430 OFFCURVE",
"120 -29 OFFCURVE",
"120 -63 CURVE SMOOTH",
"120 -128 OFFCURVE",
"95 -160 OFFCURVE",
"44 -160 CURVE SMOOTH",
"30 -160 OFFCURVE",
"7 -153 OFFCURVE",
"-28 -140 CURVE",
"-50 -191 LINE",
"-11 -207 OFFCURVE",
"18 -215 OFFCURVE",
"39 -215 CURVE SMOOTH"
);
},
{
closed = 1;
nodes = (
"172 630 OFFCURVE",
"190 648 OFFCURVE",
"190 670 CURVE SMOOTH",
"190 692 OFFCURVE",
"172 710 OFFCURVE",
"150 710 CURVE SMOOTH",
"128 710 OFFCURVE",
"110 692 OFFCURVE",
"110 670 CURVE SMOOTH",
"110 648 OFFCURVE",
"128 630 OFFCURVE",
"150 630 CURVE SMOOTH"
);
}
);
width = 260;
},
{
layerId = "747A0BA5-337F-45E8-9896-B2CAF0968805";
paths = (
{
closed = 1;
nodes = (
"178 -215 OFFCURVE",
"253 -143 OFFCURVE",
"253 -21 CURVE SMOOTH",
"253 10 OFFCURVE",
"253 431 OFFCURVE",
"253 500 CURVE",
"73 500 LINE",
"73 430 OFFCURVE",
"73 27 OFFCURVE",
"73 -7 CURVE SMOOTH",
"73 -32 OFFCURVE",
"62 -47 OFFCURVE",
"44 -47 CURVE SMOOTH",
"31 -47 OFFCURVE",
"16 -41 OFFCURVE",
"4 -31 CURVE",
"-70 -180 LINE",
"-40 -202 OFFCURVE",
"5 -215 OFFCURVE",
"52 -215 CURVE SMOOTH"
);
},
{
closed = 1;
nodes = (
"219 542 OFFCURVE",
"266 589 OFFCURVE",
"266 645 CURVE SMOOTH",
"266 701 OFFCURVE",
"219 748 OFFCURVE",
"163 748 CURVE SMOOTH",
"107 748 OFFCURVE",
"60 701 OFFCURVE",
"60 645 CURVE SMOOTH",
"60 589 OFFCURVE",
"107 542 OFFCURVE",
"163 542 CURVE SMOOTH"
);
}
);
width = 311;
}
);
rightMetricsKey = i;
unicode = 006A;
},
{
glyphname = k;
lastChange = "2021-06-28 05:00:47 +0000";
layers = (
{
layerId = m01;
paths = (
{
closed = 1;
nodes = (
"135 0 LINE",
"135 700 LINE",
"75 700 LINE",
"75 0 LINE"
);
},
{
closed = 1;
nodes = (
"124 174 LINE",
"432 500 LINE",
"354 500 LINE",
"83 215 LINE"
);
},
{
closed = 1;
nodes = (
"161 294 LINE",
"401 0 LINE",
"478 0 LINE",
"200 337 LINE"
);
}
);
width = 478;
},
{
layerId = "747A0BA5-337F-45E8-9896-B2CAF0968805";
name = Black;
paths = (
{
closed = 1;
nodes = (
"235 0 LINE",
"235 700 LINE",
"55 700 LINE",
"55 0 LINE"
);
},
{
closed = 1;
nodes = (
"225 75 LINE",
"575 500 LINE",
"349 500 LINE",
"97 193 LINE"
);
},
{
closed = 1;
nodes = (
"240 205 LINE",
"379 0 LINE",
"586 0 LINE",
"358 337 LINE"
);
}
);
width = 596;
}
);
leftMetricsKey = l;
rightKerningGroup = "indented-right-lowercase";
unicode = 006B;
},
{
glyphname = l;
lastChange = "2021-06-27 07:00:24 +0000";
layers = (
{
layerId = m01;
paths = (
{
closed = 1;
nodes = (
"135 0 LINE",
"137 742 LINE",
"77 742 LINE",
"75 0 LINE"
);
}
);
width = 212;
},
{
layerId = "747A0BA5-337F-45E8-9896-B2CAF0968805";
paths = (
{
closed = 1;
nodes = (
"219 0 LINE",
"219 742 LINE",
"55 742 LINE",
"55 0 LINE"
);
}
);
width = 274;
}
);
unicode = 006C;
},
{
glyphname = m;
lastChange = "2021-06-14 07:00:12 +0000";
layers = (
{
components = (
{
name = arch;
transform = "{1, 0, 0, 1, 98, 0}";
},
{
name = arch;
transform = "{1, 0, 0, 1, 457, 0}";
}
);
layerId = m01;
paths = (
{
closed = 1;
nodes = (
"135 0 LINE",
"135 408 LINE",
"131 500 LINE",
"75 500 LINE",
"75 0 LINE"
);
},
{
closed = 1;
nodes = (
"494 0 LINE",
"494 286 LINE",
"434 256 LINE",
"434 0 LINE"
);
},
{
closed = 1;
nodes = (
"853 0 LINE",
"853 286 LINE",
"793 256 LINE",
"793 0 LINE"
);
}
);
width = 908;
},
{
components = (
{
name = arch;
transform = "{1, 0, 0, 1, 193, 0}";
},
{
name = arch;
transform = "{1, 0, 0, 1, 506, 0}";
}
);
layerId = "747A0BA5-337F-45E8-9896-B2CAF0968805";
paths = (
{
closed = 1;
nodes = (
"235 0 LINE",
"235 408 LINE",
"225 500 LINE",
"55 500 LINE",
"55 0 LINE"
);
},
{
closed = 1;
nodes = (
"548 0 LINE",
"548 286 LINE",
"368 256 LINE",
"368 0 LINE"
);
},
{
closed = 1;
nodes = (
"861 0 LINE",
"861 286 LINE",
"681 256 LINE",
"681 0 LINE"
);
}
);
width = 896;
}
);
leftKerningGroup = short_lower_case;
leftMetricsKey = l;
rightMetricsKey = "=l-20";
unicode = 006D;
},
{
glyphname = n;
lastChange = "2021-06-14 07:02:31 +0000";
layers = (
{
components = (
{
name = arch;
transform = "{1, 0, 0, 1, 98, 0}";
}
);
layerId = m01;
paths = (
{
closed = 1;
nodes = (
"135 0 LINE",
"135 408 LINE",
"131 500 LINE",
"75 500 LINE",
"75 0 LINE"
);
},
{
closed = 1;
nodes = (
"494 0 LINE",
"494 286 LINE",
"434 256 LINE",
"434 0 LINE"
);
}
);
width = 554;
},
{
background = {
components = (
{
name = Bowl;
transform = "{-1, 0, 0, 1, 606, 0}";
}
);
};
components = (
{
name = arch;
transform = "{1, 0, 0, 1, 193, 0}";
}
);
layerId = "747A0BA5-337F-45E8-9896-B2CAF0968805";
paths = (
{
closed = 1;
nodes = (
"235 0 LINE",
"235 408 LINE",
"225 500 LINE",
"55 500 LINE",
"55 0 LINE"
);
},
{
closed = 1;
nodes = (
"548 0 LINE",
"548 286 LINE",
"368 256 LINE",
"368 0 LINE"
);
}
);
width = 588;
}
);
leftKerningGroup = short_lower_case;
leftMetricsKey = l;
rightMetricsKey = "=l-15";
unicode = 006E;
},
{
glyphname = o;
lastChange = "2021-06-27 07:05:14 +0000";
layers = (
{
anchors = (
{
name = bottom;
position = "{290, 0}";
},
{
name = center;
position = "{290, 250}";
},
{
name = ogonek;
position = "{521, 10}";
},
{
name = top;
position = "{290, 500}";
},
{
name = topright;
position = "{559, 500}";
}
);
layerId = m01;
paths = (
{
closed = 1;
nodes = (
"433 -16 OFFCURVE",
"534 94 OFFCURVE",
"534 250 CURVE SMOOTH",
"534 406 OFFCURVE",
"433 516 OFFCURVE",
"289 516 CURVE SMOOTH",
"146 516 OFFCURVE",
"45 406 OFFCURVE",
"45 250 CURVE SMOOTH",
"45 94 OFFCURVE",
"147 -16 OFFCURVE",
"291 -16 CURVE SMOOTH"
);
},
{
closed = 1;
nodes = (
"182 39 OFFCURVE",
"105 126 OFFCURVE",
"105 250 CURVE SMOOTH",
"105 374 OFFCURVE",
"181 461 OFFCURVE",
"289 461 CURVE SMOOTH",
"397 461 OFFCURVE",
"474 374 OFFCURVE",
"474 250 CURVE SMOOTH",
"474 126 OFFCURVE",
"398 39 OFFCURVE",
"291 39 CURVE SMOOTH"
);
}
);
width = 579;
},
{
anchors = (
{
name = bottom;
position = "{301, 0}";
},
{
name = center;
position = "{301, 250}";
},
{
name = ogonek;
position = "{541, 10}";
},
{
name = top;
position = "{301, 500}";
},
{
name = topright;
position = "{581, 500}";
}
);
layerId = "747A0BA5-337F-45E8-9896-B2CAF0968805";
paths = (
{
closed = 1;
nodes = (
"462 -16 OFFCURVE",
"566 94 OFFCURVE",
"566 250 CURVE SMOOTH",
"566 406 OFFCURVE",
"462 516 OFFCURVE",
"300 516 CURVE SMOOTH",
"139 516 OFFCURVE",
"35 406 OFFCURVE",
"35 250 CURVE SMOOTH",
"35 94 OFFCURVE",
"140 -16 OFFCURVE",
"302 -16 CURVE SMOOTH"
);
},
{
closed = 1;
nodes = (
"251 151 OFFCURVE",
"215 192 OFFCURVE",
"215 251 CURVE SMOOTH",
"215 309 OFFCURVE",
"250 350 OFFCURVE",
"300 350 CURVE SMOOTH",
"350 350 OFFCURVE",
"386 309 OFFCURVE",
"386 251 CURVE SMOOTH",
"386 192 OFFCURVE",
"351 151 OFFCURVE",
"302 151 CURVE SMOOTH"
);
}
);
width = 601;
}
);
leftKerningGroup = "round-left-lowercase";
rightKerningGroup = "round-right-lowercase";
unicode = 006F;
},
{
glyphname = p;
lastChange = "2021-06-25 18:08:45 +0000";
layers = (
{
components = (
{
name = Bowl;
transform = "{-1, 0, 0, 1, 582, 0}";
}
);
layerId = m01;
paths = (
{
closed = 1;
nodes = (
"75 500 LINE",
"75 -200 LINE",
"135 -200 LINE",
"135 407 LINE",
"132 500 LINE"
);
}
);
width = 582;
},
{
components = (
{
name = Bowl;
transform = "{-1, 0, 0, 1, 606, 0}";
}
);
layerId = "747A0BA5-337F-45E8-9896-B2CAF0968805";
paths = (
{
closed = 1;
nodes = (
"55 500 LINE",
"55 -200 LINE",
"235 -200 LINE",
"235 407 LINE",
"226 500 LINE"
);
}
);
width = 630;
}
);
leftKerningGroup = short_lower_case;
leftMetricsKey = l;
rightKerningGroup = "round-right-lowercase";
rightMetricsKey = o;
unicode = 0070;
},
{
glyphname = q;
lastChange = "2021-06-25 18:08:45 +0000";
layers = (
{
components = (
{
name = Bowl;
}
);
layerId = m01;
paths = (
{
closed = 1;
nodes = (
"447 407 LINE",
"447 -200 LINE",
"507 -200 LINE",
"507 500 LINE",
"450 500 LINE"
);
}
);
width = 582;
},
{
components = (
{
name = Bowl;
transform = "{1, 0, 0, 1, 24, 0}";
}
);
layerId = "747A0BA5-337F-45E8-9896-B2CAF0968805";
paths = (
{
closed = 1;
nodes = (
"395 407 LINE",
"395 -200 LINE",
"575 -200 LINE",
"575 500 LINE",
"404 500 LINE"
);
}
);
width = 630;
}
);
leftKerningGroup = "round-left-lowercase";
leftMetricsKey = o;
rightMetricsKey = l;
unicode = 0071;
},
{
glyphname = r;
lastChange = "2021-06-25 07:04:29 +0000";
layers = (
{
layerId = m01;
paths = (
{
closed = 1;
nodes = (
"136 287 LINE",
"136 412 OFFCURVE",
"224 454 OFFCURVE",
"312 454 CURVE",
"312 509 LINE",
"204 509 OFFCURVE",
"100 443 OFFCURVE",
"100 281 CURVE"
);
},
{
closed = 1;
nodes = (
"135 0 LINE",
"135 500 LINE",
"75 500 LINE",
"75 0 LINE"
);
}
);
width = 322;
},
{
background = {
components = (
{
name = arch;
transform = "{1, 0, 0, 1, 193, 0}";
}
);
};
layerId = "747A0BA5-337F-45E8-9896-B2CAF0968805";
paths = (
{
closed = 1;
nodes = (
"236 265 LINE",
"236 313 OFFCURVE",
"318 340 OFFCURVE",
"410 340 CURVE",
"412 516 LINE",
"304 516 OFFCURVE",
"193 431 OFFCURVE",
"193 269 CURVE"
);
},
{
closed = 1;
nodes = (
"235 0 LINE",
"235 500 LINE",
"55 500 LINE",
"55 0 LINE"
);
}
);
width = 432;
}
);
leftKerningGroup = short_lower_case;
leftMetricsKey = l;
unicode = 0072;
},
{
glyphname = s;
lastChange = "2021-06-28 03:52:05 +0000";
layers = (
{
layerId = m01;
paths = (
{
closed = 1;
nodes = (
"88 21 OFFCURVE",
"162 -16 OFFCURVE",
"245 -16 CURVE SMOOTH",
"360 -16 OFFCURVE",
"428 39 OFFCURVE",
"428 131 CURVE SMOOTH",
"428 200 OFFCURVE",
"367 255 OFFCURVE",
"265 280 CURVE SMOOTH",
"176 301 OFFCURVE",
"124 335 OFFCURVE",
"124 371 CURVE SMOOTH",
"124 426 OFFCURVE",
"167 459 OFFCURVE",
"239 459 CURVE SMOOTH",
"290 459 OFFCURVE",
"342 429 OFFCURVE",
"380 379 CURVE",
"428 411 LINE",
"384 476 OFFCURVE",
"317 514 OFFCURVE",
"248 514 CURVE SMOOTH",
"132 514 OFFCURVE",
"64 459 OFFCURVE",
"64 366 CURVE SMOOTH",
"64 301 OFFCURVE",
"129 250 OFFCURVE",
"238 229 CURVE SMOOTH",
"320 213 OFFCURVE",
"368 175 OFFCURVE",
"368 126 CURVE SMOOTH",
"368 71 OFFCURVE",
"318 39 OFFCURVE",
"234 39 CURVE SMOOTH",
"177 39 OFFCURVE",
"124 69 OFFCURVE",
"91 119 CURVE",
"45 84 LINE"
);
}
);
width = 468;
},
{
layerId = "747A0BA5-337F-45E8-9896-B2CAF0968805";
paths = (
{
closed = 1;
nodes = (
"93 26 OFFCURVE",
"171 -16 OFFCURVE",
"256 -16 CURVE SMOOTH",
"396 -16 OFFCURVE",
"479 44 OFFCURVE",
"479 146 CURVE SMOOTH",
"479 227 OFFCURVE",
"416 288 OFFCURVE",
"305 306 CURVE SMOOTH",
"251 315 OFFCURVE",
"215 329 OFFCURVE",
"215 348 CURVE SMOOTH",
"215 369 OFFCURVE",
"231 381 OFFCURVE",
"260 381 CURVE SMOOTH",
"296 381 OFFCURVE",
"326 366 OFFCURVE",
"339 341 CURVE",
"474 424 LINE",
"427 482 OFFCURVE",
"349 516 OFFCURVE",
"260 516 CURVE SMOOTH",
"128 516 OFFCURVE",
"49 455 OFFCURVE",
"49 346 CURVE SMOOTH",
"49 270 OFFCURVE",
"110 207 OFFCURVE",
"219 189 CURVE SMOOTH",
"268 181 OFFCURVE",
"301 168 OFFCURVE",
"301 149 CURVE SMOOTH",
"301 130 OFFCURVE",
"285 119 OFFCURVE",
"256 119 CURVE SMOOTH",
"217 119 OFFCURVE",
"185 146 OFFCURVE",
"169 177 CURVE",
"47 96 LINE"
);
}
);
width = 504;
}
);
leftKerningGroup = short_lower_case;
unicode = 0073;
},
{
glyphname = t;
lastChange = "2021-06-25 17:54:37 +0000";
layers = (
{
layerId = m01;
paths = (
{
closed = 1;
nodes = (
"291 -16 OFFCURVE",
"326 -7 OFFCURVE",
"362 8 CURVE",
"339 61 LINE",
"309 47 OFFCURVE",
"282 39 OFFCURVE",
"266 39 CURVE SMOOTH",
"211 39 OFFCURVE",
"179 75 OFFCURVE",
"179 136 CURVE SMOOTH",
"179 656 LINE",
"119 656 LINE",
"119 136 LINE SMOOTH",
"119 40 OFFCURVE",
"174 -16 OFFCURVE",
"266 -16 CURVE SMOOTH"
);
},
{
closed = 1;
nodes = (
"338 445 LINE",
"338 500 LINE",
"30 500 LINE",
"30 445 LINE"
);
}
);
width = 377;
},
{
layerId = "747A0BA5-337F-45E8-9896-B2CAF0968805";
paths = (
{
closed = 1;
nodes = (
"329 -16 OFFCURVE",
"387 4 OFFCURVE",
"420 25 CURVE",
"361 154 LINE",
"349 146 OFFCURVE",
"326 136 OFFCURVE",
"313 136 CURVE SMOOTH",
"286 136 OFFCURVE",
"275 153 OFFCURVE",
"275 201 CURVE SMOOTH",
"275 656 LINE",
"95 656 LINE",
"95 155 LINE SMOOTH",
"95 44 OFFCURVE",
"154 -16 OFFCURVE",
"278 -16 CURVE SMOOTH"
);
},
{
closed = 1;
nodes = (
"378 360 LINE",
"378 500 LINE",
"20 500 LINE",
"20 360 LINE"
);
}
);
width = 421;
}
);
leftMetricsKey = f;
unicode = 0074;
},
{
glyphname = u;
lastChange = "2021-06-02 19:50:47 +0000";
layers = (
{
components = (
{
name = arch;
transform = "{-1, 0, 0, -1, 456, 500}";
}
);
layerId = m01;
paths = (
{
closed = 1;
nodes = (
"419 500 LINE",
"419 92 LINE",
"423 0 LINE",
"479 0 LINE",
"479 500 LINE"
);
},
{
closed = 1;
nodes = (
"60 500 LINE",
"60 214 LINE",
"120 244 LINE",
"120 500 LINE"
);
}
);
width = 554;
},
{
components = (
{
name = arch;
transform = "{-1, 0, 0, -1, 395, 500}";
}
);
layerId = "747A0BA5-337F-45E8-9896-B2CAF0968805";
paths = (
{
closed = 1;
nodes = (
"353 500 LINE",
"353 92 LINE",
"363 0 LINE",
"533 0 LINE",
"533 500 LINE"
);
},
{
closed = 1;
nodes = (
"40 500 LINE",
"40 214 LINE",
"220 244 LINE",
"220 500 LINE"
);
}
);
width = 588;
}
);
leftKerningGroup = short_lower_case;
leftMetricsKey = "=|n";
rightMetricsKey = l;
unicode = 0075;
},
{
glyphname = v;
lastChange = "2021-06-02 19:54:27 +0000";
layers = (
{
layerId = m01;
paths = (
{
closed = 1;
nodes = (
"221 0 LINE",
"282 0 LINE",
"72 500 LINE",
"10 500 LINE"
);
},
{
closed = 1;
nodes = (
"433 500 LINE",
"223 0 LINE",
"285 0 LINE",
"496 500 LINE"
);
}
);
width = 506;
},
{
layerId = "747A0BA5-337F-45E8-9896-B2CAF0968805";
paths = (
{
closed = 1;
nodes = (
"221 0 LINE",
"396 0 LINE",
"196 500 LINE",
"10 500 LINE"
);
},
{
closed = 1;
nodes = (
"434 500 LINE",
"234 0 LINE",
"409 0 LINE",
"620 500 LINE"
);
}
);
width = 630;
}
);
leftKerningGroup = "undercut-left-lowercase";
rightKerningGroup = "undercut-right-lowercase";
unicode = 0076;
},
{
glyphname = w;
lastChange = "2021-06-25 18:04:41 +0000";
layers = (
{
layerId = m01;
paths = (
{
closed = 1;
nodes = (
"241 0 LINE",
"70 500 LINE",
"10 500 LINE",
"180 0 LINE"
);
},
{
closed = 1;
nodes = (
"242 0 LINE",
"413 500 LINE",
"353 500 LINE",
"181 0 LINE"
);
},
{
closed = 1;
nodes = (
"584 0 LINE",
"413 500 LINE",
"353 500 LINE",
"523 0 LINE"
);
},
{
closed = 1;
nodes = (
"584 0 LINE",
"754 500 LINE",
"694 500 LINE",
"523 0 LINE"
);
}
);
width = 764;
},
{
layerId = "747A0BA5-337F-45E8-9896-B2CAF0968805";
paths = (
{
closed = 1;
nodes = (
"345 0 LINE",
"194 500 LINE",
"10 500 LINE",
"180 0 LINE"
);
},
{
closed = 1;
nodes = (
"356 0 LINE",
"504 500 LINE",
"353 500 LINE",
"201 0 LINE"
);
},
{
closed = 1;
nodes = (
"681 0 LINE",
"530 500 LINE",
"379 500 LINE",
"526 0 LINE"
);
},
{
closed = 1;
nodes = (
"702 0 LINE",
"873 500 LINE",
"689 500 LINE",
"527 0 LINE"
);
}
);
width = 883;
}
);
leftKerningGroup = "undercut-left-lowercase";
rightKerningGroup = "undercut-right-lowercase";
unicode = 0077;
},
{
glyphname = x;
lastChange = "2021-06-27 22:48:53 +0000";
layers = (
{
annotations = (
{
position = "{261.094, 258.046}";
text = "y=258";
type = Text;
}
);
layerId = m01;
paths = (
{
closed = 1;
nodes = (
"207 233 LINE",
"364 0 LINE",
"437 0 LINE",
"235 288 LINE",
"90 500 LINE",
"18 500 LINE"
);
},
{
closed = 1;
nodes = (
"353 500 LINE",
"209 288 LINE",
"5 0 LINE",
"79 0 LINE",
"238 233 LINE",
"425 500 LINE"
);
}
);
width = 442;
},
{
layerId = "747A0BA5-337F-45E8-9896-B2CAF0968805";
paths = (
{
closed = 1;
nodes = (
"232 213 LINE",
"369 0 LINE",
"582 0 LINE",
"377 284 LINE",
"235 500 LINE",
"23 500 LINE"
);
},
{
closed = 1;
nodes = (
"358 500 LINE",
"216 284 LINE",
"10 0 LINE",
"224 0 LINE",
"363 213 LINE",
"570 500 LINE"
);
}
);
width = 592;
}
);
leftKerningGroup = "indented-left-lowercase";
rightKerningGroup = "indented-right-lowercase";
unicode = 0078;
},
{
glyphname = y;
lastChange = "2021-06-02 19:56:37 +0000";
layers = (
{
layerId = m01;
paths = (
{
closed = 1;
nodes = (
"222 0 LINE",
"283 0 LINE",
"266 40 LINE",
"73 500 LINE",
"11 500 LINE"
);
},
{
closed = 1;
nodes = (
"497 500 LINE",
"434 500 LINE",
"239 39 LINE",
"182 -97 LINE SMOOTH",
"166 -135 OFFCURVE",
"142 -157 OFFCURVE",
"104 -157 CURVE SMOOTH",
"90 -157 OFFCURVE",
"67 -150 OFFCURVE",
"32 -137 CURVE",
"10 -188 LINE",
"49 -204 OFFCURVE",
"78 -212 OFFCURVE",
"99 -212 CURVE SMOOTH",
"181 -212 OFFCURVE",
"215 -164 OFFCURVE",
"252 -80 CURVE SMOOTH"
);
}
);
width = 507;
},
{
layerId = "747A0BA5-337F-45E8-9896-B2CAF0968805";
paths = (
{
closed = 1;
nodes = (
"221 0 LINE",
"406 0 LINE",
"336 130 LINE",
"196 500 LINE",
"10 500 LINE"
);
},
{
closed = 1;
nodes = (
"618 500 LINE",
"432 500 LINE",
"292 130 LINE",
"217 -11 LINE SMOOTH",
"208 -27 OFFCURVE",
"205 -37 OFFCURVE",
"184 -37 CURVE SMOOTH",
"171 -37 OFFCURVE",
"156 -31 OFFCURVE",
"144 -21 CURVE",
"70 -170 LINE",
"100 -192 OFFCURVE",
"145 -215 OFFCURVE",
"192 -215 CURVE SMOOTH",
"318 -215 OFFCURVE",
"351 -132 OFFCURVE",
"399 -18 CURVE SMOOTH"
);
}
);
width = 628;
}
);
leftKerningGroup = "undercut-left-lowercase";
leftMetricsKey = v;
rightKerningGroup = "undercut-right-lowercase";
rightMetricsKey = v;
unicode = 0079;
},
{
glyphname = z;
lastChange = "2021-06-27 22:47:48 +0000";
layers = (
{
background = {
paths = (
{
closed = 1;
nodes = (
"442 459 LINE",
"442 500 LINE",
"55 500 LINE",
"55 459 LINE"
);
},
{
closed = 1;
nodes = (
"439 0 LINE",
"439 41 LINE",
"53 41 LINE",
"53 0 LINE"
);
},
{
closed = 1;
nodes = (
"53 41 LINE",
"91 18 LINE",
"442 459 LINE",
"404 481 LINE"
);
}
);
};
layerId = m01;
paths = (
{
closed = 1;
nodes = (
"402 445 LINE",
"444 451 LINE",
"444 500 LINE",
"50 500 LINE",
"50 445 LINE"
);
},
{
closed = 1;
nodes = (
"447 0 LINE",
"447 55 LINE",
"93 55 LINE",
"50 52 LINE",
"50 0 LINE"
);
},
{
closed = 1;
nodes = (
"50 52 LINE",
"101 20 LINE",
"444 451 LINE",
"394 483 LINE"
);
}
);
width = 497;
},
{
layerId = "747A0BA5-337F-45E8-9896-B2CAF0968805";
paths = (
{
closed = 1;
nodes = (
"351 355 LINE",
"459 375 LINE",
"459 500 LINE",
"35 500 LINE",
"35 355 LINE"
);
},
{
closed = 1;
nodes = (
"459 0 LINE",
"459 144 LINE",
"138 144 LINE",
"35 125 LINE",
"35 0 LINE"
);
},
{
closed = 1;
nodes = (
"35 125 LINE",
"143 14 LINE",
"459 375 LINE",
"356 490 LINE"
);
}
);
width = 494;
}
);
unicode = 007A;
},
{
glyphname = a.001;
lastChange = "2021-06-25 18:08:45 +0000";
layers = (
{
layerId = m01;
paths = (
{
closed = 1;
nodes = (
"451 0 LINE",
"451 272 LINE SMOOTH",
"451 436 OFFCURVE",
"384 516 OFFCURVE",
"246 516 CURVE",
"176 516 OFFCURVE",
"117 489 OFFCURVE",
"68 434 CURVE",
"103 395 LINE",
"147 439 OFFCURVE",
"194 461 OFFCURVE",
"246 461 CURVE SMOOTH",
"338 461 OFFCURVE",
"386 399 OFFCURVE",
"391 272 CURVE SMOOTH",
"401 0 LINE"
);
},
{
closed = 1;
nodes = (
"371 -16 OFFCURVE",
"447 75 OFFCURVE",
"447 214 CURVE",
"392 214 LINE",
"392 110 OFFCURVE",
"335 39 OFFCURVE",
"238 39 CURVE SMOOTH",
"154 39 OFFCURVE",
"105 77 OFFCURVE",
"105 141 CURVE",
"105 211 OFFCURVE",
"159 252 OFFCURVE",
"250 252 CURVE SMOOTH",
"299 252 OFFCURVE",
"355 236 OFFCURVE",
"401 209 CURVE",
"415 264 LINE",
"376 291 OFFCURVE",
"312 307 OFFCURVE",
"242 307 CURVE SMOOTH",
"118 307 OFFCURVE",
"45 245 OFFCURVE",
"45 141 CURVE SMOOTH",
"45 42 OFFCURVE",
"118 -16 OFFCURVE",
"242 -16 CURVE SMOOTH"
);
}
);
width = 511;
},
{
layerId = "747A0BA5-337F-45E8-9896-B2CAF0968805";
paths = (
{
closed = 1;
nodes = (
"529 0 LINE",
"529 285 LINE SMOOTH",
"529 423 OFFCURVE",
"424 520 OFFCURVE",
"276 520 CURVE SMOOTH",
"187 520 OFFCURVE",
"90 481 OFFCURVE",
"43 426 CURVE",
"145 317 LINE",
"187 348 OFFCURVE",
"235 363 OFFCURVE",
"269 363 CURVE SMOOTH",
"329 363 OFFCURVE",
"360 316 OFFCURVE",
"360 249 CURVE SMOOTH",
"360 0 LINE"
);
},
{
closed = 1;
nodes = (
"299 -16 OFFCURVE",
"357 7 OFFCURVE",
"388 47 CURVE",
"363 130 LINE",
"353 117 OFFCURVE",
"321 109 OFFCURVE",
"292 109 CURVE SMOOTH",
"244 109 OFFCURVE",
"223 131 OFFCURVE",
"223 153 CURVE",
"223 174 OFFCURVE",
"246 188 OFFCURVE",
"286 188 CURVE SMOOTH",
"314 188 OFFCURVE",
"354 181 OFFCURVE",
"364 173 CURVE",
"388 254 LINE",
"350 287 OFFCURVE",
"292 307 OFFCURVE",
"232 307 CURVE SMOOTH",
"108 307 OFFCURVE",
"35 245 OFFCURVE",
"35 141 CURVE SMOOTH",
"35 42 OFFCURVE",
"108 -16 OFFCURVE",
"232 -16 CURVE SMOOTH"
);
}
);
width = 569;
},
{
associatedMasterId = m01;
layerId = "2486049E-C633-4A3D-AB3D-6C05C3712295";
name = "{700}";
paths = (
{
closed = 1;
nodes = (
"502 0 LINE",
"502 281 LINE SMOOTH",
"502 427 OFFCURVE",
"410 519 OFFCURVE",
"265 519 CURVE",
"183 519 OFFCURVE",
"98 484 OFFCURVE",
"51 429 CURVE",
"130 343 LINE",
"169 376 OFFCURVE",
"219 396 OFFCURVE",
"261 396 CURVE SMOOTH",
"327 396 OFFCURVE",
"369 344 OFFCURVE",
"370 257 CURVE SMOOTH",
"373 0 LINE"
);
},
{
closed = 1;
nodes = (
"353 -16 OFFCURVE",
"422 73 OFFCURVE",
"422 223 CURVE",
"371 178 LINE",
"371 121 OFFCURVE",
"331 88 OFFCURVE",
"263 88 CURVE SMOOTH",
"203 88 OFFCURVE",
"167 106 OFFCURVE",
"167 137 CURVE",
"167 180 OFFCURVE",
"207 206 OFFCURVE",
"275 206 CURVE SMOOTH",
"317 206 OFFCURVE",
"353 196 OFFCURVE",
"371 179 CURVE",
"391 254 LINE",
"354 285 OFFCURVE",
"296 303 OFFCURVE",
"235 303 CURVE SMOOTH",
"111 303 OFFCURVE",
"38 243 OFFCURVE",
"38 141 CURVE SMOOTH",
"38 42 OFFCURVE",
"111 -16 OFFCURVE",
"235 -16 CURVE SMOOTH"
);
}
);
width = 548;
}
);
leftKerningGroup = "round-left-lowercase";
leftMetricsKey = o;
rightKerningGroup = "round-right-lowercase";
rightMetricsKey = n;
},
{
glyphname = a.002;
lastChange = "2021-06-26 16:34:57 +0000";
layers = (
{
components = (
{
name = Bowl;
}
);
guideLines = (
{
position = "{250, 252}";
},
{
position = "{242, 307}";
}
);
layerId = m01;
paths = (
{
closed = 1;
nodes = (
"507 0 LINE",
"507 500 LINE",
"447 500 LINE",
"447 93 LINE",
"450 0 LINE"
);
}
);
width = 582;
},
{
components = (
{
name = Bowl;
transform = "{1, 0, 0, 1, 24, 0}";
}
);
guideLines = (
{
angle = 180;
position = "{379, 294}";
}
);
layerId = "747A0BA5-337F-45E8-9896-B2CAF0968805";
paths = (
{
closed = 1;
nodes = (
"574 0 LINE",
"574 500 LINE",
"394 500 LINE",
"394 93 LINE",
"403 0 LINE"
);
}
);
width = 629;
},
{
associatedMasterId = m01;
layerId = "CB0AF63B-738D-442B-AE33-6FAC0C554570";
name = "21 Jun 21, 13:35";
paths = (
{
closed = 1;
nodes = (
"451 0 LINE",
"451 272 LINE SMOOTH",
"451 436 OFFCURVE",
"384 516 OFFCURVE",
"246 516 CURVE",
"176 516 OFFCURVE",
"117 489 OFFCURVE",
"68 434 CURVE",
"103 395 LINE",
"147 439 OFFCURVE",
"194 461 OFFCURVE",
"246 461 CURVE SMOOTH",
"338 461 OFFCURVE",
"386 399 OFFCURVE",
"391 272 CURVE SMOOTH",
"401 0 LINE"
);
},
{
closed = 1;
nodes = (
"371 -16 OFFCURVE",
"447 75 OFFCURVE",
"447 214 CURVE",
"392 214 LINE",
"392 110 OFFCURVE",
"335 39 OFFCURVE",
"238 39 CURVE SMOOTH",
"154 39 OFFCURVE",
"105 77 OFFCURVE",
"105 141 CURVE",
"105 211 OFFCURVE",
"159 252 OFFCURVE",
"250 252 CURVE SMOOTH",
"299 252 OFFCURVE",
"355 236 OFFCURVE",
"401 209 CURVE",
"415 264 LINE",
"376 291 OFFCURVE",
"312 307 OFFCURVE",
"242 307 CURVE SMOOTH",
"118 307 OFFCURVE",
"45 245 OFFCURVE",
"45 141 CURVE SMOOTH",
"45 42 OFFCURVE",
"118 -16 OFFCURVE",
"242 -16 CURVE SMOOTH"
);
}
);
width = 511;
},
{
associatedMasterId = "747A0BA5-337F-45E8-9896-B2CAF0968805";
layerId = "45C67C7D-FBF1-4189-85B2-8F8292167A26";
name = "21 Jun 21, 13:37";
paths = (
{
closed = 1;
nodes = (
"519 0 LINE",
"519 285 LINE SMOOTH",
"519 423 OFFCURVE",
"414 520 OFFCURVE",
"266 520 CURVE SMOOTH",
"177 520 OFFCURVE",
"80 481 OFFCURVE",
"33 426 CURVE",
"135 317 LINE",
"177 348 OFFCURVE",
"225 363 OFFCURVE",
"259 363 CURVE SMOOTH",
"319 363 OFFCURVE",
"350 316 OFFCURVE",
"350 249 CURVE SMOOTH",
"350 0 LINE"
);
},
{
closed = 1;
nodes = (
"335 -16 OFFCURVE",
"401 69 OFFCURVE",
"401 214 CURVE",
"350 191 LINE",
"350 136 OFFCURVE",
"325 104 OFFCURVE",
"283 104 CURVE SMOOTH",
"233 104 OFFCURVE",
"204 123 OFFCURVE",
"204 154 CURVE",
"204 189 OFFCURVE",
"236 209 OFFCURVE",
"291 209 CURVE SMOOTH",
"315 209 OFFCURVE",
"338 200 OFFCURVE",
"355 184 CURVE",
"378 254 LINE",
"340 287 OFFCURVE",
"282 307 OFFCURVE",
"222 307 CURVE SMOOTH",
"98 307 OFFCURVE",
"25 245 OFFCURVE",
"25 141 CURVE SMOOTH",
"25 42 OFFCURVE",
"98 -16 OFFCURVE",
"222 -16 CURVE SMOOTH"
);
}
);
width = 559;
}
);
leftKerningGroup = "round-left-lowercase";
leftMetricsKey = d;
rightKerningGroup = "round-right-lowercase";
rightMetricsKey = d;
},
{
glyphname = zero;
lastChange = "2021-06-18 08:28:53 +0000";
layers = (
{
background = {
paths = (
{
closed = 1;
nodes = (
"584 -16 OFFCURVE",
"722 135 OFFCURVE",
"722 350 CURVE SMOOTH",
"722 564 OFFCURVE",
"584 716 OFFCURVE",
"386 716 CURVE SMOOTH",
"188 716 OFFCURVE",
"50 565 OFFCURVE",
"50 350 CURVE SMOOTH",
"50 135 OFFCURVE",
"191 -16 OFFCURVE",
"389 -16 CURVE SMOOTH"
);
},
{
closed = 1;
nodes = (
"228 42 OFFCURVE",
"114 170 OFFCURVE",
"114 350 CURVE SMOOTH",
"114 530 OFFCURVE",
"227 658 OFFCURVE",
"386 658 CURVE SMOOTH",
"545 658 OFFCURVE",
"658 530 OFFCURVE",
"658 350 CURVE SMOOTH",
"658 170 OFFCURVE",
"547 42 OFFCURVE",
"389 42 CURVE SMOOTH"
);
}
);
};
layerId = m01;
paths = (
{
closed = 1;
nodes = (
"477 -16 OFFCURVE",
"588 136 OFFCURVE",
"588 350 CURVE SMOOTH",
"588 564 OFFCURVE",
"477 716 OFFCURVE",
"319 716 CURVE SMOOTH",
"161 716 OFFCURVE",
"50 564 OFFCURVE",
"50 350 CURVE SMOOTH",
"50 136 OFFCURVE",
"162 -16 OFFCURVE",
"321 -16 CURVE SMOOTH"
);
},
{
closed = 1;
nodes = (
"200 42 OFFCURVE",
"114 170 OFFCURVE",
"114 350 CURVE SMOOTH",
"114 530 OFFCURVE",
"199 658 OFFCURVE",
"319 658 CURVE SMOOTH",
"440 658 OFFCURVE",
"525 530 OFFCURVE",
"525 350 CURVE SMOOTH",
"525 170 OFFCURVE",
"440 42 OFFCURVE",
"321 42 CURVE SMOOTH"
);
}
);
width = 638;
},
{
layerId = "747A0BA5-337F-45E8-9896-B2CAF0968805";
paths = (
{
closed = 1;
nodes = (
"511 -16 OFFCURVE",
"635 135 OFFCURVE",
"635 350 CURVE SMOOTH",
"635 565 OFFCURVE",
"510 716 OFFCURVE",
"332 716 CURVE SMOOTH",
"155 716 OFFCURVE",
"30 565 OFFCURVE",
"30 350 CURVE SMOOTH",
"30 135 OFFCURVE",
"156 -16 OFFCURVE",
"334 -16 CURVE SMOOTH"
);
},
{
closed = 1;
nodes = (
"266 156 OFFCURVE",
"219 236 OFFCURVE",
"219 350 CURVE SMOOTH",
"219 465 OFFCURVE",
"266 546 OFFCURVE",
"332 546 CURVE SMOOTH",
"404 546 OFFCURVE",
"455 465 OFFCURVE",
"455 350 CURVE SMOOTH",
"455 236 OFFCURVE",
"405 156 OFFCURVE",
"334 156 CURVE SMOOTH"
);
}
);
width = 665;
},
{
associatedMasterId = "747A0BA5-337F-45E8-9896-B2CAF0968805";
layerId = "BE5E8306-7BA2-4AC7-9CC2-2EDC14BD4F44";
name = "16 Jun 21, 22:16";
paths = (
{
closed = 1;
nodes = (
"558 -16 OFFCURVE",
"695 136 OFFCURVE",
"695 350 CURVE SMOOTH",
"695 564 OFFCURVE",
"557 716 OFFCURVE",
"362 716 CURVE SMOOTH",
"168 716 OFFCURVE",
"30 564 OFFCURVE",
"30 350 CURVE SMOOTH",
"30 136 OFFCURVE",
"168 -16 OFFCURVE",
"364 -16 CURVE SMOOTH"
);
},
{
closed = 1;
nodes = (
"280 164 OFFCURVE",
"220 241 OFFCURVE",
"220 350 CURVE SMOOTH",
"220 459 OFFCURVE",
"279 536 OFFCURVE",
"362 536 CURVE SMOOTH",
"446 536 OFFCURVE",
"505 459 OFFCURVE",
"505 350 CURVE SMOOTH",
"505 241 OFFCURVE",
"447 164 OFFCURVE",
"364 164 CURVE SMOOTH"
);
}
);
width = 725;
}
);
leftMetricsKey = O;
rightMetricsKey = O;
unicode = 0030;
},
{
glyphname = one;
lastChange = "2021-06-25 18:14:39 +0000";
layers = (
{
layerId = m01;
paths = (
{
closed = 1;
nodes = (
"272 0 LINE",
"274 700 LINE",
"210 700 LINE",
"210 666 LINE",
"208 0 LINE"
);
},
{
closed = 1;
nodes = (
"102 567 LINE",
"242 649 LINE",
"210 700 LINE",
"70 618 LINE"
);
}
);
width = 374;
},
{
layerId = "747A0BA5-337F-45E8-9896-B2CAF0968805";
paths = (
{
closed = 1;
nodes = (
"343 0 LINE",
"343 700 LINE",
"187 700 LINE",
"168 601 LINE",
"168 0 LINE"
);
},
{
closed = 1;
nodes = (
"83 467 LINE",
"251 575 LINE",
"187 700 LINE",
"5 591 LINE"
);
}
);
width = 403;
}
);
unicode = 0031;
},
{
glyphname = two;
lastChange = "2021-06-28 03:57:22 +0000";
layers = (
{
background = {
paths = (
{
closed = 1;
nodes = (
"491 622 OFFCURVE",
"387 715 OFFCURVE",
"241 715 CURVE SMOOTH",
"163 715 OFFCURVE",
"80 673 OFFCURVE",
"40 614 CURVE",
"89 576 LINE",
"118 623 OFFCURVE",
"181 657 OFFCURVE",
"241 657 CURVE SMOOTH",
"350 657 OFFCURVE",
"427 575 OFFCURVE",
"427 460 CURVE SMOOTH",
"427 2 LINE",
"491 2 LINE",
"491 490 LINE"
);
}
);
};
layerId = m01;
paths = (
{
closed = 1;
nodes = (
"45 0 LINE",
"486 0 LINE",
"486 58 LINE",
"87 58 LINE",
"45 58 LINE"
);
},
{
closed = 1;
nodes = (
"233 146 LINE",
"393 296 OFFCURVE",
"479 407 OFFCURVE",
"479 511 CURVE",
"479 632 OFFCURVE",
"378 717 OFFCURVE",
"239 717 CURVE SMOOTH",
"157 717 OFFCURVE",
"75 673 OFFCURVE",
"32 611 CURVE",
"81 573 LINE",
"112 623 OFFCURVE",
"179 659 OFFCURVE",
"243 659 CURVE SMOOTH",
"344 659 OFFCURVE",
"415 599 OFFCURVE",
"415 513 CURVE",
"415 426 OFFCURVE",
"336 333 OFFCURVE",
"183 184 CURVE",
"45 58 LINE",
"89 16 LINE"
);
}
);
width = 536;
},
{
background = {
paths = (
{
closed = 1;
nodes = (
"317 411 OFFCURVE",
"346 440 OFFCURVE",
"346 476 CURVE SMOOTH",
"346 511 OFFCURVE",
"317 540 OFFCURVE",
"282 540 CURVE SMOOTH",
"246 540 OFFCURVE",
"217 511 OFFCURVE",
"217 476 CURVE SMOOTH",
"217 440 OFFCURVE",
"246 411 OFFCURVE",
"282 411 CURVE SMOOTH"
);
}
);
};
layerId = "747A0BA5-337F-45E8-9896-B2CAF0968805";
paths = (
{
closed = 1;
nodes = (
"52 0 LINE",
"535 0 LINE",
"535 150 LINE",
"169 150 LINE",
"52 160 LINE"
);
},
{
closed = 1;
nodes = (
"280 151 LINE",
"431 264 OFFCURVE",
"523 361 OFFCURVE",
"523 465 CURVE SMOOTH",
"523 612 OFFCURVE",
"427 713 OFFCURVE",
"272 713 CURVE SMOOTH",
"183 713 OFFCURVE",
"82 658 OFFCURVE",
"39 583 CURVE",
"200 503 LINE",
"218 535 OFFCURVE",
"245 546 OFFCURVE",
"272 546 CURVE SMOOTH",
"330 546 OFFCURVE",
"348 503 OFFCURVE",
"348 460 CURVE",
"348 407 OFFCURVE",
"259 331 OFFCURVE",
"164 258 CURVE",
"52 160 LINE",
"162 46 LINE"
);
}
);
width = 588;
},
{
associatedMasterId = "747A0BA5-337F-45E8-9896-B2CAF0968805";
background = {
paths = (
{
closed = 1;
nodes = (
"317 411 OFFCURVE",
"346 440 OFFCURVE",
"346 476 CURVE SMOOTH",
"346 511 OFFCURVE",
"317 540 OFFCURVE",
"282 540 CURVE SMOOTH",
"246 540 OFFCURVE",
"217 511 OFFCURVE",
"217 476 CURVE SMOOTH",
"217 440 OFFCURVE",
"246 411 OFFCURVE",
"282 411 CURVE SMOOTH"
);
}
);
};
layerId = "929CAB2D-CF57-4F54-934C-F0BD16D06C3B";
name = "16 Jun 21, 21:49";
paths = (
{
closed = 1;
nodes = (
"52 0 LINE",
"537 0 LINE",
"537 147 LINE",
"169 147 LINE",
"52 160 LINE"
);
},
{
closed = 1;
nodes = (
"280 148 LINE",
"431 261 OFFCURVE",
"538 358 OFFCURVE",
"538 462 CURVE",
"538 609 OFFCURVE",
"427 713 OFFCURVE",
"272 713 CURVE SMOOTH",
"180 713 OFFCURVE",
"80 664 OFFCURVE",
"31 596 CURVE",
"175 484 LINE",
"208 512 OFFCURVE",
"229 540 OFFCURVE",
"282 540 CURVE SMOOTH",
"327 540 OFFCURVE",
"348 503 OFFCURVE",
"348 460 CURVE",
"348 409 OFFCURVE",
"259 331 OFFCURVE",
"164 258 CURVE",
"52 160 LINE",
"162 46 LINE"
);
}
);
width = 588;
}
);
unicode = 0032;
},
{
glyphname = three;
lastChange = "2021-06-28 03:54:17 +0000";
layers = (
{
background = {
paths = (
{
closed = 1;
nodes = (
"115 584 LINE",
"139 615 OFFCURVE",
"179 658 OFFCURVE",
"260 658 CURVE SMOOTH",
"360 658 OFFCURVE",
"425 592 OFFCURVE",
"425 505 CURVE SMOOTH",
"425 402 OFFCURVE",
"331 347 OFFCURVE",
"189 350 CURVE",
"189 294 LINE",
"364 294 OFFCURVE",
"489 367 OFFCURVE",
"489 507 CURVE SMOOTH",
"489 631 OFFCURVE",
"392 716 OFFCURVE",
"264 716 CURVE SMOOTH",
"169 716 OFFCURVE",
"104 667 OFFCURVE",
"67 624 CURVE"
);
},
{
closed = 1;
nodes = (
"115 21 OFFCURVE",
"176 -15 OFFCURVE",
"262 -15 CURVE SMOOTH",
"382 -15 OFFCURVE",
"470 67 OFFCURVE",
"470 167 CURVE SMOOTH",
"470 283 OFFCURVE",
"353 350 OFFCURVE",
"189 350 CURVE",
"189 293 LINE",
"318 297 OFFCURVE",
"406 249 OFFCURVE",
"406 168 CURVE SMOOTH",
"406 102 OFFCURVE",
"348 43 OFFCURVE",
"258 43 CURVE SMOOTH",
"200 43 OFFCURVE",
"155 68 OFFCURVE",
"119 108 CURVE",
"72 73 LINE"
);
}
);
};
layerId = m01;
paths = (
{
closed = 1;
nodes = (
"104 34 OFFCURVE",
"169 -15 OFFCURVE",
"264 -15 CURVE SMOOTH",
"392 -15 OFFCURVE",
"489 70 OFFCURVE",
"489 194 CURVE SMOOTH",
"489 334 OFFCURVE",
"364 407 OFFCURVE",
"189 407 CURVE",
"189 351 LINE",
"331 354 OFFCURVE",
"425 299 OFFCURVE",
"425 196 CURVE SMOOTH",
"425 109 OFFCURVE",
"360 43 OFFCURVE",
"260 43 CURVE SMOOTH",
"179 43 OFFCURVE",
"139 86 OFFCURVE",
"115 117 CURVE",
"67 77 LINE"
);
},
{
closed = 1;
nodes = (
"119 593 LINE",
"155 633 OFFCURVE",
"200 658 OFFCURVE",
"258 658 CURVE SMOOTH",
"348 658 OFFCURVE",
"406 599 OFFCURVE",
"406 533 CURVE SMOOTH",
"406 452 OFFCURVE",
"318 404 OFFCURVE",
"189 408 CURVE",
"189 351 LINE",
"353 351 OFFCURVE",
"470 418 OFFCURVE",
"470 534 CURVE SMOOTH",
"470 634 OFFCURVE",
"382 716 OFFCURVE",
"262 716 CURVE SMOOTH",
"178 716 OFFCURVE",
"117 681 OFFCURVE",
"75 631 CURVE"
);
}
);
width = 539;
},
{
background = {
paths = (
{
closed = 1;
nodes = (
"214 140 OFFCURVE",
"181 169 OFFCURVE",
"181 209 CURVE SMOOTH",
"181 257 OFFCURVE",
"214 290 OFFCURVE",
"260 290 CURVE SMOOTH",
"307 290 OFFCURVE",
"341 257 OFFCURVE",
"341 209 CURVE SMOOTH",
"341 169 OFFCURVE",
"307 140 OFFCURVE",
"260 140 CURVE SMOOTH"
);
},
{
closed = 1;
nodes = (
"216 427 OFFCURVE",
"186 457 OFFCURVE",
"186 499 CURVE SMOOTH",
"186 539 OFFCURVE",
"216 567 OFFCURVE",
"260 567 CURVE SMOOTH",
"304 567 OFFCURVE",
"336 539 OFFCURVE",
"336 499 CURVE SMOOTH",
"336 457 OFFCURVE",
"304 427 OFFCURVE",
"260 427 CURVE SMOOTH"
);
}
);
};
layerId = "747A0BA5-337F-45E8-9896-B2CAF0968805";
paths = (
{
closed = 1;
nodes = (
"58 58 OFFCURVE",
"161 -15 OFFCURVE",
"275 -15 CURVE SMOOTH",
"399 -15 OFFCURVE",
"520 55 OFFCURVE",
"520 186 CURVE SMOOTH",
"520 317 OFFCURVE",
"387 410 OFFCURVE",
"207 400 CURVE",
"207 296 LINE",
"327 298 OFFCURVE",
"342 250 OFFCURVE",
"342 212 CURVE SMOOTH",
"342 168 OFFCURVE",
"310 138 OFFCURVE",
"264 138 CURVE SMOOTH",
"202 138 OFFCURVE",
"178 185 OFFCURVE",
"165 204 CURVE",
"20 136 LINE"
);
},
{
closed = 1;
nodes = (
"191 525 LINE",
"204 557 OFFCURVE",
"236 567 OFFCURVE",
"260 567 CURVE SMOOTH",
"304 567 OFFCURVE",
"336 539 OFFCURVE",
"336 499 CURVE SMOOTH",
"336 449 OFFCURVE",
"305 423 OFFCURVE",
"207 423 CURVE",
"207 325 LINE",
"384 315 OFFCURVE",
"506 392 OFFCURVE",
"506 524 CURVE SMOOTH",
"506 638 OFFCURVE",
"410 714 OFFCURVE",
"267 714 CURVE SMOOTH",
"167 714 OFFCURVE",
"80 666 OFFCURVE",
"44 599 CURVE"
);
}
);
width = 570;
},
{
associatedMasterId = "747A0BA5-337F-45E8-9896-B2CAF0968805";
background = {
paths = (
{
closed = 1;
nodes = (
"439 -16 OFFCURVE",
"528 65 OFFCURVE",
"528 180 CURVE SMOOTH",
"528 307 OFFCURVE",
"439 397 OFFCURVE",
"257 396 CURVE SMOOTH",
"75 397 OFFCURVE",
"-12 307 OFFCURVE",
"-12 180 CURVE SMOOTH",
"-12 65 OFFCURVE",
"75 -16 OFFCURVE",
"257 -16 CURVE SMOOTH"
);
},
{
closed = 1;
nodes = (
"211 130 OFFCURVE",
"178 159 OFFCURVE",
"178 199 CURVE SMOOTH",
"178 247 OFFCURVE",
"211 280 OFFCURVE",
"257 280 CURVE SMOOTH",
"304 280 OFFCURVE",
"338 247 OFFCURVE",
"338 199 CURVE SMOOTH",
"338 159 OFFCURVE",
"304 130 OFFCURVE",
"257 130 CURVE SMOOTH"
);
},
{
closed = 1;
nodes = (
"423 337 OFFCURVE",
"513 414 OFFCURVE",
"513 524 CURVE SMOOTH",
"513 636 OFFCURVE",
"423 716 OFFCURVE",
"257 716 CURVE SMOOTH",
"91 716 OFFCURVE",
"3 636 OFFCURVE",
"3 524 CURVE SMOOTH",
"3 414 OFFCURVE",
"91 337 OFFCURVE",
"257 337 CURVE SMOOTH"
);
},
{
closed = 1;
nodes = (
"213 436 OFFCURVE",
"183 466 OFFCURVE",
"183 508 CURVE SMOOTH",
"183 548 OFFCURVE",
"213 576 OFFCURVE",
"257 576 CURVE SMOOTH",
"301 576 OFFCURVE",
"333 548 OFFCURVE",
"333 508 CURVE SMOOTH",
"333 466 OFFCURVE",
"301 436 OFFCURVE",
"257 436 CURVE SMOOTH"
);
}
);
};
layerId = "5858A055-E4A5-4A27-B5E4-C1A0FFEB4DA1";
name = "16 Jun 21, 21:50";
paths = (
{
closed = 1;
nodes = (
"59 47 OFFCURVE",
"157 -15 OFFCURVE",
"260 -15 CURVE SMOOTH",
"417 -15 OFFCURVE",
"528 66 OFFCURVE",
"528 180 CURVE SMOOTH",
"528 317 OFFCURVE",
"398 414 OFFCURVE",
"201 414 CURVE",
"201 290 LINE",
"247 290 LINE",
"301 290 OFFCURVE",
"340 258 OFFCURVE",
"340 212 CURVE SMOOTH",
"340 167 OFFCURVE",
"307 135 OFFCURVE",
"260 135 CURVE SMOOTH",
"209 135 OFFCURVE",
"167 164 OFFCURVE",
"158 207 CURVE",
"26 136 LINE"
);
},
{
closed = 1;
nodes = (
"184 525 LINE",
"198 551 OFFCURVE",
"228 564 OFFCURVE",
"253 564 CURVE SMOOTH",
"290 564 OFFCURVE",
"317 543 OFFCURVE",
"317 507 CURVE SMOOTH",
"317 464 OFFCURVE",
"285 434 OFFCURVE",
"239 434 CURVE SMOOTH",
"201 434 LINE",
"201 300 LINE",
"384 300 OFFCURVE",
"513 393 OFFCURVE",
"513 524 CURVE SMOOTH",
"513 635 OFFCURVE",
"412 714 OFFCURVE",
"270 714 CURVE SMOOTH",
"164 714 OFFCURVE",
"69 672 OFFCURVE",
"40 613 CURVE"
);
}
);
width = 581;
},
{
associatedMasterId = m01;
layerId = "69F78BCB-FB56-4585-852F-31B816FA578B";
name = "16 Jun 21, 22:04";
paths = (
{
closed = 1;
nodes = (
"70 45 OFFCURVE",
"160 -15 OFFCURVE",
"258 -15 CURVE SMOOTH",
"393 -15 OFFCURVE",
"489 76 OFFCURVE",
"489 205 CURVE SMOOTH",
"489 321 OFFCURVE",
"365 403 OFFCURVE",
"189 403 CURVE",
"189 345 LINE",
"194 345 LINE SMOOTH",
"329 344 OFFCURVE",
"425 286 OFFCURVE",
"425 205 CURVE SMOOTH",
"425 110 OFFCURVE",
"356 43 OFFCURVE",
"258 43 CURVE SMOOTH",
"176 43 OFFCURVE",
"108 92 OFFCURVE",
"94 161 CURVE",
"40 129 LINE"
);
},
{
closed = 1;
nodes = (
"110 569 LINE",
"126 621 OFFCURVE",
"187 658 OFFCURVE",
"258 658 CURVE SMOOTH",
"345 658 OFFCURVE",
"406 604 OFFCURVE",
"406 527 CURVE SMOOTH",
"406 455 OFFCURVE",
"318 403 OFFCURVE",
"194 402 CURVE",
"189 402 LINE",
"189 346 LINE",
"354 346 OFFCURVE",
"470 421 OFFCURVE",
"470 528 CURVE SMOOTH",
"470 638 OFFCURVE",
"382 716 OFFCURVE",
"258 716 CURVE SMOOTH",
"174 716 OFFCURVE",
"92 670 OFFCURVE",
"60 604 CURVE"
);
}
);
width = 539;
}
);
unicode = 0033;
},
{
glyphname = four;
lastChange = "2021-06-26 01:03:35 +0000";
layers = (
{
layerId = m01;
paths = (
{
closed = 1;
nodes = (
"428 0 LINE",
"428 700 LINE",
"365 700 LINE",
"365 660 LINE",
"365 0 LINE"
);
},
{
closed = 1;
nodes = (
"50 182 LINE",
"569 182 LINE",
"569 241 LINE",
"88 241 LINE",
"50 241 LINE"
);
},
{
closed = 1;
nodes = (
"98 208 LINE",
"409 664 LINE",
"365 700 LINE",
"50 241 LINE"
);
}
);
width = 609;
},
{
layerId = "747A0BA5-337F-45E8-9896-B2CAF0968805";
paths = (
{
closed = 1;
nodes = (
"516 0 LINE",
"516 700 LINE",
"327 700 LINE",
"347 605 LINE",
"347 0 LINE"
);
},
{
closed = 1;
nodes = (
"30 110 LINE",
"589 110 LINE",
"589 255 LINE",
"122 255 LINE",
"30 265 LINE"
);
},
{
closed = 1;
nodes = (
"156 197 LINE",
"424 596 LINE",
"326 700 LINE",
"30 265 LINE"
);
}
);
width = 619;
}
);
unicode = 0034;
},
{
glyphname = five;
lastChange = "2021-06-28 03:52:42 +0000";
layers = (
{
layerId = m01;
paths = (
{
closed = 1;
nodes = (
"119 16 OFFCURVE",
"212 -16 OFFCURVE",
"289 -16 CURVE SMOOTH",
"425 -16 OFFCURVE",
"522 78 OFFCURVE",
"522 210 CURVE SMOOTH",
"522 342 OFFCURVE",
"427 437 OFFCURVE",
"294 437 CURVE SMOOTH",
"218 437 OFFCURVE",
"135 395 OFFCURVE",
"95 335 CURVE",
"157 335 LINE",
"189 698 LINE",
"125 698 LINE",
"125 642 LINE",
"490 642 LINE",
"490 700 LINE",
"125 700 LINE",
"95 335 LINE",
"153 321 LINE",
"182 355 OFFCURVE",
"240 381 OFFCURVE",
"294 381 CURVE SMOOTH",
"392 381 OFFCURVE",
"460 311 OFFCURVE",
"460 210 CURVE SMOOTH",
"460 110 OFFCURVE",
"390 40 OFFCURVE",
"289 40 CURVE SMOOTH",
"225 40 OFFCURVE",
"164 68 OFFCURVE",
"110 132 CURVE",
"65 93 LINE"
);
}
);
width = 572;
},
{
background = {
paths = (
{
closed = 1;
nodes = (
"204 269 OFFCURVE",
"240 304 OFFCURVE",
"285 304 CURVE SMOOTH",
"329 304 OFFCURVE",
"364 269 OFFCURVE",
"364 225 CURVE SMOOTH",
"364 183 OFFCURVE",
"329 150 OFFCURVE",
"285 150 CURVE SMOOTH",
"240 150 OFFCURVE",
"204 183 OFFCURVE",
"204 225 CURVE SMOOTH"
);
}
);
};
layerId = "747A0BA5-337F-45E8-9896-B2CAF0968805";
paths = (
{
closed = 1;
nodes = (
"92 34 OFFCURVE",
"191 -16 OFFCURVE",
"285 -16 CURVE SMOOTH",
"433 -16 OFFCURVE",
"537 90 OFFCURVE",
"537 239 CURVE SMOOTH",
"537 366 OFFCURVE",
"450 452 OFFCURVE",
"347 456 CURVE SMOOTH",
"238 460 OFFCURVE",
"140 343 OFFCURVE",
"125 298 CURVE",
"201 283 LINE",
"271 694 LINE",
"88 694 LINE",
"120 537 LINE",
"504 537 LINE",
"504 700 LINE",
"88 700 LINE",
"38 305 LINE",
"216 269 LINE",
"228 287 OFFCURVE",
"258 303 OFFCURVE",
"288 303 CURVE SMOOTH",
"333 303 OFFCURVE",
"364 273 OFFCURVE",
"364 225 CURVE SMOOTH",
"364 182 OFFCURVE",
"330 152 OFFCURVE",
"281 152 CURVE SMOOTH",
"253 152 OFFCURVE",
"226 167 OFFCURVE",
"216 188 CURVE",
"45 104 LINE"
);
}
);
width = 567;
},
{
associatedMasterId = "747A0BA5-337F-45E8-9896-B2CAF0968805";
background = {
paths = (
{
closed = 1;
nodes = (
"314 150 OFFCURVE",
"344 180 OFFCURVE",
"344 217 CURVE SMOOTH",
"344 253 OFFCURVE",
"314 283 OFFCURVE",
"278 283 CURVE SMOOTH",
"241 283 OFFCURVE",
"211 253 OFFCURVE",
"211 217 CURVE SMOOTH",
"211 180 OFFCURVE",
"241 150 OFFCURVE",
"278 150 CURVE SMOOTH"
);
}
);
};
layerId = "28C4825A-2F02-4BC9-AE4A-319046E5176A";
name = "16 Jun 21, 21:37";
paths = (
{
closed = 1;
nodes = (
"100 33 OFFCURVE",
"204 -16 OFFCURVE",
"292 -16 CURVE SMOOTH",
"436 -16 OFFCURVE",
"537 78 OFFCURVE",
"537 210 CURVE SMOOTH",
"537 343 OFFCURVE",
"438 437 OFFCURVE",
"298 437 CURVE SMOOTH",
"219 437 OFFCURVE",
"122 382 OFFCURVE",
"63 304 CURVE",
"243 297 LINE",
"276 694 LINE",
"88 694 LINE",
"120 537 LINE",
"504 537 LINE",
"504 700 LINE",
"88 700 LINE",
"56 305 LINE",
"219 251 LINE",
"230 270 OFFCURVE",
"256 283 OFFCURVE",
"281 283 CURVE SMOOTH",
"318 283 OFFCURVE",
"344 256 OFFCURVE",
"344 217 CURVE SMOOTH",
"344 178 OFFCURVE",
"318 150 OFFCURVE",
"281 150 CURVE SMOOTH",
"253 150 OFFCURVE",
"226 166 OFFCURVE",
"216 188 CURVE",
"40 103 LINE"
);
}
);
width = 567;
}
);
unicode = 0035;
},
{
glyphname = six;
lastChange = "2021-06-25 17:16:19 +0000";
layers = (
{
background = {
paths = (
{
closed = 0;
nodes = (
"65 211 LINE",
"65 78 OFFCURVE",
"162 -16 OFFCURVE",
"298 -16 CURVE SMOOTH"
);
}
);
};
layerId = m01;
paths = (
{
closed = 1;
nodes = (
"434 -16 OFFCURVE",
"530 78 OFFCURVE",
"530 211 CURVE SMOOTH",
"530 343 OFFCURVE",
"434 437 OFFCURVE",
"298 437 CURVE SMOOTH",
"199 437 OFFCURVE",
"122 384 OFFCURVE",
"90 300 CURVE",
"104 283 LINE",
"94 521 OFFCURVE",
"176 658 OFFCURVE",
"321 658 CURVE SMOOTH",
"369 658 OFFCURVE",
"422 640 OFFCURVE",
"465 609 CURVE",
"504 654 LINE",
"451 693 OFFCURVE",
"379 716 OFFCURVE",
"311 716 CURVE SMOOTH",
"143 716 OFFCURVE",
"48 573 OFFCURVE",
"48 334 CURVE SMOOTH",
"48 150 OFFCURVE",
"102 -16 OFFCURVE",
"298 -16 CURVE SMOOTH"
);
},
{
closed = 1;
nodes = (
"129 309 OFFCURVE",
"199 379 OFFCURVE",
"298 379 CURVE SMOOTH",
"396 379 OFFCURVE",
"466 309 OFFCURVE",
"466 211 CURVE SMOOTH",
"466 112 OFFCURVE",
"396 42 OFFCURVE",
"298 42 CURVE SMOOTH",
"199 42 OFFCURVE",
"129 112 OFFCURVE",
"129 211 CURVE SMOOTH"
);
}
);
width = 560;
},
{
background = {
paths = (
{
closed = 0;
nodes = (
"53 217 LINE",
"53 91 OFFCURVE",
"170 -16 OFFCURVE",
"309 -16 CURVE SMOOTH"
);
}
);
};
layerId = "747A0BA5-337F-45E8-9896-B2CAF0968805";
paths = (
{
closed = 1;
nodes = (
"468 -16 OFFCURVE",
"564 82 OFFCURVE",
"564 209 CURVE SMOOTH",
"564 333 OFFCURVE",
"473 435 OFFCURVE",
"345 435 CURVE SMOOTH",
"255 435 OFFCURVE",
"215 384 OFFCURVE",
"186 322 CURVE",
"205 322 LINE",
"205 500 OFFCURVE",
"255 556 OFFCURVE",
"345 556 CURVE SMOOTH",
"378 556 OFFCURVE",
"415 551 OFFCURVE",
"450 523 CURVE",
"542 652 LINE",
"489 691 OFFCURVE",
"418 714 OFFCURVE",
"347 714 CURVE SMOOTH",
"95 714 OFFCURVE",
"45 469 OFFCURVE",
"45 305 CURVE SMOOTH",
"45 124 OFFCURVE",
"131 -16 OFFCURVE",
"314 -16 CURVE SMOOTH"
);
},
{
closed = 1;
nodes = (
"234 259 OFFCURVE",
"270 294 OFFCURVE",
"315 294 CURVE SMOOTH",
"359 294 OFFCURVE",
"394 259 OFFCURVE",
"394 215 CURVE SMOOTH",
"394 173 OFFCURVE",
"359 140 OFFCURVE",
"315 140 CURVE SMOOTH",
"270 140 OFFCURVE",
"234 173 OFFCURVE",
"234 215 CURVE SMOOTH"
);
}
);
width = 594;
},
{
associatedMasterId = "747A0BA5-337F-45E8-9896-B2CAF0968805";
background = {
paths = (
{
closed = 0;
nodes = (
"53 217 LINE",
"53 91 OFFCURVE",
"170 -16 OFFCURVE",
"309 -16 CURVE SMOOTH"
);
}
);
};
layerId = "B53FA7EA-42AA-40C9-BF76-8CE3E8D46E84";
name = "16 Jun 21, 20:24";
paths = (
{
closed = 1;
nodes = (
"447 -16 OFFCURVE",
"564 91 OFFCURVE",
"564 217 CURVE SMOOTH",
"564 343 OFFCURVE",
"454 450 OFFCURVE",
"323 450 CURVE SMOOTH",
"223 450 OFFCURVE",
"129 343 OFFCURVE",
"119 217 CURVE",
"56 180 LINE",
"76 74 OFFCURVE",
"180 -16 OFFCURVE",
"309 -16 CURVE SMOOTH"
);
},
{
closed = 1;
nodes = (
"272 151 OFFCURVE",
"243 180 OFFCURVE",
"243 217 CURVE SMOOTH",
"243 253 OFFCURVE",
"272 282 OFFCURVE",
"309 282 CURVE SMOOTH",
"345 282 OFFCURVE",
"374 253 OFFCURVE",
"374 217 CURVE SMOOTH",
"374 180 OFFCURVE",
"345 151 OFFCURVE",
"309 151 CURVE SMOOTH"
);
},
{
closed = 1;
nodes = (
"206 195 LINE",
"188 421 OFFCURVE",
"245 554 OFFCURVE",
"359 554 CURVE SMOOTH",
"383 554 OFFCURVE",
"417 542 OFFCURVE",
"450 523 CURVE",
"542 652 LINE",
"489 691 OFFCURVE",
"417 714 OFFCURVE",
"349 714 CURVE SMOOTH",
"142 714 OFFCURVE",
"38 543 OFFCURVE",
"38 335 CURVE SMOOTH",
"38 285 OFFCURVE",
"38 236 OFFCURVE",
"56 180 CURVE"
);
}
);
width = 594;
},
{
associatedMasterId = m01;
background = {
paths = (
{
closed = 0;
nodes = (
"65 211 LINE",
"65 78 OFFCURVE",
"162 -16 OFFCURVE",
"298 -16 CURVE SMOOTH"
);
}
);
};
layerId = "EA0B3C30-4F11-4A04-AE54-5020CFB11B9D";
name = "16 Jun 21, 21:24";
paths = (
{
closed = 1;
nodes = (
"434 -16 OFFCURVE",
"530 78 OFFCURVE",
"530 211 CURVE SMOOTH",
"530 343 OFFCURVE",
"434 437 OFFCURVE",
"298 437 CURVE SMOOTH",
"167 437 OFFCURVE",
"75 343 OFFCURVE",
"75 211 CURVE",
"69 163 LINE",
"95 51 OFFCURVE",
"180 -16 OFFCURVE",
"298 -16 CURVE SMOOTH"
);
},
{
closed = 1;
nodes = (
"199 42 OFFCURVE",
"129 112 OFFCURVE",
"129 211 CURVE SMOOTH",
"129 309 OFFCURVE",
"199 379 OFFCURVE",
"298 379 CURVE SMOOTH",
"396 379 OFFCURVE",
"466 309 OFFCURVE",
"466 211 CURVE SMOOTH",
"466 112 OFFCURVE",
"396 42 OFFCURVE",
"298 42 CURVE SMOOTH"
);
},
{
closed = 1;
nodes = (
"114 171 LINE",
"72 477 OFFCURVE",
"154 658 OFFCURVE",
"321 658 CURVE SMOOTH",
"369 658 OFFCURVE",
"422 640 OFFCURVE",
"465 609 CURVE",
"504 654 LINE",
"451 693 OFFCURVE",
"379 716 OFFCURVE",
"311 716 CURVE SMOOTH",
"143 716 OFFCURVE",
"48 573 OFFCURVE",
"48 334 CURVE SMOOTH",
"48 281 OFFCURVE",
"52 224 OFFCURVE",
"69 163 CURVE"
);
}
);
width = 560;
}
);
unicode = 0036;
},
{
glyphname = seven;
lastChange = "2021-06-16 12:45:24 +0000";
layers = (
{
layerId = m01;
paths = (
{
closed = 1;
nodes = (
"45 642 LINE",
"430 642 LINE",
"500 642 LINE",
"500 700 LINE",
"45 700 LINE"
);
},
{
closed = 1;
nodes = (
"77 0 LINE",
"148 0 LINE",
"500 642 LINE",
"446 672 LINE"
);
}
);
width = 530;
},
{
layerId = "747A0BA5-337F-45E8-9896-B2CAF0968805";
paths = (
{
closed = 1;
nodes = (
"40 540 LINE",
"365 540 LINE",
"558 560 LINE",
"558 700 LINE",
"40 700 LINE"
);
},
{
closed = 1;
nodes = (
"74 0 LINE",
"269 0 LINE",
"558 560 LINE",
"365 540 LINE"
);
}
);
width = 568;
}
);
unicode = 0037;
},
{
glyphname = eight;
lastChange = "2021-06-16 12:42:16 +0000";
layers = (
{
layerId = m01;
paths = (
{
closed = 1;
nodes = (
"452 -16 OFFCURVE",
"555 65 OFFCURVE",
"555 180 CURVE SMOOTH",
"555 299 OFFCURVE",
"452 384 OFFCURVE",
"307 384 CURVE SMOOTH",
"162 384 OFFCURVE",
"60 299 OFFCURVE",
"60 180 CURVE SMOOTH",
"60 65 OFFCURVE",
"162 -16 OFFCURVE",
"307 -16 CURVE SMOOTH"
);
},
{
closed = 1;
nodes = (
"200 42 OFFCURVE",
"124 101 OFFCURVE",
"124 184 CURVE SMOOTH",
"124 268 OFFCURVE",
"200 327 OFFCURVE",
"307 327 CURVE SMOOTH",
"415 327 OFFCURVE",
"491 268 OFFCURVE",
"491 184 CURVE SMOOTH",
"491 101 OFFCURVE",
"415 42 OFFCURVE",
"307 42 CURVE SMOOTH"
);
},
{
closed = 1;
nodes = (
"436 337 OFFCURVE",
"528 414 OFFCURVE",
"528 524 CURVE SMOOTH",
"528 636 OFFCURVE",
"436 716 OFFCURVE",
"307 716 CURVE SMOOTH",
"178 716 OFFCURVE",
"87 636 OFFCURVE",
"87 524 CURVE SMOOTH",
"87 414 OFFCURVE",
"178 337 OFFCURVE",
"307 337 CURVE SMOOTH"
);
},
{
closed = 1;
nodes = (
"216 394 OFFCURVE",
"151 446 OFFCURVE",
"151 519 CURVE SMOOTH",
"151 600 OFFCURVE",
"216 658 OFFCURVE",
"307 658 CURVE SMOOTH",
"399 658 OFFCURVE",
"464 600 OFFCURVE",
"464 519 CURVE SMOOTH",
"464 446 OFFCURVE",
"399 394 OFFCURVE",
"307 394 CURVE SMOOTH"
);
}
);
width = 615;
},
{
layerId = "747A0BA5-337F-45E8-9896-B2CAF0968805";
paths = (
{
closed = 1;
nodes = (
"481 -16 OFFCURVE",
"570 65 OFFCURVE",
"570 180 CURVE SMOOTH",
"570 307 OFFCURVE",
"481 397 OFFCURVE",
"299 396 CURVE SMOOTH",
"117 397 OFFCURVE",
"30 307 OFFCURVE",
"30 180 CURVE SMOOTH",
"30 65 OFFCURVE",
"117 -16 OFFCURVE",
"299 -16 CURVE SMOOTH"
);
},
{
closed = 1;
nodes = (
"253 140 OFFCURVE",
"220 169 OFFCURVE",
"220 209 CURVE SMOOTH",
"220 257 OFFCURVE",
"253 290 OFFCURVE",
"299 290 CURVE SMOOTH",
"346 290 OFFCURVE",
"380 257 OFFCURVE",
"380 209 CURVE SMOOTH",
"380 169 OFFCURVE",
"346 140 OFFCURVE",
"299 140 CURVE SMOOTH"
);
},
{
closed = 1;
nodes = (
"465 337 OFFCURVE",
"555 414 OFFCURVE",
"555 524 CURVE SMOOTH",
"555 636 OFFCURVE",
"465 716 OFFCURVE",
"299 716 CURVE SMOOTH",
"133 716 OFFCURVE",
"45 636 OFFCURVE",
"45 524 CURVE SMOOTH",
"45 414 OFFCURVE",
"133 337 OFFCURVE",
"299 337 CURVE SMOOTH"
);
},
{
closed = 1;
nodes = (
"255 427 OFFCURVE",
"225 457 OFFCURVE",
"225 499 CURVE SMOOTH",
"225 539 OFFCURVE",
"255 567 OFFCURVE",
"299 567 CURVE SMOOTH",
"343 567 OFFCURVE",
"375 539 OFFCURVE",
"375 499 CURVE SMOOTH",
"375 457 OFFCURVE",
"343 427 OFFCURVE",
"299 427 CURVE SMOOTH"
);
}
);
width = 600;
}
);
unicode = 0038;
},
{
glyphname = period;
lastChange = "2021-05-23 19:17:10 +0000";
layers = (
{
layerId = m01;
paths = (
{
closed = 1;
nodes = (
"121 -14 OFFCURVE",
"142 7 OFFCURVE",
"142 32 CURVE SMOOTH",
"142 57 OFFCURVE",
"121 78 OFFCURVE",
"96 78 CURVE SMOOTH",
"71 78 OFFCURVE",
"50 57 OFFCURVE",
"50 32 CURVE SMOOTH",
"50 7 OFFCURVE",
"71 -14 OFFCURVE",
"96 -14 CURVE SMOOTH"
);
}
);
width = 192;
},
{
layerId = "747A0BA5-337F-45E8-9896-B2CAF0968805";
paths = (
{
closed = 1;
nodes = (
"199 -15 OFFCURVE",
"246 32 OFFCURVE",
"246 88 CURVE SMOOTH",
"246 144 OFFCURVE",
"199 191 OFFCURVE",
"143 191 CURVE SMOOTH",
"87 191 OFFCURVE",
"40 144 OFFCURVE",
"40 88 CURVE SMOOTH",
"40 32 OFFCURVE",
"87 -15 OFFCURVE",
"143 -15 CURVE SMOOTH"
);
}
);
width = 286;
}
);
unicode = 002E;
},
{
glyphname = comma;
lastChange = "2021-06-28 05:18:58 +0000";
layers = (
{
layerId = m01;
paths = (
{
closed = 1;
nodes = (
"45 -116 LINE",
"101 -116 LINE",
"171 86 LINE",
"100 86 LINE"
);
}
);
width = 214;
},
{
layerId = "747A0BA5-337F-45E8-9896-B2CAF0968805";
paths = (
{
closed = 1;
nodes = (
"18 -113 LINE",
"148 -113 LINE",
"264 146 LINE",
"84 146 LINE"
);
}
);
width = 286;
}
);
unicode = 002C;
},
{
glyphname = colon;
lastChange = "2021-05-23 18:24:12 +0000";
layers = (
{
layerId = m01;
paths = (
{
closed = 1;
nodes = (
"143 -2 OFFCURVE",
"164 19 OFFCURVE",
"164 44 CURVE SMOOTH",
"164 69 OFFCURVE",
"143 90 OFFCURVE",
"118 90 CURVE SMOOTH",
"93 90 OFFCURVE",
"72 69 OFFCURVE",
"72 44 CURVE SMOOTH",
"72 19 OFFCURVE",
"93 -2 OFFCURVE",
"118 -2 CURVE SMOOTH"
);
},
{
closed = 1;
nodes = (
"141 410 OFFCURVE",
"162 431 OFFCURVE",
"162 456 CURVE SMOOTH",
"162 481 OFFCURVE",
"141 502 OFFCURVE",
"116 502 CURVE SMOOTH",
"91 502 OFFCURVE",
"70 481 OFFCURVE",
"70 456 CURVE SMOOTH",
"70 431 OFFCURVE",
"91 410 OFFCURVE",
"116 410 CURVE SMOOTH"
);
}
);
width = 234;
},
{
layerId = "747A0BA5-337F-45E8-9896-B2CAF0968805";
paths = (
{
closed = 1;
nodes = (
"229 -1 OFFCURVE",
"276 46 OFFCURVE",
"276 102 CURVE SMOOTH",
"276 158 OFFCURVE",
"229 205 OFFCURVE",
"173 205 CURVE SMOOTH",
"117 205 OFFCURVE",
"70 158 OFFCURVE",
"70 102 CURVE SMOOTH",
"70 46 OFFCURVE",
"117 -1 OFFCURVE",
"173 -1 CURVE SMOOTH"
);
},
{
closed = 1;
nodes = (
"229 294 OFFCURVE",
"276 341 OFFCURVE",
"276 397 CURVE SMOOTH",
"276 453 OFFCURVE",
"229 500 OFFCURVE",
"173 500 CURVE SMOOTH",
"117 500 OFFCURVE",
"70 453 OFFCURVE",
"70 397 CURVE SMOOTH",
"70 341 OFFCURVE",
"117 294 OFFCURVE",
"173 294 CURVE SMOOTH"
);
}
);
width = 346;
}
);
unicode = 003A;
},
{
glyphname = semicolon;
lastChange = "2021-06-28 05:17:43 +0000";
layers = (
{
components = (
{
name = comma;
}
);
layerId = m01;
paths = (
{
closed = 1;
nodes = (
"137 410 OFFCURVE",
"158 431 OFFCURVE",
"158 456 CURVE SMOOTH",
"158 481 OFFCURVE",
"137 502 OFFCURVE",
"112 502 CURVE SMOOTH",
"87 502 OFFCURVE",
"66 481 OFFCURVE",
"66 456 CURVE SMOOTH",
"66 431 OFFCURVE",
"87 410 OFFCURVE",
"112 410 CURVE SMOOTH"
);
}
);
width = 241;
},
{
components = (
{
name = comma;
transform = "{1, 0, 0, 1, 10, 0}";
}
);
layerId = "747A0BA5-337F-45E8-9896-B2CAF0968805";
paths = (
{
closed = 1;
nodes = (
"230 290 OFFCURVE",
"277 337 OFFCURVE",
"277 393 CURVE SMOOTH",
"277 449 OFFCURVE",
"230 496 OFFCURVE",
"174 496 CURVE SMOOTH",
"118 496 OFFCURVE",
"71 449 OFFCURVE",
"71 393 CURVE SMOOTH",
"71 337 OFFCURVE",
"118 290 OFFCURVE",
"174 290 CURVE SMOOTH"
);
}
);
width = 347;
}
);
rightMetricsKey = colon;
unicode = 003B;
},
{
glyphname = exclam;
lastChange = "2021-05-23 18:09:34 +0000";
layers = (
{
layerId = m01;
paths = (
{
closed = 1;
nodes = (
"178 193 LINE",
"178 700 LINE",
"114 700 LINE",
"114 193 LINE"
);
},
{
closed = 1;
nodes = (
"171 -14 OFFCURVE",
"192 7 OFFCURVE",
"192 32 CURVE SMOOTH",
"192 57 OFFCURVE",
"171 78 OFFCURVE",
"146 78 CURVE SMOOTH",
"121 78 OFFCURVE",
"100 57 OFFCURVE",
"100 32 CURVE SMOOTH",
"100 7 OFFCURVE",
"121 -14 OFFCURVE",
"146 -14 CURVE SMOOTH"
);
}
);
width = 292;
},
{
layerId = "747A0BA5-337F-45E8-9896-B2CAF0968805";
paths = (
{
closed = 1;
nodes = (
"258 251 LINE",
"273 700 LINE",
"73 700 LINE",
"88 251 LINE"
);
},
{
closed = 1;
nodes = (
"229 -16 OFFCURVE",
"276 31 OFFCURVE",
"276 87 CURVE SMOOTH",
"276 143 OFFCURVE",
"229 190 OFFCURVE",
"173 190 CURVE SMOOTH",
"117 190 OFFCURVE",
"70 143 OFFCURVE",
"70 87 CURVE SMOOTH",
"70 31 OFFCURVE",
"117 -16 OFFCURVE",
"173 -16 CURVE SMOOTH"
);
}
);
width = 346;
}
);
leftMetricsKey = I;
rightMetricsKey = I;
unicode = 0021;
},
{
glyphname = question;
lastChange = "2021-05-23 19:25:44 +0000";
layers = (
{
layerId = m01;
paths = (
{
closed = 1;
nodes = (
"224 284 LINE",
"351 284 OFFCURVE",
"440 375 OFFCURVE",
"440 504 CURVE SMOOTH",
"440 628 OFFCURVE",
"350 716 OFFCURVE",
"222 716 CURVE SMOOTH",
"149 716 OFFCURVE",
"73 668 OFFCURVE",
"40 601 CURVE",
"96 581 LINE",
"120 626 OFFCURVE",
"172 658 OFFCURVE",
"222 658 CURVE SMOOTH",
"312 658 OFFCURVE",
"376 594 OFFCURVE",
"376 504 CURVE SMOOTH",
"376 409 OFFCURVE",
"313 342 OFFCURVE",
"224 342 CURVE",
"180 342 LINE",
"180 284 LINE"
);
},
{
closed = 1;
nodes = (
"239 -14 OFFCURVE",
"258 5 OFFCURVE",
"258 32 CURVE SMOOTH",
"258 59 OFFCURVE",
"239 78 OFFCURVE",
"212 78 CURVE SMOOTH",
"185 78 OFFCURVE",
"166 59 OFFCURVE",
"166 32 CURVE SMOOTH",
"166 5 OFFCURVE",
"185 -14 OFFCURVE",
"212 -14 CURVE SMOOTH"
);
},
{
closed = 1;
nodes = (
"244 193 LINE",
"244 342 LINE",
"180 342 LINE",
"180 193 LINE"
);
}
);
width = 470;
},
{
layerId = "747A0BA5-337F-45E8-9896-B2CAF0968805";
paths = (
{
closed = 1;
nodes = (
"262 264 LINE SMOOTH",
"388 264 OFFCURVE",
"476 347 OFFCURVE",
"476 478 CURVE SMOOTH",
"476 617 OFFCURVE",
"375 715 OFFCURVE",
"233 715 CURVE SMOOTH",
"151 715 OFFCURVE",
"67 662 OFFCURVE",
"30 586 CURVE",
"174 512 LINE",
"183 531 OFFCURVE",
"208 545 OFFCURVE",
"233 545 CURVE SMOOTH",
"282 545 OFFCURVE",
"316 517 OFFCURVE",
"316 478 CURVE SMOOTH",
"316 420 OFFCURVE",
"283 397 OFFCURVE",
"236 392 CURVE SMOOTH",
"143 383 LINE",
"148 264 LINE"
);
},
{
closed = 1;
nodes = (
"290 -15 OFFCURVE",
"337 32 OFFCURVE",
"337 88 CURVE SMOOTH",
"337 144 OFFCURVE",
"290 191 OFFCURVE",
"234 191 CURVE SMOOTH",
"178 191 OFFCURVE",
"131 144 OFFCURVE",
"131 88 CURVE SMOOTH",
"131 32 OFFCURVE",
"178 -15 OFFCURVE",
"234 -15 CURVE SMOOTH"
);
},
{
closed = 1;
nodes = (
"318 213 LINE",
"323 342 LINE",
"145 342 LINE",
"150 213 LINE"
);
}
);
width = 496;
}
);
unicode = 003F;
},
{
glyphname = bullet;
lastChange = "2021-05-23 18:15:48 +0000";
layers = (
{
layerId = m01;
paths = (
{
closed = 1;
nodes = (
"302 183 OFFCURVE",
"348 229 OFFCURVE",
"348 282 CURVE SMOOTH",
"348 336 OFFCURVE",
"302 380 OFFCURVE",
"249 380 CURVE SMOOTH",
"195 380 OFFCURVE",
"151 336 OFFCURVE",
"151 282 CURVE SMOOTH",
"151 229 OFFCURVE",
"195 183 OFFCURVE",
"249 183 CURVE SMOOTH"
);
}
);
width = 500;
},
{
layerId = "747A0BA5-337F-45E8-9896-B2CAF0968805";
paths = (
{
closed = 1;
nodes = (
"298 155 OFFCURVE",
"358 214 OFFCURVE",
"358 288 CURVE SMOOTH",
"358 361 OFFCURVE",
"298 420 OFFCURVE",
"223 420 CURVE SMOOTH",
"149 420 OFFCURVE",
"89 361 OFFCURVE",
"89 288 CURVE SMOOTH",
"89 214 OFFCURVE",
"149 155 OFFCURVE",
"223 155 CURVE SMOOTH"
);
}
);
width = 460;
}
);
unicode = 2022;
},
{
glyphname = asterisk;
lastChange = "2021-05-23 19:32:20 +0000";
layers = (
{
layerId = m01;
paths = (
{
closed = 1;
nodes = (
"215 548 LINE",
"263 548 LINE",
"269 716 LINE",
"209 716 LINE"
);
},
{
closed = 1;
nodes = (
"232 571 LINE",
"246 525 LINE",
"408 571 LINE",
"390 628 LINE"
);
},
{
closed = 1;
nodes = (
"263 565 LINE",
"223 537 LINE",
"317 397 LINE",
"366 432 LINE"
);
},
{
closed = 1;
nodes = (
"259 533 LINE",
"220 562 LINE",
"116 430 LINE",
"165 394 LINE"
);
},
{
closed = 1;
nodes = (
"231 526 LINE",
"247 572 LINE",
"89 630 LINE",
"70 572 LINE"
);
}
);
width = 478;
},
{
layerId = "747A0BA5-337F-45E8-9896-B2CAF0968805";
paths = (
{
closed = 1;
nodes = (
"207 518 LINE",
"287 518 LINE",
"307 716 LINE",
"187 716 LINE"
);
},
{
closed = 1;
nodes = (
"235 556 LINE",
"259 480 LINE",
"454 522 LINE",
"417 636 LINE"
);
},
{
closed = 1;
nodes = (
"279 543 LINE",
"215 496 LINE",
"315 324 LINE",
"412 395 LINE"
);
},
{
closed = 1;
nodes = (
"280 495 LINE",
"215 542 LINE",
"83 393 LINE",
"180 323 LINE"
);
},
{
closed = 1;
nodes = (
"235 480 LINE",
"259 556 LINE",
"77 636 LINE",
"40 522 LINE"
);
}
);
width = 494;
}
);
unicode = 002A;
},
{
glyphname = numbersign;
lastChange = "2021-05-24 17:23:54 +0000";
layers = (
{
layerId = m01;
paths = (
{
closed = 1;
nodes = (
"118 0 LINE",
"170 0 LINE",
"280 700 LINE",
"228 700 LINE"
);
},
{
closed = 1;
nodes = (
"348 0 LINE",
"400 0 LINE",
"510 700 LINE",
"458 700 LINE"
);
},
{
closed = 1;
nodes = (
"50 458 LINE",
"612 458 LINE",
"618 500 LINE",
"56 500 LINE"
);
},
{
closed = 1;
nodes = (
"10 200 LINE",
"572 200 LINE",
"578 242 LINE",
"16 242 LINE"
);
}
);
width = 628;
},
{
layerId = "747A0BA5-337F-45E8-9896-B2CAF0968805";
paths = (
{
closed = 1;
nodes = (
"98 0 LINE",
"225 0 LINE",
"335 700 LINE",
"208 700 LINE"
);
},
{
closed = 1;
nodes = (
"303 0 LINE",
"430 0 LINE",
"540 700 LINE",
"413 700 LINE"
);
},
{
closed = 1;
nodes = (
"38 373 LINE",
"600 373 LINE",
"623 500 LINE",
"61 500 LINE"
);
},
{
closed = 1;
nodes = (
"10 169 LINE",
"572 169 LINE",
"590 295 LINE",
"28 295 LINE"
);
}
);
width = 633;
}
);
unicode = 0023;
},
{
glyphname = slash;
lastChange = "2021-05-23 18:18:52 +0000";
layers = (
{
layerId = m01;
paths = (
{
closed = 1;
nodes = (
"83 -84 LINE",
"357 747 LINE",
"291 747 LINE",
"15 -84 LINE"
);
}
);
width = 372;
},
{
layerId = "747A0BA5-337F-45E8-9896-B2CAF0968805";
paths = (
{
closed = 1;
nodes = (
"183 -84 LINE",
"457 747 LINE",
"291 747 LINE",
"15 -84 LINE"
);
}
);
width = 472;
}
);
unicode = 002F;
},
{
glyphname = hyphen;
lastChange = "2021-05-23 18:28:25 +0000";
layers = (
{
layerId = m01;
paths = (
{
closed = 1;
nodes = (
"60 269 LINE",
"360 269 LINE",
"360 326 LINE",
"60 326 LINE"
);
}
);
width = 420;
},
{
layerId = "747A0BA5-337F-45E8-9896-B2CAF0968805";
paths = (
{
closed = 1;
nodes = (
"50 223 LINE",
"350 223 LINE",
"350 373 LINE",
"50 373 LINE"
);
}
);
width = 400;
}
);
unicode = 002D;
},
{
glyphname = endash;
lastChange = "2021-05-23 18:28:42 +0000";
layers = (
{
layerId = m01;
paths = (
{
closed = 1;
nodes = (
"0 269 LINE",
"550 269 LINE",
"550 326 LINE",
"0 326 LINE"
);
}
);
width = 550;
},
{
layerId = "747A0BA5-337F-45E8-9896-B2CAF0968805";
paths = (
{
closed = 1;
nodes = (
"0 223 LINE",
"550 223 LINE",
"550 373 LINE",
"0 373 LINE"
);
}
);
width = 550;
}
);
unicode = 2013;
},
{
glyphname = emdash;
lastChange = "2021-05-23 18:28:55 +0000";
layers = (
{
layerId = m01;
paths = (
{
closed = 1;
nodes = (
"0 269 LINE",
"1100 269 LINE",
"1100 326 LINE",
"0 326 LINE"
);
}
);
width = 1100;
},
{
layerId = "747A0BA5-337F-45E8-9896-B2CAF0968805";
paths = (
{
closed = 1;
nodes = (
"0 223 LINE",
"1100 223 LINE",
"1100 373 LINE",
"0 373 LINE"
);
}
);
width = 1100;
}
);
unicode = 2014;
},
{
glyphname = underscore;
lastChange = "2021-05-23 18:29:57 +0000";
layers = (
{
layerId = m01;
paths = (
{
closed = 1;
nodes = (
"20 -57 LINE",
"420 -57 LINE",
"420 0 LINE",
"20 0 LINE"
);
}
);
width = 440;
},
{
layerId = "747A0BA5-337F-45E8-9896-B2CAF0968805";
paths = (
{
closed = 1;
nodes = (
"15 -150 LINE",
"415 -150 LINE",
"415 0 LINE",
"15 0 LINE"
);
}
);
width = 430;
}
);
unicode = 005F;
},
{
glyphname = parenleft;
lastChange = "2021-05-23 18:44:29 +0000";
layers = (
{
layerId = m01;
paths = (
{
closed = 1;
nodes = (
"124 515 OFFCURVE",
"197 671 OFFCURVE",
"290 800 CURVE",
"226 800 LINE",
"133 678 OFFCURVE",
"60 523 OFFCURVE",
"60 350 CURVE SMOOTH",
"60 177 OFFCURVE",
"133 22 OFFCURVE",
"226 -100 CURVE",
"290 -100 LINE",
"197 29 OFFCURVE",
"124 185 OFFCURVE",
"124 350 CURVE SMOOTH"
);
}
);
width = 340;
},
{
layerId = "747A0BA5-337F-45E8-9896-B2CAF0968805";
paths = (
{
closed = 1;
nodes = (
"214 515 OFFCURVE",
"287 671 OFFCURVE",
"380 800 CURVE",
"206 800 LINE",
"113 678 OFFCURVE",
"40 523 OFFCURVE",
"40 350 CURVE SMOOTH",
"40 177 OFFCURVE",
"113 22 OFFCURVE",
"206 -100 CURVE",
"380 -100 LINE",
"287 29 OFFCURVE",
"214 185 OFFCURVE",
"214 350 CURVE SMOOTH"
);
}
);
width = 410;
}
);
unicode = 0028;
},
{
glyphname = braceleft;
lastChange = "2021-05-23 18:48:12 +0000";
layers = (
{
background = {
paths = (
{
closed = 1;
nodes = (
"305 -52 LINE",
"202 -27 OFFCURVE",
"130 139 OFFCURVE",
"130 350 CURVE SMOOTH",
"130 561 OFFCURVE",
"201 727 OFFCURVE",
"302 752 CURVE",
"292 800 LINE",
"160 778 OFFCURVE",
"66 592 OFFCURVE",
"66 350 CURVE SMOOTH",
"66 108 OFFCURVE",
"161 -78 OFFCURVE",
"295 -100 CURVE"
);
}
);
};
layerId = m01;
paths = (
{
closed = 1;
nodes = (
"160 402 OFFCURVE",
"140 375 OFFCURVE",
"60 375 CURVE",
"60 339 LINE",
"191 339 OFFCURVE",
"224 374 OFFCURVE",
"224 513 CURVE SMOOTH",
"224 694 OFFCURVE",
"244 740 OFFCURVE",
"322 742 CURVE",
"322 800 LINE",
"192 800 OFFCURVE",
"160 742 OFFCURVE",
"160 512 CURVE SMOOTH"
);
},
{
closed = 1;
nodes = (
"160 -42 OFFCURVE",
"192 -100 OFFCURVE",
"322 -100 CURVE",
"322 -42 LINE",
"244 -40 OFFCURVE",
"224 6 OFFCURVE",
"224 187 CURVE SMOOTH",
"224 326 OFFCURVE",
"191 361 OFFCURVE",
"60 361 CURVE",
"60 325 LINE",
"140 325 OFFCURVE",
"160 298 OFFCURVE",
"160 188 CURVE SMOOTH"
);
}
);
width = 382;
},
{
layerId = "747A0BA5-337F-45E8-9896-B2CAF0968805";
paths = (
{
closed = 1;
nodes = (
"140 434 OFFCURVE",
"122 415 OFFCURVE",
"50 415 CURVE",
"50 339 LINE",
"242 339 OFFCURVE",
"290 374 OFFCURVE",
"290 513 CURVE SMOOTH",
"290 631 OFFCURVE",
"302 661 OFFCURVE",
"352 662 CURVE",
"352 800 LINE",
"182 800 OFFCURVE",
"140 742 OFFCURVE",
"140 512 CURVE SMOOTH"
);
},
{
closed = 1;
nodes = (
"140 -42 OFFCURVE",
"182 -100 OFFCURVE",
"352 -100 CURVE",
"352 38 LINE",
"303 39 OFFCURVE",
"291 69 OFFCURVE",
"291 187 CURVE SMOOTH",
"291 326 OFFCURVE",
"243 361 OFFCURVE",
"50 361 CURVE",
"50 285 LINE",
"122 285 OFFCURVE",
"140 266 OFFCURVE",
"140 188 CURVE SMOOTH"
);
}
);
width = 402;
}
);
unicode = 007B;
},
{
glyphname = bracketleft;
lastChange = "2021-05-23 18:51:29 +0000";
layers = (
{
background = {
paths = (
{
closed = 1;
nodes = (
"94 402 OFFCURVE",
"74 375 OFFCURVE",
"-6 375 CURVE",
"-6 339 LINE",
"125 339 OFFCURVE",
"158 374 OFFCURVE",
"158 513 CURVE SMOOTH",
"158 694 OFFCURVE",
"174 740 OFFCURVE",
"236 742 CURVE",
"236 800 LINE",
"122 800 OFFCURVE",
"94 742 OFFCURVE",
"94 512 CURVE SMOOTH"
);
},
{
closed = 1;
nodes = (
"94 -42 OFFCURVE",
"122 -100 OFFCURVE",
"236 -100 CURVE",
"236 -42 LINE",
"174 -40 OFFCURVE",
"158 6 OFFCURVE",
"158 187 CURVE SMOOTH",
"158 326 OFFCURVE",
"125 361 OFFCURVE",
"-6 361 CURVE",
"-6 325 LINE",
"74 325 OFFCURVE",
"94 298 OFFCURVE",
"94 188 CURVE SMOOTH"
);
}
);
};
layerId = m01;
paths = (
{
closed = 1;
nodes = (
"236 742 LINE",
"164 742 LINE",
"164 -42 LINE",
"236 -42 LINE",
"236 -100 LINE",
"100 -100 LINE",
"100 800 LINE",
"236 800 LINE"
);
}
);
width = 316;
},
{
layerId = "747A0BA5-337F-45E8-9896-B2CAF0968805";
paths = (
{
closed = 1;
nodes = (
"332 640 LINE",
"220 640 LINE",
"220 60 LINE",
"332 60 LINE",
"332 -100 LINE",
"70 -100 LINE",
"70 800 LINE",
"332 800 LINE"
);
}
);
width = 382;
}
);
leftMetricsKey = I;
rightMetricsKey = "=I-20";
unicode = 005B;
},
{
glyphname = quotesingle;
lastChange = "2021-05-23 19:13:58 +0000";
layers = (
{
layerId = m01;
paths = (
{
closed = 1;
nodes = (
"65 490 LINE",
"117 490 LINE",
"122 716 LINE",
"60 716 LINE"
);
}
);
width = 182;
},
{
layerId = "747A0BA5-337F-45E8-9896-B2CAF0968805";
paths = (
{
closed = 1;
nodes = (
"80 440 LINE",
"207 440 LINE",
"227 716 LINE",
"60 716 LINE"
);
}
);
width = 287;
}
);
unicode = 0027;
},
{
glyphname = at;
lastChange = "2021-06-27 06:32:50 +0000";
layers = (
{
layerId = m01;
paths = (
{
closed = 1;
nodes = (
"574 -213 OFFCURVE",
"657 -194 OFFCURVE",
"713 -166 CURVE",
"685 -119 LINE",
"639 -140 OFFCURVE",
"568 -155 OFFCURVE",
"514 -155 CURVE SMOOTH",
"280 -155 OFFCURVE",
"114 14 OFFCURVE",
"114 252 CURVE SMOOTH",
"114 489 OFFCURVE",
"280 657 OFFCURVE",
"514 657 CURVE SMOOTH",
"725 657 OFFCURVE",
"874 489 OFFCURVE",
"874 252 CURVE",
"938 252 LINE",
"938 523 OFFCURVE",
"762 715 OFFCURVE",
"514 715 CURVE SMOOTH",
"242 715 OFFCURVE",
"50 523 OFFCURVE",
"50 252 CURVE SMOOTH",
"50 -20 OFFCURVE",
"242 -213 OFFCURVE",
"514 -213 CURVE SMOOTH"
);
},
{
closed = 1;
nodes = (
"592 15 OFFCURVE",
"682 114 OFFCURVE",
"682 253 CURVE SMOOTH",
"682 392 OFFCURVE",
"592 490 OFFCURVE",
"465 490 CURVE SMOOTH",
"331 490 OFFCURVE",
"237 392 OFFCURVE",
"237 253 CURVE SMOOTH",
"237 114 OFFCURVE",
"331 15 OFFCURVE",
"465 15 CURVE SMOOTH"
);
},
{
closed = 1;
nodes = (
"373 73 OFFCURVE",
"301 148 OFFCURVE",
"301 253 CURVE SMOOTH",
"301 358 OFFCURVE",
"373 432 OFFCURVE",
"475 432 CURVE SMOOTH",
"576 432 OFFCURVE",
"648 358 OFFCURVE",
"648 253 CURVE SMOOTH",
"648 148 OFFCURVE",
"576 73 OFFCURVE",
"475 73 CURVE SMOOTH"
);
},
{
closed = 1;
nodes = (
"861 -15 OFFCURVE",
"938 96 OFFCURVE",
"938 252 CURVE",
"874 252 LINE",
"874 130 OFFCURVE",
"825 43 OFFCURVE",
"755 43 CURVE SMOOTH",
"730 43 OFFCURVE",
"712 67 OFFCURVE",
"712 100 CURVE",
"646 100 LINE",
"646 28 OFFCURVE",
"682 -16 OFFCURVE",
"753 -15 CURVE SMOOTH"
);
},
{
closed = 1;
nodes = (
"712 100 LINE",
"712 479 LINE",
"646 479 LINE",
"646 100 LINE"
);
}
);
width = 988;
},
{
background = {
components = (
{
name = Bowl;
transform = "{0.8957, 0, 0, 0.8957, 298, 28}";
}
);
};
layerId = "747A0BA5-337F-45E8-9896-B2CAF0968805";
paths = (
{
closed = 1;
nodes = (
"580 -208 OFFCURVE",
"660 -182 OFFCURVE",
"716 -146 CURVE",
"645 -49 LINE",
"616 -72 OFFCURVE",
"565 -88 OFFCURVE",
"522 -88 CURVE SMOOTH",
"304 -88 OFFCURVE",
"150 53 OFFCURVE",
"150 252 CURVE SMOOTH",
"150 453 OFFCURVE",
"304 595 OFFCURVE",
"522 595 CURVE SMOOTH",
"716 595 OFFCURVE",
"854 453 OFFCURVE",
"854 252 CURVE",
"974 252 LINE",
"974 523 OFFCURVE",
"787 715 OFFCURVE",
"522 715 CURVE SMOOTH",
"234 715 OFFCURVE",
"30 523 OFFCURVE",
"30 252 CURVE SMOOTH",
"30 -17 OFFCURVE",
"234 -208 OFFCURVE",
"522 -208 CURVE SMOOTH"
);
},
{
closed = 1;
nodes = (
"580 14 OFFCURVE",
"669 113 OFFCURVE",
"669 252 CURVE SMOOTH",
"669 391 OFFCURVE",
"580 489 OFFCURVE",
"455 489 CURVE SMOOTH",
"341 489 OFFCURVE",
"261 391 OFFCURVE",
"261 252 CURVE SMOOTH",
"261 113 OFFCURVE",
"341 14 OFFCURVE",
"455 14 CURVE SMOOTH"
);
},
{
closed = 1;
nodes = (
"464 158 OFFCURVE",
"425 196 OFFCURVE",
"425 253 CURVE SMOOTH",
"425 307 OFFCURVE",
"459 345 OFFCURVE",
"507 345 CURVE SMOOTH",
"557 345 OFFCURVE",
"594 307 OFFCURVE",
"594 252 CURVE SMOOTH",
"594 196 OFFCURVE",
"561 158 OFFCURVE",
"516 158 CURVE SMOOTH"
);
},
{
closed = 1;
nodes = (
"884 -15 OFFCURVE",
"974 96 OFFCURVE",
"974 252 CURVE",
"854 252 LINE",
"854 158 OFFCURVE",
"819 91 OFFCURVE",
"770 91 CURVE SMOOTH",
"745 91 OFFCURVE",
"727 96 OFFCURVE",
"727 130 CURVE",
"597 120 LINE",
"597 41 OFFCURVE",
"669 -15 OFFCURVE",
"756 -15 CURVE SMOOTH"
);
},
{
closed = 1;
nodes = (
"727 130 LINE",
"727 479 LINE",
"587 479 LINE",
"597 120 LINE"
);
}
);
width = 1004;
}
);
leftMetricsKey = O;
rightMetricsKey = O;
unicode = 0040;
},
{
glyphname = ampersand;
lastChange = "2021-05-24 15:44:05 +0000";
layers = (
{
layerId = m01;
paths = (
{
closed = 1;
nodes = (
"289 352 LINE",
"387 409 OFFCURVE",
"456 457 OFFCURVE",
"456 541 CURVE SMOOTH",
"456 643 OFFCURVE",
"385 715 OFFCURVE",
"273 715 CURVE SMOOTH",
"185 715 OFFCURVE",
"116 646 OFFCURVE",
"116 549 CURVE SMOOTH",
"116 463 OFFCURVE",
"177 402 OFFCURVE",
"264 283 CURVE SMOOTH",
"334 185 OFFCURVE",
"430 68 OFFCURVE",
"491 0 CURVE",
"561 0 LINE",
"513 55 OFFCURVE",
"412 185 OFFCURVE",
"315 314 CURVE SMOOTH",
"238 417 OFFCURVE",
"180 488 OFFCURVE",
"180 549 CURVE SMOOTH",
"180 612 OFFCURVE",
"226 657 OFFCURVE",
"283 657 CURVE SMOOTH",
"352 657 OFFCURVE",
"392 610 OFFCURVE",
"392 544 CURVE SMOOTH",
"392 476 OFFCURVE",
"336 446 OFFCURVE",
"258 400 CURVE",
"165 347 LINE SMOOTH",
"105 313 OFFCURVE",
"60 256 OFFCURVE",
"60 179 CURVE SMOOTH",
"60 65 OFFCURVE",
"144 -15 OFFCURVE",
"262 -15 CURVE SMOOTH",
"449 -15 OFFCURVE",
"581 119 OFFCURVE",
"581 308 CURVE",
"517 309 LINE",
"517 153 OFFCURVE",
"411 43 OFFCURVE",
"262 43 CURVE SMOOTH",
"181 43 OFFCURVE",
"124 99 OFFCURVE",
"124 179 CURVE SMOOTH",
"124 239 OFFCURVE",
"154 277 OFFCURVE",
"194 299 CURVE SMOOTH"
);
}
);
width = 631;
},
{
background = {
backgroundImage = {
imagePath = "../../../Desktop/Screen Shot 2021-05-24 at 9.37.48 AM.png";
transform = "{4.9751, 0, 0, 4.9751, 13, -37}";
};
};
layerId = "747A0BA5-337F-45E8-9896-B2CAF0968805";
paths = (
{
closed = 1;
nodes = (
"306 292 LINE",
"452 382 OFFCURVE",
"508 446 OFFCURVE",
"508 530 CURVE SMOOTH",
"508 639 OFFCURVE",
"414 715 OFFCURVE",
"280 715 CURVE SMOOTH",
"162 715 OFFCURVE",
"79 641 OFFCURVE",
"79 537 CURVE SMOOTH",
"79 473 OFFCURVE",
"140 403 OFFCURVE",
"227 283 CURVE",
"277 213 OFFCURVE",
"373 96 OFFCURVE",
"445 0 CURVE",
"623 0 LINE",
"630 -16 OFFCURVE",
"500 142 OFFCURVE",
"321 381 CURVE SMOOTH",
"252 473 OFFCURVE",
"232 496 OFFCURVE",
"232 519 CURVE SMOOTH",
"232 552 OFFCURVE",
"256 575 OFFCURVE",
"290 575 CURVE SMOOTH",
"330 575 OFFCURVE",
"358 552 OFFCURVE",
"358 520 CURVE SMOOTH",
"358 488 OFFCURVE",
"302 456 OFFCURVE",
"228 410 CURVE",
"118 342 LINE SMOOTH",
"65 309 OFFCURVE",
"30 240 OFFCURVE",
"30 179 CURVE SMOOTH",
"30 65 OFFCURVE",
"118 -15 OFFCURVE",
"242 -15 CURVE SMOOTH",
"466 -15 OFFCURVE",
"624 114 OFFCURVE",
"624 296 CURVE",
"474 297 LINE",
"474 187 OFFCURVE",
"354 127 OFFCURVE",
"256 127 CURVE SMOOTH",
"217 127 OFFCURVE",
"190 148 OFFCURVE",
"190 177 CURVE SMOOTH",
"190 201 OFFCURVE",
"209 225 OFFCURVE",
"237 244 CURVE SMOOTH"
);
}
);
width = 644;
}
);
leftMetricsKey = eight;
unicode = 0026;
},
{
glyphname = degree;
lastChange = "2021-05-24 17:20:27 +0000";
layers = (
{
layerId = m01;
paths = (
{
closed = 1;
nodes = (
"254 450 OFFCURVE",
"315 512 OFFCURVE",
"315 585 CURVE SMOOTH",
"315 656 OFFCURVE",
"254 715 OFFCURVE",
"182 715 CURVE SMOOTH",
"110 715 OFFCURVE",
"50 656 OFFCURVE",
"50 585 CURVE SMOOTH",
"50 512 OFFCURVE",
"110 450 OFFCURVE",
"182 450 CURVE SMOOTH"
);
},
{
closed = 1;
nodes = (
"143 505 OFFCURVE",
"110 542 OFFCURVE",
"110 585 CURVE SMOOTH",
"110 626 OFFCURVE",
"143 660 OFFCURVE",
"182 660 CURVE SMOOTH",
"222 660 OFFCURVE",
"255 626 OFFCURVE",
"255 585 CURVE SMOOTH",
"255 542 OFFCURVE",
"222 505 OFFCURVE",
"182 505 CURVE SMOOTH"
);
}
);
width = 365;
},
{
layerId = "747A0BA5-337F-45E8-9896-B2CAF0968805";
paths = (
{
closed = 1;
nodes = (
"281 403 OFFCURVE",
"357 472 OFFCURVE",
"357 561 CURVE SMOOTH",
"357 648 OFFCURVE",
"281 716 OFFCURVE",
"193 716 CURVE SMOOTH",
"106 716 OFFCURVE",
"30 648 OFFCURVE",
"30 561 CURVE SMOOTH",
"30 473 OFFCURVE",
"105 403 OFFCURVE",
"193 403 CURVE SMOOTH"
);
},
{
closed = 1;
nodes = (
"170 513 OFFCURVE",
"150 535 OFFCURVE",
"150 561 CURVE SMOOTH",
"150 586 OFFCURVE",
"170 606 OFFCURVE",
"193 606 CURVE SMOOTH",
"217 606 OFFCURVE",
"237 586 OFFCURVE",
"237 561 CURVE SMOOTH",
"237 535 OFFCURVE",
"217 513 OFFCURVE",
"193 513 CURVE SMOOTH"
);
}
);
width = 387;
}
);
unicode = 00B0;
},
{
glyphname = bar;
lastChange = "2021-05-24 17:23:16 +0000";
layers = (
{
layerId = m01;
paths = (
{
closed = 1;
nodes = (
"155 -220 LINE",
"158 790 LINE",
"102 790 LINE",
"100 -220 LINE"
);
}
);
width = 258;
},
{
layerId = "747A0BA5-337F-45E8-9896-B2CAF0968805";
paths = (
{
closed = 1;
nodes = (
"203 -220 LINE",
"210 790 LINE",
"75 790 LINE",
"70 -220 LINE"
);
}
);
width = 280;
}
);
leftMetricsKey = I;
rightMetricsKey = I;
unicode = 007C;
},
{
glyphname = dollar;
lastChange = "2021-06-28 04:42:56 +0000";
layers = (
{
layerId = m01;
paths = (
{
closed = 1;
nodes = (
"116 36 OFFCURVE",
"219 -16 OFFCURVE",
"333 -16 CURVE SMOOTH",
"492 -16 OFFCURVE",
"586 59 OFFCURVE",
"586 187 CURVE SMOOTH",
"586 282 OFFCURVE",
"501 355 OFFCURVE",
"356 384 CURVE SMOOTH",
"227 410 OFFCURVE",
"150 461 OFFCURVE",
"150 522 CURVE SMOOTH",
"150 608 OFFCURVE",
"215 659 OFFCURVE",
"325 659 CURVE SMOOTH",
"401 659 OFFCURVE",
"479 615 OFFCURVE",
"535 540 CURVE",
"586 574 LINE",
"526 663 OFFCURVE",
"433 716 OFFCURVE",
"337 716 CURVE SMOOTH",
"179 716 OFFCURVE",
"86 641 OFFCURVE",
"86 513 CURVE SMOOTH",
"86 424 OFFCURVE",
"177 355 OFFCURVE",
"330 327 CURVE SMOOTH",
"451 305 OFFCURVE",
"522 250 OFFCURVE",
"522 178 CURVE SMOOTH",
"522 91 OFFCURVE",
"446 40 OFFCURVE",
"318 40 CURVE SMOOTH",
"236 40 OFFCURVE",
"158 85 OFFCURVE",
"106 161 CURVE",
"57 123 LINE"
);
},
{
closed = 1;
nodes = (
"353 -103 LINE",
"356 780 LINE",
"300 780 LINE",
"298 -103 LINE"
);
}
);
width = 643;
},
{
layerId = "747A0BA5-337F-45E8-9896-B2CAF0968805";
paths = (
{
closed = 1;
nodes = (
"76 39 OFFCURVE",
"183 -16 OFFCURVE",
"302 -16 CURVE SMOOTH",
"479 -16 OFFCURVE",
"583 71 OFFCURVE",
"583 217 CURVE SMOOTH",
"583 323 OFFCURVE",
"487 405 OFFCURVE",
"325 438 CURVE SMOOTH",
"267 449 OFFCURVE",
"233 468 OFFCURVE",
"233 490 CURVE SMOOTH",
"233 520 OFFCURVE",
"260 538 OFFCURVE",
"306 538 CURVE SMOOTH",
"365 538 OFFCURVE",
"414 518 OFFCURVE",
"438 483 CURVE",
"589 583 LINE",
"527 668 OFFCURVE",
"426 718 OFFCURVE",
"318 718 CURVE SMOOTH",
"143 718 OFFCURVE",
"40 640 OFFCURVE",
"40 508 CURVE SMOOTH",
"40 386 OFFCURVE",
"136 296 OFFCURVE",
"299 266 CURVE SMOOTH",
"358 254 OFFCURVE",
"393 236 OFFCURVE",
"393 217 CURVE SMOOTH",
"393 184 OFFCURVE",
"361 164 OFFCURVE",
"307 164 CURVE SMOOTH",
"238 164 OFFCURVE",
"185 190 OFFCURVE",
"165 234 CURVE",
"15 131 LINE"
);
},
{
closed = 1;
nodes = (
"342 -103 LINE",
"366 790 LINE",
"282 790 LINE",
"260 -103 LINE"
);
}
);
width = 614;
}
);
leftMetricsKey = S;
rightMetricsKey = S;
unicode = 0024;
},
{
glyphname = plus;
lastChange = "2021-05-29 16:16:28 +0000";
layers = (
{
layerId = m01;
paths = (
{
closed = 1;
nodes = (
"50 269 LINE",
"500 269 LINE",
"500 326 LINE",
"50 326 LINE"
);
},
{
closed = 1;
nodes = (
"247 523 LINE",
"247 73 LINE",
"304 73 LINE",
"304 523 LINE"
);
}
);
width = 550;
},
{
layerId = "747A0BA5-337F-45E8-9896-B2CAF0968805";
paths = (
{
closed = 1;
nodes = (
"40 228 LINE",
"510 228 LINE",
"510 368 LINE",
"40 368 LINE"
);
},
{
closed = 1;
nodes = (
"205 533 LINE",
"205 63 LINE",
"345 63 LINE",
"345 533 LINE"
);
}
);
width = 550;
}
);
unicode = 002B;
},
{
glyphname = equal;
lastChange = "2021-05-25 05:02:57 +0000";
layers = (
{
layerId = m01;
paths = (
{
closed = 1;
nodes = (
"120 369 LINE",
"520 369 LINE",
"520 426 LINE",
"120 426 LINE"
);
},
{
closed = 1;
nodes = (
"120 169 LINE",
"520 169 LINE",
"520 226 LINE",
"120 226 LINE"
);
}
);
width = 640;
},
{
layerId = "747A0BA5-337F-45E8-9896-B2CAF0968805";
paths = (
{
closed = 1;
nodes = (
"80 328 LINE",
"480 328 LINE",
"480 467 LINE",
"80 467 LINE"
);
},
{
closed = 1;
nodes = (
"80 128 LINE",
"480 128 LINE",
"480 267 LINE",
"80 267 LINE"
);
}
);
width = 560;
}
);
unicode = 003D;
},
{
glyphname = greater;
lastChange = "2021-05-29 16:15:46 +0000";
layers = (
{
background = {
paths = (
{
closed = 1;
nodes = (
"90 369 LINE",
"490 369 LINE",
"490 426 LINE",
"90 426 LINE"
);
},
{
closed = 1;
nodes = (
"90 169 LINE",
"490 169 LINE",
"490 226 LINE",
"90 226 LINE"
);
},
{
closed = 0;
nodes = (
"90 299 LINE",
"488 299 LINE"
);
}
);
};
layerId = m01;
paths = (
{
closed = 1;
nodes = (
"421 266 LINE",
"421 332 LINE",
"90 489 LINE",
"90 426 LINE"
);
},
{
closed = 1;
nodes = (
"90 107 LINE",
"421 266 LINE",
"421 332 LINE",
"90 169 LINE"
);
}
);
width = 521;
},
{
background = {
paths = (
{
closed = 1;
nodes = (
"60 328 LINE",
"460 328 LINE",
"460 467 LINE",
"60 467 LINE"
);
},
{
closed = 1;
nodes = (
"60 128 LINE",
"460 128 LINE",
"460 267 LINE",
"60 267 LINE"
);
}
);
};
layerId = "747A0BA5-337F-45E8-9896-B2CAF0968805";
paths = (
{
closed = 1;
nodes = (
"471 234 LINE",
"471 369 LINE",
"70 536 LINE",
"70 379 LINE"
);
},
{
closed = 1;
nodes = (
"70 60 LINE",
"471 229 LINE",
"471 364 LINE",
"70 217 LINE"
);
}
);
width = 521;
}
);
unicode = 003E;
},
{
glyphname = asciitilde;
lastChange = "2021-05-25 04:57:22 +0000";
layers = (
{
layerId = m01;
paths = (
{
closed = 1;
nodes = (
"309 382 OFFCURVE",
"255 427 OFFCURVE",
"188 427 CURVE SMOOTH",
"113 427 OFFCURVE",
"60 369 OFFCURVE",
"60 288 CURVE",
"118 288 LINE",
"118 338 OFFCURVE",
"147 373 OFFCURVE",
"188 373 CURVE SMOOTH",
"224 373 OFFCURVE",
"252 350 OFFCURVE",
"256 318 CURVE SMOOTH",
"265 254 OFFCURVE",
"319 209 OFFCURVE",
"386 209 CURVE SMOOTH",
"461 209 OFFCURVE",
"514 267 OFFCURVE",
"514 348 CURVE",
"456 348 LINE",
"456 298 OFFCURVE",
"427 263 OFFCURVE",
"386 263 CURVE SMOOTH",
"350 263 OFFCURVE",
"322 286 OFFCURVE",
"318 318 CURVE SMOOTH"
);
}
);
width = 574;
},
{
background = {
paths = (
{
closed = 1;
nodes = (
"424 421 OFFCURVE",
"346 493 OFFCURVE",
"250 493 CURVE SMOOTH",
"139 493 OFFCURVE",
"60 408 OFFCURVE",
"60 288 CURVE",
"180 288 LINE",
"180 338 OFFCURVE",
"209 373 OFFCURVE",
"250 373 CURVE SMOOTH",
"286 373 OFFCURVE",
"314 350 OFFCURVE",
"318 318 CURVE SMOOTH",
"332 215 OFFCURVE",
"410 143 OFFCURVE",
"506 143 CURVE SMOOTH",
"617 143 OFFCURVE",
"696 228 OFFCURVE",
"696 348 CURVE",
"576 348 LINE",
"576 298 OFFCURVE",
"547 263 OFFCURVE",
"506 263 CURVE SMOOTH",
"470 263 OFFCURVE",
"442 286 OFFCURVE",
"438 318 CURVE SMOOTH"
);
}
);
};
layerId = "747A0BA5-337F-45E8-9896-B2CAF0968805";
paths = (
{
closed = 1;
nodes = (
"433 426 OFFCURVE",
"351 503 OFFCURVE",
"250 503 CURVE SMOOTH",
"133 503 OFFCURVE",
"50 414 OFFCURVE",
"50 288 CURVE",
"190 288 LINE",
"190 332 OFFCURVE",
"215 363 OFFCURVE",
"250 363 CURVE SMOOTH",
"281 363 OFFCURVE",
"305 344 OFFCURVE",
"308 318 CURVE SMOOTH",
"323 210 OFFCURVE",
"405 133 OFFCURVE",
"506 133 CURVE SMOOTH",
"623 133 OFFCURVE",
"706 222 OFFCURVE",
"706 348 CURVE",
"566 348 LINE",
"566 304 OFFCURVE",
"541 273 OFFCURVE",
"506 273 CURVE SMOOTH",
"475 273 OFFCURVE",
"451 292 OFFCURVE",
"448 318 CURVE SMOOTH"
);
}
);
width = 756;
}
);
leftMetricsKey = hyphen;
rightMetricsKey = hyphen;
unicode = 007E;
},
{
glyphname = asciicircum;
lastChange = "2021-05-25 05:39:40 +0000";
layers = (
{
layerId = m01;
paths = (
{
closed = 1;
nodes = (
"301 700 LINE",
"235 700 LINE",
"80 373 LINE",
"143 373 LINE"
);
},
{
closed = 1;
nodes = (
"459 373 LINE",
"302 700 LINE",
"235 700 LINE",
"397 373 LINE"
);
}
);
width = 539;
},
{
layerId = "747A0BA5-337F-45E8-9896-B2CAF0968805";
paths = (
{
closed = 1;
nodes = (
"381 700 LINE",
"225 700 LINE",
"70 373 LINE",
"223 373 LINE"
);
},
{
closed = 1;
nodes = (
"539 373 LINE",
"382 700 LINE",
"225 700 LINE",
"387 373 LINE"
);
}
);
width = 609;
}
);
unicode = 005E;
},
{
glyphname = percent;
lastChange = "2021-05-25 05:49:07 +0000";
layers = (
{
background = {
paths = (
{
closed = 1;
nodes = (
"108 0 LINE",
"172 0 LINE",
"172 700 LINE",
"108 700 LINE"
);
},
{
closed = 1;
nodes = (
"596 0 LINE",
"660 0 LINE",
"660 700 LINE",
"596 700 LINE"
);
},
{
closed = 1;
nodes = (
"172 332 LINE",
"596 332 LINE",
"596 390 LINE",
"172 390 LINE"
);
}
);
};
layerId = m01;
paths = (
{
closed = 1;
nodes = (
"100 0 LINE",
"175 0 LINE",
"675 700 LINE",
"597 700 LINE"
);
},
{
closed = 1;
nodes = (
"293 390 OFFCURVE",
"356 458 OFFCURVE",
"356 553 CURVE SMOOTH",
"356 648 OFFCURVE",
"293 716 OFFCURVE",
"203 716 CURVE SMOOTH",
"113 716 OFFCURVE",
"50 648 OFFCURVE",
"50 553 CURVE SMOOTH",
"50 458 OFFCURVE",
"113 390 OFFCURVE",
"203 390 CURVE SMOOTH"
);
},
{
closed = 1;
nodes = (
"145 450 OFFCURVE",
"104 493 OFFCURVE",
"104 553 CURVE SMOOTH",
"104 613 OFFCURVE",
"145 656 OFFCURVE",
"203 656 CURVE SMOOTH",
"261 656 OFFCURVE",
"302 613 OFFCURVE",
"302 553 CURVE SMOOTH",
"302 493 OFFCURVE",
"261 450 OFFCURVE",
"203 450 CURVE SMOOTH"
);
},
{
closed = 1;
nodes = (
"662 -16 OFFCURVE",
"725 52 OFFCURVE",
"725 147 CURVE SMOOTH",
"725 242 OFFCURVE",
"662 310 OFFCURVE",
"572 310 CURVE SMOOTH",
"482 310 OFFCURVE",
"419 242 OFFCURVE",
"419 147 CURVE SMOOTH",
"419 52 OFFCURVE",
"482 -16 OFFCURVE",
"572 -16 CURVE SMOOTH"
);
},
{
closed = 1;
nodes = (
"514 44 OFFCURVE",
"473 87 OFFCURVE",
"473 147 CURVE SMOOTH",
"473 207 OFFCURVE",
"514 250 OFFCURVE",
"572 250 CURVE SMOOTH",
"630 250 OFFCURVE",
"671 207 OFFCURVE",
"671 147 CURVE SMOOTH",
"671 87 OFFCURVE",
"630 44 OFFCURVE",
"572 44 CURVE SMOOTH"
);
}
);
width = 775;
},
{
background = {
paths = (
{
closed = 1;
nodes = (
"101 0 LINE",
"291 -1 LINE",
"291 699 LINE",
"101 700 LINE"
);
},
{
closed = 1;
nodes = (
"539 0 LINE",
"729 0 LINE",
"729 700 LINE",
"539 700 LINE"
);
},
{
closed = 1;
nodes = (
"228 276 LINE",
"652 276 LINE",
"652 446 LINE",
"228 446 LINE"
);
}
);
};
layerId = "747A0BA5-337F-45E8-9896-B2CAF0968805";
paths = (
{
closed = 1;
nodes = (
"83 0 LINE",
"248 0 LINE",
"748 700 LINE",
"580 700 LINE"
);
},
{
closed = 1;
nodes = (
"303 356 OFFCURVE",
"373 431 OFFCURVE",
"373 536 CURVE SMOOTH",
"373 641 OFFCURVE",
"303 716 OFFCURVE",
"204 716 CURVE SMOOTH",
"105 716 OFFCURVE",
"35 641 OFFCURVE",
"35 536 CURVE SMOOTH",
"35 431 OFFCURVE",
"105 356 OFFCURVE",
"204 356 CURVE SMOOTH"
);
},
{
closed = 1;
nodes = (
"169 474 OFFCURVE",
"146 501 OFFCURVE",
"146 536 CURVE SMOOTH",
"146 571 OFFCURVE",
"169 598 OFFCURVE",
"204 598 CURVE SMOOTH",
"239 598 OFFCURVE",
"262 571 OFFCURVE",
"262 536 CURVE SMOOTH",
"262 501 OFFCURVE",
"239 474 OFFCURVE",
"204 474 CURVE SMOOTH"
);
},
{
closed = 1;
nodes = (
"733 -15 OFFCURVE",
"803 60 OFFCURVE",
"803 165 CURVE SMOOTH",
"803 270 OFFCURVE",
"733 345 OFFCURVE",
"634 345 CURVE SMOOTH",
"535 345 OFFCURVE",
"465 270 OFFCURVE",
"465 165 CURVE SMOOTH",
"465 60 OFFCURVE",
"535 -15 OFFCURVE",
"634 -15 CURVE SMOOTH"
);
},
{
closed = 1;
nodes = (
"599 103 OFFCURVE",
"576 130 OFFCURVE",
"576 165 CURVE SMOOTH",
"576 200 OFFCURVE",
"599 227 OFFCURVE",
"634 227 CURVE SMOOTH",
"669 227 OFFCURVE",
"692 200 OFFCURVE",
"692 165 CURVE SMOOTH",
"692 130 OFFCURVE",
"669 103 OFFCURVE",
"634 103 CURVE SMOOTH"
);
}
);
width = 838;
}
);
unicode = 0025;
},
{
glyphname = rightArrow;
lastChange = "2021-05-25 05:32:06 +0000";
layers = (
{
layerId = m01;
paths = (
{
closed = 1;
nodes = (
"372 44 LINE",
"680 297 LINE",
"620 326 LINE",
"338 88 LINE"
);
},
{
closed = 1;
nodes = (
"70 269 LINE",
"620 269 LINE",
"620 326 LINE",
"70 326 LINE"
);
},
{
closed = 1;
nodes = (
"620 269 LINE",
"680 297 LINE",
"372 551 LINE",
"338 507 LINE"
);
}
);
width = 740;
},
{
layerId = "747A0BA5-337F-45E8-9896-B2CAF0968805";
paths = (
{
closed = 1;
nodes = (
"428 8 LINE",
"703 297 LINE",
"568 381 LINE",
"322 115 LINE"
);
},
{
closed = 1;
nodes = (
"60 223 LINE",
"610 223 LINE",
"610 373 LINE",
"60 373 LINE"
);
},
{
closed = 1;
nodes = (
"567 217 LINE",
"703 297 LINE",
"434 592 LINE",
"326 486 LINE"
);
}
);
width = 758;
}
);
unicode = 2192;
},
{
glyphname = grave;
lastChange = "2021-06-18 08:07:52 +0000";
layers = (
{
background = {
paths = (
{
closed = 1;
nodes = (
"451 0 LINE",
"451 272 LINE SMOOTH",
"451 436 OFFCURVE",
"384 516 OFFCURVE",
"246 516 CURVE",
"176 516 OFFCURVE",
"117 489 OFFCURVE",
"68 434 CURVE",
"103 395 LINE",
"147 439 OFFCURVE",
"194 461 OFFCURVE",
"246 461 CURVE SMOOTH",
"338 461 OFFCURVE",
"386 399 OFFCURVE",
"391 272 CURVE SMOOTH",
"401 0 LINE"
);
},
{
closed = 1;
nodes = (
"371 -16 OFFCURVE",
"447 75 OFFCURVE",
"447 214 CURVE",
"392 214 LINE",
"392 110 OFFCURVE",
"335 39 OFFCURVE",
"238 39 CURVE SMOOTH",
"154 39 OFFCURVE",
"105 77 OFFCURVE",
"105 141 CURVE",
"105 211 OFFCURVE",
"159 252 OFFCURVE",
"250 252 CURVE SMOOTH",
"299 252 OFFCURVE",
"355 236 OFFCURVE",
"401 209 CURVE",
"415 264 LINE",
"376 291 OFFCURVE",
"312 307 OFFCURVE",
"242 307 CURVE SMOOTH",
"118 307 OFFCURVE",
"45 245 OFFCURVE",
"45 141 CURVE SMOOTH",
"45 42 OFFCURVE",
"118 -16 OFFCURVE",
"242 -16 CURVE SMOOTH"
);
}
);
};
layerId = m01;
paths = (
{
closed = 1;
nodes = (
"318 586 LINE",
"353 627 LINE",
"210 753 LINE",
"170 708 LINE"
);
}
);
width = 523;
},
{
layerId = "747A0BA5-337F-45E8-9896-B2CAF0968805";
paths = (
{
closed = 1;
nodes = (
"352 567 LINE",
"405 635 LINE",
"243 775 LINE",
"175 690 LINE"
);
}
);
width = 549;
}
);
unicode = 0060;
},
{
glyphname = Bowl;
lastChange = "2021-06-25 18:07:28 +0000";
layers = (
{
layerId = m01;
paths = (
{
closed = 1;
nodes = (
"398 -16 OFFCURVE",
"487 94 OFFCURVE",
"487 250 CURVE SMOOTH",
"487 406 OFFCURVE",
"398 516 OFFCURVE",
"271 516 CURVE SMOOTH",
"139 516 OFFCURVE",
"45 406 OFFCURVE",
"45 250 CURVE SMOOTH",
"45 94 OFFCURVE",
"139 -16 OFFCURVE",
"271 -16 CURVE SMOOTH"
);
},
{
closed = 1;
nodes = (
"179 38 OFFCURVE",
"105 126 OFFCURVE",
"105 250 CURVE SMOOTH",
"105 374 OFFCURVE",
"178 462 OFFCURVE",
"282 462 CURVE SMOOTH",
"379 462 OFFCURVE",
"447 374 OFFCURVE",
"447 250 CURVE",
"447 126 OFFCURVE",
"379 38 OFFCURVE",
"283 38 CURVE SMOOTH"
);
}
);
width = 582;
},
{
layerId = "747A0BA5-337F-45E8-9896-B2CAF0968805";
paths = (
{
closed = 1;
nodes = (
"351 -16 OFFCURVE",
"419 83 OFFCURVE",
"419 250 CURVE SMOOTH",
"419 416 OFFCURVE",
"351 514 OFFCURVE",
"237 514 CURVE SMOOTH",
"95 514 OFFCURVE",
"11 416 OFFCURVE",
"11 250 CURVE SMOOTH",
"11 83 OFFCURVE",
"95 -16 OFFCURVE",
"237 -16 CURVE SMOOTH"
);
},
{
closed = 1;
nodes = (
"236 154 OFFCURVE",
"200 194 OFFCURVE",
"199 250 CURVE SMOOTH",
"200 306 OFFCURVE",
"235 345 OFFCURVE",
"284 345 CURVE SMOOTH",
"335 345 OFFCURVE",
"371 306 OFFCURVE",
"371 250 CURVE SMOOTH",
"371 194 OFFCURVE",
"335 154 OFFCURVE",
"285 154 CURVE SMOOTH"
);
}
);
width = 585;
}
);
},
{
glyphname = arch;
lastChange = "2021-06-25 07:03:19 +0000";
layers = (
{
layerId = m01;
paths = (
{
closed = 1;
nodes = (
"37 385 OFFCURVE",
"93 460 OFFCURVE",
"188 460 CURVE SMOOTH",
"271 460 OFFCURVE",
"336 425 OFFCURVE",
"336 256 CURVE",
"396 286 LINE",
"397 441 OFFCURVE",
"318 516 OFFCURVE",
"198 516 CURVE SMOOTH",
"69 516 OFFCURVE",
"0 420 OFFCURVE",
"0 257 CURVE",
"37 257 LINE"
);
}
